SplineFontDB: 3.0
FontName: Keypunch029-Italic
FullName: Keypunch029 Regular Italic
FamilyName: Keypunch029
Weight: Regular
Copyright: Copyright (c) 2017, Stewart C. Russell, Toronto, Canada, scruss@scruss.com
UComments: "2017-3-21: Created with FontForge (http://fontforge.org)+AAoACgAA-Generated from a bitmap of the code plate (character generator) of an IBM 029 keypunch+AAoA"
FontLog: "2017-03-21: scruss+AAoA - initial release"
Version: 001.000
ItalicAngle: -9.46232
UnderlinePosition: -100
UnderlineWidth: 50
Ascent: 800
Descent: 200
InvalidEm: 0
LayerCount: 2
Layer: 0 0 "Back" 1
Layer: 1 0 "Fore" 0
XUID: [1021 181 -1879279871 2130104]
StyleMap: 0x0001
FSType: 0
OS2Version: 0
OS2_WeightWidthSlopeOnly: 0
OS2_UseTypoMetrics: 1
CreationTime: 1490117754
ModificationTime: 1490119001
PfmFamily: 49
TTFWeight: 400
TTFWidth: 5
LineGap: 90
VLineGap: 0
OS2TypoAscent: 0
OS2TypoAOffset: 1
OS2TypoDescent: 0
OS2TypoDOffset: 1
OS2TypoLinegap: 90
OS2WinAscent: 0
OS2WinAOffset: 1
OS2WinDescent: 0
OS2WinDOffset: 1
HheadAscent: 0
HheadAOffset: 1
HheadDescent: 0
HheadDOffset: 1
OS2Vendor: 'PfEd'
MarkAttachClasses: 1
DEI: 91125

StartChar: sterling
Encoding: 163 163 0
Width: 522
VWidth: 0
UnlinkRmOvrlpSave: 1
Flags: W
HStem: 200 86<52.6424 126.448 137.784 212.216 223.784 298.216 309.784 384.216 395.552 469.358> 286 85<152.642 226.61> 371 86<166.642 241.358> 457 86<95.39 169.216 180.784 255.216 266.784 341.358> 543 86<195.39 269.358> 629 85<209.642 284.358> 714 86<309.642 384.216 395.552 469.216 480.784 555.358>
VStem: 47 85<205.642 241 245 280.358> 90 85<462.853 498 502 537.147> 132 86<205.853 241 245 280.147> 147 85<291.642 365.61> 161 86<376.642 451.358> 175 86<462.853 498 502 537.147> 190 85<548.642 623.358> 204 86<634.39 708.358> 218 86<205.853 241 245 280.147> 261 86<462.853 498 502 537.147> 390 85<205.642 241 245 280.358 719.853 755 759 794.147>
LayerCount: 2
Back
Fore
SplineSet
475 243 m 0x8000c0
 475 219 456 200 432 200 c 0
 409 200 391 218 390 241 c 1
 389 218 370 200 347 200 c 0x8000c0
 324 200 305 218 304 241 c 1x800140
 303 218 284 200 261 200 c 0
 238 200 219 218 218 241 c 1x8040c0
 217 218 198 200 175 200 c 0
 152 200 133 218 132 241 c 1x810840
 131 218 113 200 90 200 c 1x808040
 66 200 47 219 47 243 c 0x810040
 47 267 66 286 90 286 c 0x808040
 113 286 131 268 132 245 c 1
 133 268 152 286 175 286 c 1x810840
 198 286 217 268 218 245 c 1
 219 268 238 286 261 286 c 0x8040c0
 284 286 303 268 304 245 c 1x800140
 305 268 324 286 347 286 c 0
 370 286 389 268 390 245 c 1
 391 268 409 286 432 286 c 0
 456 286 475 267 475 243 c 0x8000c0
232 329 m 0x402040
 232 305 214 286 190 286 c 0x800440
 166 286 147 305 147 329 c 0x802040
 147 353 166 371 190 371 c 0x400440
 214 371 232 353 232 329 c 0x402040
247 414 m 0x201040
 247 390 228 371 204 371 c 0x400240
 180 371 161 390 161 414 c 0x401040
 161 438 180 457 204 457 c 0x200240
 228 457 247 438 247 414 c 0x201040
347 500 m 0x1000c0
 347 476 328 457 304 457 c 0x100140
 281 457 262 475 261 498 c 1x100840
 260 475 241 457 218 457 c 0
 195 457 176 475 175 498 c 1x208140
 174 475 155 457 132 457 c 1x104040
 108 457 90 476 90 500 c 0x108040
 90 524 108 543 132 543 c 0x104040
 155 543 174 525 175 502 c 1
 176 525 195 543 218 543 c 1x108140
 241 543 260 525 261 502 c 1x100840
 262 525 281 543 304 543 c 0x100140
 328 543 347 524 347 500 c 0x1000c0
275 586 m 0x080440
 275 562 256 543 232 543 c 0x102040
 208 543 190 562 190 586 c 0x100440
 190 610 208 629 232 629 c 0x082040
 256 629 275 610 275 586 c 0x080440
290 671 m 0x040240
 290 647 271 629 247 629 c 0x081040
 223 629 204 647 204 671 c 0x080240
 204 695 223 714 247 714 c 0x041040
 271 714 290 695 290 671 c 0x040240
561 757 m 0
 561 733 542 714 518 714 c 0
 495 714 476 732 475 755 c 1
 474 732 455 714 432 714 c 0
 409 714 391 732 390 755 c 1
 389 732 370 714 347 714 c 0x0200c0
 323 714 304 733 304 757 c 0x020140
 304 781 323 800 347 800 c 0
 370 800 389 782 390 759 c 1
 391 782 409 800 432 800 c 0
 455 800 474 782 475 759 c 1
 476 782 495 800 518 800 c 0x0200c0
 542 800 561 781 561 757 c 0
EndSplineSet
EndChar

StartChar: Euro
Encoding: 8364 8364 1
Width: 522
VWidth: 0
UnlinkRmOvrlpSave: 1
Flags: W
HStem: 200 86<195.642 270.216 281.784 356.216 367.552 441.358> 286 85<124.642 198.61> 371 86<52.6424 127.216 138.784 213.216 224.784 298.61> 457 86<152.642 227.358> 543 86<81.6424 156.216 167.552 241.216 252.784 327.358> 629 85<181.642 256.358> 714 86<281.642 356.216 367.552 441.216 452.784 527.358>
VStem: 47 86<376.853 412 416 451.147> 76 86<548.853 584 588 623.147> 119 85<291.642 365.61> 133 86<376.853 412 416 451.147> 147 86<462.642 537.358> 162 85<548.853 584 588 623.147> 176 86<634.39 708.358> 190 86<205.853 241 245 280.147> 219 85<376.853 412 416 451.147> 247 86<548.853 584 588 623.147> 362 85<205.642 241 245 280.358 719.853 755 759 794.147>
LayerCount: 2
Back
Fore
SplineSet
447 243 m 0x800240
 447 219 428 200 404 200 c 0
 381 200 363 218 362 241 c 1
 361 218 342 200 319 200 c 0
 296 200 277 218 276 241 c 1x800240
 275 218 256 200 233 200 c 0x801040
 209 200 190 219 190 243 c 0x800240
 190 267 209 286 233 286 c 0x801040
 256 286 275 268 276 245 c 1
 277 268 296 286 319 286 c 0
 342 286 361 268 362 245 c 1
 363 268 381 286 404 286 c 0
 428 286 447 267 447 243 c 0x800240
204 329 m 0x404040
 204 305 186 286 162 286 c 0x400840
 138 286 119 305 119 329 c 0x404040
 119 353 138 371 162 371 c 0x400840
 186 371 204 353 204 329 c 0x404040
304 414 m 0x200140
 304 390 286 371 262 371 c 0x200440
 239 371 220 389 219 412 c 1x202040
 218 389 199 371 176 371 c 0x400440
 153 371 134 389 133 412 c 1
 132 389 113 371 90 371 c 1
 66 371 47 390 47 414 c 0
 47 438 66 457 90 457 c 0
 113 457 132 439 133 416 c 1
 134 439 153 457 176 457 c 1x210440
 199 457 218 439 219 416 c 1x202040
 220 439 239 457 262 457 c 0x200440
 286 457 304 438 304 414 c 0x200140
233 500 m 0x101040
 233 476 214 457 190 457 c 0x200240
 166 457 147 476 147 500 c 0x201040
 147 524 166 543 190 543 c 0x100240
 214 543 233 524 233 500 c 0x101040
333 586 m 0x0800c0
 333 562 314 543 290 543 c 0
 267 543 248 561 247 584 c 1x080840
 246 561 227 543 204 543 c 0x104040
 181 543 163 561 162 584 c 1x108040
 161 561 142 543 119 543 c 1x084040
 95 543 76 562 76 586 c 0x088040
 76 610 95 629 119 629 c 0x084040
 142 629 161 611 162 588 c 1x088040
 163 611 181 629 204 629 c 1x084040
 227 629 246 611 247 588 c 1x080840
 248 611 267 629 290 629 c 0
 314 629 333 610 333 586 c 0x0800c0
262 671 m 0x040440
 262 647 243 629 219 629 c 0x080140
 195 629 176 647 176 671 c 0x080440
 176 695 195 714 219 714 c 0x040140
 243 714 262 695 262 671 c 0x040440
533 757 m 0
 533 733 514 714 490 714 c 0
 467 714 448 732 447 755 c 1
 446 732 427 714 404 714 c 0
 381 714 363 732 362 755 c 1
 361 732 342 714 319 714 c 0
 295 714 276 733 276 757 c 0
 276 781 295 800 319 800 c 0
 342 800 361 782 362 759 c 1
 363 782 381 800 404 800 c 0
 427 800 446 782 447 759 c 1
 448 782 467 800 490 800 c 0x020240
 514 800 533 781 533 757 c 0
EndSplineSet
EndChar

StartChar: logicalnot
Encoding: 172 172 2
Width: 522
VWidth: 0
UnlinkRmOvrlpSave: 1
Flags: W
HStem: 200 86<367.39 441.358> 286 85<381.642 456.358> 371 86<52.6424 127.216 138.784 213.216 224.784 298.448 309.784 384.216 395.784 470.358>
VStem: 47 86<376.853 412 416 451.147> 133 86<376.853 412 416 451.147> 219 85<376.853 412 416 451.147> 304 86<376.853 412 416 451.147> 362 85<205.642 280.358> 376 86<291.642 365.61> 390 86<376.853 412 416 451.147>
LayerCount: 2
Back
Fore
SplineSet
447 243 m 0x81
 447 219 428 200 404 200 c 0
 380 200 362 219 362 243 c 0
 362 267 380 286 404 286 c 0
 428 286 447 267 447 243 c 0x81
462 329 m 0x4080
 462 305 443 286 419 286 c 0x8080
 395 286 376 305 376 329 c 0
 376 353 395 371 419 371 c 0
 443 371 462 353 462 329 c 0x4080
476 414 m 0x2040
 476 390 457 371 433 371 c 0
 410 371 391 389 390 412 c 1x42
 389 389 370 371 347 371 c 0
 324 371 305 389 304 412 c 1x24
 303 389 285 371 262 371 c 0
 239 371 220 389 219 412 c 1x28
 218 389 199 371 176 371 c 0
 153 371 134 389 133 412 c 1
 132 389 113 371 90 371 c 1
 66 371 47 390 47 414 c 0
 47 438 66 457 90 457 c 0
 113 457 132 439 133 416 c 1x30
 134 439 153 457 176 457 c 1
 199 457 218 439 219 416 c 1x28
 220 439 239 457 262 457 c 0
 285 457 303 439 304 416 c 1x24
 305 439 324 457 347 457 c 0
 370 457 389 439 390 416 c 1x22
 391 439 410 457 433 457 c 0
 457 457 476 438 476 414 c 0x2040
EndSplineSet
EndChar

StartChar: sqlozenge
Encoding: 8977 8977 3
Width: 522
VWidth: 0
UnlinkRmOvrlpSave: 1
Flags: W
HStem: 200 86<52.6424 126.61 395.39 469.358> 286 85<152.642 226.928 237.284 312.716 323.284 398.358> 371 86<166.642 241.358 337.642 412.358> 457 86<180.642 255.358 352.642 426.61> 543 86<195.39 269.358 366.642 441.358> 629 85<209.642 284.716 295.072 369.716 380.284 455.358> 714 86<137.642 212.358 480.642 555.358>
VStem: 47 85<205.642 280.358> 132 86<719.642 794.358> 147 85<291.642 326 331 365.42> 161 86<376.642 451.358> 175 86<462.642 537.358> 190 85<548.642 623.358> 204 86<634.58 669 674 708.358> 232 86<291.58 326 331 365.42> 290 85<634.58 669 674 708.42> 318 86<291.642 326 331 365.42> 332 86<376.642 451.358> 347 85<462.642 537.358> 361 86<548.642 623.358> 375 86<634.58 669 674 708.358> 390 85<205.642 280.358> 475 86<719.642 794.358>
LayerCount: 2
Back
Fore
SplineSet
475 243 m 0x800004
 475 219 456 200 432 200 c 0x800020
 408 200 390 219 390 243 c 0x800004
 390 267 408 286 432 286 c 0x800020
 456 286 475 267 475 243 c 0x800004
132 243 m 0x81
 132 219 114 200 90 200 c 0
 66 200 47 219 47 243 c 0
 47 267 66 286 90 286 c 0
 114 286 132 267 132 243 c 0x81
404 329 m 0x400080
 404 305 385 286 361 286 c 0
 338 286 319 303 318 326 c 1x400210
 317 303 298 286 275 286 c 0x4008
 252 286 233 303 232 326 c 1x4040
 231 303 213 286 190 286 c 0x4008
 166 286 147 305 147 329 c 0x4040
 147 353 166 371 190 371 c 0x4008
 213 371 231 354 232 331 c 1x4040
 233 354 252 371 275 371 c 0x4008
 298 371 317 354 318 331 c 1
 319 354 338 371 361 371 c 0x400210
 385 371 404 353 404 329 c 0x400080
418 414 m 0x200040
 418 390 399 371 375 371 c 0x400008
 351 371 332 390 332 414 c 0x400040
 332 438 351 457 375 457 c 0x200008
 399 457 418 438 418 414 c 0x200040
247 414 m 0x2020
 247 390 228 371 204 371 c 0x4004
 180 371 161 390 161 414 c 0x4020
 161 438 180 457 204 457 c 0x2004
 228 457 247 438 247 414 c 0x2020
432 500 m 0x100020
 432 476 414 457 390 457 c 0x200004
 366 457 347 476 347 500 c 0x200020
 347 524 366 543 390 543 c 0x100004
 414 543 432 524 432 500 c 0x100020
261 500 m 0x1010
 261 476 242 457 218 457 c 0x2080
 194 457 175 476 175 500 c 0x2010
 175 524 194 543 218 543 c 0x1080
 242 543 261 524 261 500 c 0x1010
447 586 m 0x080010
 447 562 428 543 404 543 c 0x100080
 380 543 361 562 361 586 c 0x100010
 361 610 380 629 404 629 c 0x080080
 428 629 447 610 447 586 c 0x080010
275 586 m 0x0808
 275 562 256 543 232 543 c 0x1002
 208 543 190 562 190 586 c 0x1008
 190 610 208 629 232 629 c 0x0802
 256 629 275 610 275 586 c 0x0808
461 671 m 0x040008
 461 647 442 629 418 629 c 0x080040
 395 629 376 646 375 669 c 1x0801
 374 646 355 629 332 629 c 0
 309 629 291 646 290 669 c 1x040440
 289 646 270 629 247 629 c 0x0820
 223 629 204 647 204 671 c 0x0804
 204 695 223 714 247 714 c 0x0420
 270 714 289 697 290 674 c 1
 291 697 309 714 332 714 c 0x040440
 355 714 374 697 375 674 c 1x0401
 376 697 395 714 418 714 c 0x040040
 442 714 461 695 461 671 c 0x040008
561 757 m 0x020002
 561 733 542 714 518 714 c 0
 494 714 475 733 475 757 c 0
 475 781 494 800 518 800 c 0
 542 800 561 781 561 757 c 0x020002
218 757 m 0x0280
 218 733 199 714 175 714 c 0x0210
 151 714 132 733 132 757 c 0x0280
 132 781 151 800 175 800 c 0x0210
 199 800 218 781 218 757 c 0x0280
EndSplineSet
EndChar

StartChar: exclam
Encoding: 33 33 4
Width: 522
VWidth: 0
UnlinkRmOvrlpSave: 1
Flags: W
HStem: 200 86<52.6424 127.358> 371 86<80.6424 155.358> 457 86<95.6424 169.61> 543 86<109.642 184.358> 629 85<123.642 198.358> 714 86<138.39 212.358>
VStem: 47 86<205.642 280.358> 75 86<376.642 451.358> 90 85<462.642 537.358> 104 86<548.642 623.358> 118 86<634.39 708.358> 133 85<719.642 794.358>
LayerCount: 2
Back
Fore
SplineSet
133 243 m 0x82
 133 219 114 200 90 200 c 0x8080
 66 200 47 219 47 243 c 0x82
 47 267 66 286 90 286 c 0x8080
 114 286 133 267 133 243 c 0x82
161 414 m 0xc1
 161 390 142 371 118 371 c 0xc020
 94 371 75 390 75 414 c 0xc1
 75 438 94 457 118 457 c 0xc020
 142 457 161 438 161 414 c 0xc1
175 500 m 0xa080
 175 476 157 457 133 457 c 0xc010
 109 457 90 476 90 500 c 0xc080
 90 524 109 543 133 543 c 0xa010
 157 543 175 524 175 500 c 0xa080
190 586 m 0x9040
 190 562 171 543 147 543 c 0xa040
 123 543 104 562 104 586 c 0
 104 610 123 629 147 629 c 0
 171 629 190 610 190 586 c 0x9040
204 671 m 0x8820
 204 647 185 629 161 629 c 0x91
 137 629 118 647 118 671 c 0x9020
 118 695 137 714 161 714 c 0x89
 185 714 204 695 204 671 c 0x8820
218 757 m 0x8410
 218 733 199 714 175 714 c 0x8880
 151 714 133 733 133 757 c 0x8810
 133 781 151 800 175 800 c 0x8480
 199 800 218 781 218 757 c 0x8410
EndSplineSet
EndChar

StartChar: numbersign
Encoding: 35 35 6
Width: 522
VWidth: 0
UnlinkRmOvrlpSave: 1
Flags: W
HStem: 200 86<109.642 184.358 281.642 356.358> 286 85<124.642 198.61 295.642 370.358> 371 86<52.6424 127.216 138.784 213.358 309.642 384.216 395.784 470.358> 543 86<81.6424 156.216 167.552 241.358 338.642 413.216 424.784 498.61> 629 85<181.642 256.358 352.642 427.358> 714 86<195.642 270.358 367.39 441.358>
VStem: 47 86<376.853 412 416 451.147> 76 86<548.853 584 588 623.147> 104 86<205.642 280.358> 119 85<291.642 365.61> 133 86<376.853 412 416 451.147> 162 85<548.642 584 588 623.358> 176 86<634.39 708.358> 190 86<719.642 794.358> 276 86<205.642 280.358> 290 86<291.642 365.61> 304 86<376.853 412 416 451.147> 333 86<548.853 584 588 623.147> 347 86<634.39 708.358> 362 85<719.642 794.358> 390 86<376.853 412 416 451.147> 419 85<548.853 584 588 623.147>
LayerCount: 2
Back
Fore
SplineSet
362 243 m 0x8002
 362 219 343 200 319 200 c 0
 295 200 276 219 276 243 c 0
 276 267 295 286 319 286 c 0
 343 286 362 267 362 243 c 0x8002
190 243 m 0x8080
 190 219 171 200 147 200 c 0
 123 200 104 219 104 243 c 0
 104 267 123 286 147 286 c 0
 171 286 190 267 190 243 c 0x8080
376 329 m 0x4001
 376 305 357 286 333 286 c 0x800040
 309 286 290 305 290 329 c 0x8001
 290 353 309 371 333 371 c 0x400040
 357 371 376 353 376 329 c 0x4001
204 329 m 0x4040
 204 305 186 286 162 286 c 0x8010
 138 286 119 305 119 329 c 0x8040
 119 353 138 371 162 371 c 0x4010
 186 371 204 353 204 329 c 0x4040
476 414 m 0x200008
 476 390 457 371 433 371 c 0x200020
 410 371 391 389 390 412 c 1x200080
 389 389 370 371 347 371 c 0x400020
 323 371 304 390 304 414 c 0x400080
 304 438 323 457 347 457 c 0x200020
 370 457 389 439 390 416 c 1x200080
 391 439 410 457 433 457 c 0x200020
 457 457 476 438 476 414 c 0x200008
219 414 m 0x2020
 219 390 200 371 176 371 c 0x4008
 153 371 134 389 133 412 c 1
 132 389 113 371 90 371 c 1
 66 371 47 390 47 414 c 0
 47 438 66 457 90 457 c 0
 113 457 132 439 133 416 c 1
 134 439 153 457 176 457 c 1x2208
 200 457 219 438 219 414 c 0x2020
504 586 m 0x100004
 504 562 486 543 462 543 c 0
 439 543 420 561 419 584 c 1x100040
 418 561 399 543 376 543 c 0x1001
 352 543 333 562 333 586 c 0x100040
 333 610 352 629 376 629 c 0x1001
 399 629 418 611 419 588 c 1x100040
 420 611 439 629 462 629 c 0
 486 629 504 610 504 586 c 0x100004
247 586 m 0x1010
 247 562 228 543 204 543 c 0x1040
 181 543 163 561 162 584 c 1x11
 161 561 142 543 119 543 c 1x1040
 95 543 76 562 76 586 c 0x11
 76 610 95 629 119 629 c 0x1040
 142 629 161 611 162 588 c 1x11
 163 611 181 629 204 629 c 1x1040
 228 629 247 610 247 586 c 0x1010
433 671 m 0x080020
 433 647 414 629 390 629 c 0x100008
 366 629 347 647 347 671 c 0x100020
 347 695 366 714 390 714 c 0x080008
 414 714 433 695 433 671 c 0x080020
262 671 m 0x0808
 262 647 243 629 219 629 c 0x1020
 195 629 176 647 176 671 c 0x1008
 176 695 195 714 219 714 c 0x0820
 243 714 262 695 262 671 c 0x0808
447 757 m 0x040010
 447 733 428 714 404 714 c 0x080010
 380 714 362 733 362 757 c 0
 362 781 380 800 404 800 c 0
 428 800 447 781 447 757 c 0x040010
276 757 m 0x0404
 276 733 257 714 233 714 c 0x0804
 209 714 190 733 190 757 c 0
 190 781 209 800 233 800 c 0
 257 800 276 781 276 757 c 0x0404
EndSplineSet
EndChar

StartChar: quotedbl
Encoding: 34 34 7
Width: 522
VWidth: 0
UnlinkRmOvrlpSave: 1
Flags: W
HStem: 543 86<52.39 126.358 223.642 298.358> 629 85<66.6424 141.358 237.642 312.358> 714 86<80.6424 155.358 252.39 326.358>
VStem: 47 85<548.642 623.358> 61 86<634.39 708.358> 75 86<719.642 794.358> 218 86<548.642 623.358> 232 86<634.39 708.358> 247 85<719.642 794.358>
LayerCount: 2
Back
Fore
SplineSet
304 586 m 0x82
 304 562 285 543 261 543 c 0
 237 543 218 562 218 586 c 0
 218 610 237 629 261 629 c 0
 285 629 304 610 304 586 c 0x82
132 586 m 0x90
 132 562 113 543 89 543 c 0
 65 543 47 562 47 586 c 0
 47 610 65 629 89 629 c 0
 113 629 132 610 132 586 c 0x90
318 671 m 0x41
 318 647 299 629 275 629 c 0x81
 251 629 232 647 232 671 c 0
 232 695 251 714 275 714 c 0
 299 714 318 695 318 671 c 0x41
147 671 m 0x48
 147 647 128 629 104 629 c 0x88
 80 629 61 647 61 671 c 0
 61 695 80 714 104 714 c 0
 128 714 147 695 147 671 c 0x48
332 757 m 0x2080
 332 733 313 714 289 714 c 0x4080
 265 714 247 733 247 757 c 0
 247 781 265 800 289 800 c 0
 313 800 332 781 332 757 c 0x2080
161 757 m 0x24
 161 733 142 714 118 714 c 0x44
 94 714 75 733 75 757 c 0
 75 781 94 800 118 800 c 0
 142 800 161 781 161 757 c 0x24
EndSplineSet
EndChar

StartChar: percent
Encoding: 37 37 8
Width: 522
VWidth: 0
UnlinkRmOvrlpSave: 1
Flags: W
HStem: 200 86<52.6424 126.61 309.642 384.216 395.552 469.358> 286 85<66.6424 141.358 323.642 398.716 409.284 484.358> 371 86<166.642 241.358> 457 86<266.642 341.358> 543 86<366.642 441.358> 629 85<123.642 198.716 209.284 284.358 466.642 541.358> 714 86<137.642 212.216 223.784 298.358 480.642 555.358>
VStem: 47 85<205.642 280.358> 61 86<291.642 365.61> 118 86<634.58 669 674 708.358> 132 86<719.853 755 759 794.147> 161 86<376.642 451.358> 204 86<634.58 669 674 708.358> 218 86<719.853 755 759 794.147> 261 86<462.642 537.358> 304 86<205.853 241 245 280.147> 318 86<291.642 326 331 365.42> 361 86<548.642 623.358> 390 85<205.642 241 245 280.358> 404 86<291.642 326 331 365.42> 461 86<634.39 708.358> 475 86<719.642 794.358>
LayerCount: 2
Back
Fore
SplineSet
475 243 m 0x800104
 475 219 456 200 432 200 c 0
 409 200 391 218 390 241 c 1x800104
 389 218 370 200 347 200 c 0x8002
 323 200 304 219 304 243 c 0x8001
 304 267 323 286 347 286 c 0x8002
 370 286 389 268 390 245 c 1
 391 268 409 286 432 286 c 0
 456 286 475 267 475 243 c 0x800104
132 243 m 0x81
 132 219 114 200 90 200 c 0
 66 200 47 219 47 243 c 0
 47 267 66 286 90 286 c 0
 114 286 132 267 132 243 c 0x81
490 329 m 0x400010
 490 305 471 286 447 286 c 0x800040
 424 286 405 303 404 326 c 1x800080
 403 303 384 286 361 286 c 0x800040
 337 286 318 305 318 329 c 0x800080
 318 353 337 371 361 371 c 0x400040
 384 371 403 354 404 331 c 1x400080
 405 354 424 371 447 371 c 0x400040
 471 371 490 353 490 329 c 0x400010
147 329 m 0x4080
 147 305 128 286 104 286 c 0x8080
 80 286 61 305 61 329 c 0
 61 353 80 371 104 371 c 0
 128 371 147 353 147 329 c 0x4080
247 414 m 0x2010
 247 390 228 371 204 371 c 0x2008
 180 371 161 390 161 414 c 0x2010
 161 438 180 457 204 457 c 0x2008
 228 457 247 438 247 414 c 0x2010
347 500 m 0x1002
 347 476 328 457 304 457 c 0x1001
 280 457 261 476 261 500 c 0x1002
 261 524 280 543 304 543 c 0x1001
 328 543 347 524 347 500 c 0x1002
447 586 m 0x080040
 447 562 428 543 404 543 c 0x080010
 380 543 361 562 361 586 c 0x080040
 361 610 380 629 404 629 c 0x080010
 428 629 447 610 447 586 c 0x080040
547 671 m 0x040008
 547 647 528 629 504 629 c 0
 480 629 461 647 461 671 c 0
 461 695 480 714 504 714 c 0
 528 714 547 695 547 671 c 0x040008
290 671 m 0x0408
 290 647 271 629 247 629 c 0x0410
 224 629 205 646 204 669 c 1x0440
 203 646 184 629 161 629 c 1x0410
 137 629 118 647 118 671 c 0x0440
 118 695 137 714 161 714 c 0x0410
 184 714 203 697 204 674 c 1x0440
 205 697 224 714 247 714 c 1x0410
 271 714 290 695 290 671 c 0x0408
561 757 m 0x020004
 561 733 542 714 518 714 c 0x040004
 494 714 475 733 475 757 c 0
 475 781 494 800 518 800 c 0
 542 800 561 781 561 757 c 0x020004
304 757 m 0x0201
 304 733 285 714 261 714 c 0
 238 714 219 732 218 755 c 1
 217 732 198 714 175 714 c 1x0422
 151 714 132 733 132 757 c 0
 132 781 151 800 175 800 c 0
 198 800 217 782 218 759 c 1
 219 782 238 800 261 800 c 1x0222
 285 800 304 781 304 757 c 0x0201
EndSplineSet
EndChar

StartChar: dollar
Encoding: 36 36 9
Width: 522
VWidth: 0
UnlinkRmOvrlpSave: 1
Flags: W
HStem: 200 86<209.642 284.358> 286 85<52.6424 127.716 138.284 212.928 223.284 298.716 309.284 384.358> 371 86<409.642 484.358> 457 86<166.642 241.216 252.784 327.216 338.784 412.61> 543 86<95.6424 170.358> 629 85<195.642 270.716 281.072 355.716 366.284 441.716 452.284 527.358> 714 86<295.642 370.358>
VStem: 47 86<291.642 326 331 365.42> 90 86<548.642 623.358> 133 85<291.58 326 331 365.42> 161 86<462.853 498 502 537.147> 190 86<634.58 669 674 708.358> 204 86<205.642 280.358> 218 86<291.58 326 331 365.42> 247 86<462.853 498 502 537.147> 276 85<634.58 669 674 708.42> 290 86<719.642 794.358> 304 86<291.642 326 331 365.42> 333 85<462.853 498 502 537.147> 361 86<634.58 669 674 708.42> 404 86<376.642 451.358> 447 86<634.58 669 674 708.358>
LayerCount: 2
Back
Fore
SplineSet
290 243 m 0x8008
 290 219 271 200 247 200 c 0x8002
 223 200 204 219 204 243 c 0x8008
 204 267 223 286 247 286 c 0x8002
 271 286 290 267 290 243 c 0x8008
390 329 m 0x400040
 390 305 371 286 347 286 c 0
 324 286 305 303 304 326 c 1x4004
 303 303 284 286 261 286 c 0
 238 286 219 303 218 326 c 1x8040
 217 303 199 286 176 286 c 0x4080
 153 286 134 303 133 326 c 1x41
 132 303 113 286 90 286 c 0x4080
 66 286 47 305 47 329 c 0x41
 47 353 66 371 90 371 c 0x4080
 113 371 132 354 133 331 c 1x41
 134 354 153 371 176 371 c 0x4080
 199 371 217 354 218 331 c 1x4040
 219 354 238 371 261 371 c 0
 284 371 303 354 304 331 c 1x4004
 305 354 324 371 347 371 c 0
 371 371 390 353 390 329 c 0x400040
490 414 m 0x200008
 490 390 471 371 447 371 c 0x200004
 423 371 404 390 404 414 c 0x200008
 404 438 423 457 447 457 c 0x200004
 471 457 490 438 490 414 c 0x200008
418 500 m 0x100020
 418 476 400 457 376 457 c 0x100080
 353 457 334 475 333 498 c 1x1002
 332 475 313 457 290 457 c 0
 267 457 248 475 247 498 c 1x102080
 246 475 227 457 204 457 c 0x1008
 180 457 161 476 161 500 c 0x1020
 161 524 180 543 204 543 c 0x1008
 227 543 246 525 247 502 c 1
 248 525 267 543 290 543 c 0x102080
 313 543 332 525 333 502 c 1x1002
 334 525 353 543 376 543 c 0x100080
 400 543 418 524 418 500 c 0x100020
176 586 m 0x0880
 176 562 157 543 133 543 c 0x0840
 109 543 90 562 90 586 c 0x0880
 90 610 109 629 133 629 c 0x0840
 157 629 176 610 176 586 c 0x0880
533 671 m 0x040004
 533 647 514 629 490 629 c 0x040008
 467 629 448 646 447 669 c 1x040010
 446 646 427 629 404 629 c 0
 381 629 362 646 361 669 c 1x040108
 360 646 341 629 318 629 c 0
 295 629 277 646 276 669 c 1
 275 646 256 629 233 629 c 0
 209 629 190 647 190 671 c 0
 190 695 209 714 233 714 c 0
 256 714 275 697 276 674 c 1x0410
 277 697 295 714 318 714 c 0
 341 714 360 697 361 674 c 1
 362 697 381 714 404 714 c 0x040108
 427 714 446 697 447 674 c 1x040010
 448 697 467 714 490 714 c 0x040008
 514 714 533 695 533 671 c 0x040004
376 757 m 0x020080
 376 733 357 714 333 714 c 0x040020
 309 714 290 733 290 757 c 0x040080
 290 781 309 800 333 800 c 0x020020
 357 800 376 781 376 757 c 0x020080
EndSplineSet
EndChar

StartChar: quotesingle
Encoding: 39 39 10
Width: 522
VWidth: 0
UnlinkRmOvrlpSave: 1
Flags: W
HStem: 543 86<52.39 126.216 137.784 212.358> 629 85<66.6424 141.716 152.072 226.358> 714 86<80.6424 155.216 166.784 241.358>
VStem: 47 85<548.853 584 588 623.147> 61 86<634.58 669 674 708.358> 75 86<719.853 755 759 794.147> 132 86<548.853 584 588 623.147> 147 85<634.58 669 674 708.358> 161 86<719.853 755 759 794.147>
LayerCount: 2
Back
Fore
SplineSet
218 586 m 0x82
 218 562 199 543 175 543 c 0
 152 543 133 561 132 584 c 1
 131 561 112 543 89 543 c 0
 65 543 47 562 47 586 c 0
 47 610 65 629 89 629 c 0
 112 629 131 611 132 588 c 1x90
 133 611 152 629 175 629 c 0
 199 629 218 610 218 586 c 0x82
232 671 m 0x41
 232 647 213 629 189 629 c 0
 166 629 148 646 147 669 c 1
 146 646 127 629 104 629 c 0x88
 80 629 61 647 61 671 c 0
 61 695 80 714 104 714 c 0
 127 714 146 697 147 674 c 1x48
 148 697 166 714 189 714 c 0
 213 714 232 695 232 671 c 0x41
247 757 m 0x2080
 247 733 228 714 204 714 c 0
 181 714 162 732 161 755 c 1
 160 732 141 714 118 714 c 0x44
 94 714 75 733 75 757 c 0
 75 781 94 800 118 800 c 0
 141 800 160 782 161 759 c 1x24
 162 782 181 800 204 800 c 0
 228 800 247 781 247 757 c 0x2080
EndSplineSet
EndChar

StartChar: ampersand
Encoding: 38 38 11
Width: 522
VWidth: 0
UnlinkRmOvrlpSave: 1
Flags: W
HStem: 200 86<123.642 198.216 209.784 284.358 381.39 455.358> 286 85<52.6424 127.358 309.642 384.358> 371 86<66.6424 141.358 238.642 312.61 409.642 484.358> 457 86<166.642 241.358> 543 86<95.6424 170.358 266.642 341.358> 629 85<109.642 184.358 281.39 355.358> 714 86<209.642 284.358>
VStem: 47 86<291.642 365.61> 61 86<376.642 451.358> 90 86<548.642 623.358> 104 86<634.39 708.358> 118 86<205.853 241 245 280.147> 161 86<462.642 537.358> 204 86<205.853 241 245 280.147 719.642 794.358> 233 85<376.642 451.358> 261 86<548.642 623.358> 276 85<634.39 708.358> 304 86<291.642 365.61> 376 85<205.642 280.358> 404 86<376.642 451.358>
LayerCount: 2
Back
Fore
SplineSet
461 243 m 0x800020
 461 219 442 200 418 200 c 0
 394 200 376 219 376 243 c 0
 376 267 394 286 418 286 c 0
 442 286 461 267 461 243 c 0x800020
290 243 m 0x8004
 290 219 271 200 247 200 c 0x8008
 224 200 205 218 204 241 c 1x8010
 203 218 184 200 161 200 c 0x8008
 137 200 118 219 118 243 c 0x8010
 118 267 137 286 161 286 c 0x8008
 184 286 203 268 204 245 c 1x8010
 205 268 224 286 247 286 c 0x8008
 271 286 290 267 290 243 c 0x8004
390 329 m 0x400040
 390 305 371 286 347 286 c 0x4001
 323 286 304 305 304 329 c 0x400040
 304 353 323 371 347 371 c 0x4001
 371 371 390 353 390 329 c 0x400040
133 329 m 0x41
 133 305 114 286 90 286 c 0x4040
 66 286 47 305 47 329 c 0x41
 47 353 66 371 90 371 c 0x4040
 114 371 133 353 133 329 c 0x41
490 414 m 0x200010
 490 390 471 371 447 371 c 0
 423 371 404 390 404 414 c 0
 404 438 423 457 447 457 c 0
 471 457 490 438 490 414 c 0x200010
318 414 m 0x2002
 318 390 300 371 276 371 c 0x200080
 252 371 233 390 233 414 c 0x2002
 233 438 252 457 276 457 c 0x200080
 300 457 318 438 318 414 c 0x2002
147 414 m 0x2080
 147 390 128 371 104 371 c 0x4020
 80 371 61 390 61 414 c 0x4080
 61 438 80 457 104 457 c 0x2020
 128 457 147 438 147 414 c 0x2080
247 500 m 0x1008
 247 476 228 457 204 457 c 0x1004
 180 457 161 476 161 500 c 0x1008
 161 524 180 543 204 543 c 0x1004
 228 543 247 524 247 500 c 0x1008
347 586 m 0x0801
 347 562 328 543 304 543 c 0x080040
 280 543 261 562 261 586 c 0x0801
 261 610 280 629 304 629 c 0x080040
 328 629 347 610 347 586 c 0x0801
176 586 m 0x0840
 176 562 157 543 133 543 c 0x09
 109 543 90 562 90 586 c 0x0840
 90 610 109 629 133 629 c 0x09
 157 629 176 610 176 586 c 0x0840
361 671 m 0x040080
 361 647 342 629 318 629 c 0x0802
 294 629 276 647 276 671 c 0x080080
 276 695 294 714 318 714 c 0x0402
 342 714 361 695 361 671 c 0x040080
190 671 m 0x0420
 190 647 171 629 147 629 c 0x0880
 123 629 104 647 104 671 c 0x0820
 104 695 123 714 147 714 c 0x0480
 171 714 190 695 190 671 c 0x0420
290 757 m 0x0204
 290 733 271 714 247 714 c 0x0208
 223 714 204 733 204 757 c 0x0204
 204 781 223 800 247 800 c 0x0208
 271 800 290 781 290 757 c 0x0204
EndSplineSet
EndChar

StartChar: parenright
Encoding: 41 41 12
Width: 522
VWidth: 0
UnlinkRmOvrlpSave: 1
Flags: W
HStem: 200 86<52.6424 127.358> 286 85<152.642 227.358> 371 86<252.642 327.358> 457 86<267.642 341.61> 543 86<281.642 356.358> 629 85<210.39 284.358> 714 86<138.642 213.358>
VStem: 47 86<205.642 280.358> 133 86<719.642 794.358> 147 86<291.642 365.61> 205 85<634.39 708.358> 247 86<376.642 451.358> 262 85<462.642 537.358> 276 86<548.642 623.358>
LayerCount: 2
Back
Fore
SplineSet
133 243 m 0x81
 133 219 114 200 90 200 c 0
 66 200 47 219 47 243 c 0
 47 267 66 286 90 286 c 0
 114 286 133 267 133 243 c 0x81
233 329 m 0x4040
 233 305 214 286 190 286 c 0
 166 286 147 305 147 329 c 0
 147 353 166 371 190 371 c 0
 214 371 233 353 233 329 c 0x4040
333 414 m 0x2010
 333 390 314 371 290 371 c 0x2020
 266 371 247 390 247 414 c 0x2010
 247 438 266 457 290 457 c 0x2020
 314 457 333 438 333 414 c 0x2010
347 500 m 0x1008
 347 476 329 457 305 457 c 0x2008
 281 457 262 476 262 500 c 0
 262 524 281 543 305 543 c 0
 329 543 347 524 347 500 c 0x1008
362 586 m 0x0804
 362 562 343 543 319 543 c 0x1004
 295 543 276 562 276 586 c 0
 276 610 295 629 319 629 c 0
 343 629 362 610 362 586 c 0x0804
290 671 m 0x0420
 290 647 271 629 247 629 c 0x0410
 223 629 205 647 205 671 c 0x0420
 205 695 223 714 247 714 c 0x0410
 271 714 290 695 290 671 c 0x0420
219 757 m 0x0280
 219 733 200 714 176 714 c 0
 152 714 133 733 133 757 c 0
 133 781 152 800 176 800 c 0
 200 800 219 781 219 757 c 0x0280
EndSplineSet
EndChar

StartChar: parenleft
Encoding: 40 40 13
Width: 522
VWidth: 0
UnlinkRmOvrlpSave: 1
Flags: W
HStem: 200 86<195.642 270.358> 286 85<123.642 198.358> 371 86<52.6424 127.358> 457 86<66.6424 141.358> 543 86<81.39 155.358> 629 85<181.39 255.358> 714 86<281.39 355.358>
VStem: 47 86<376.642 451.358> 61 86<462.642 537.358> 76 85<548.642 623.358> 118 86<291.642 365.61> 176 85<634.39 708.358> 190 86<205.642 280.358> 276 85<719.642 794.358>
LayerCount: 2
Back
Fore
SplineSet
276 243 m 0x8008
 276 219 257 200 233 200 c 0
 209 200 190 219 190 243 c 0
 190 267 209 286 233 286 c 0
 257 286 276 267 276 243 c 0x8008
204 329 m 0x4020
 204 305 185 286 161 286 c 0x4040
 137 286 118 305 118 329 c 0x4020
 118 353 137 371 161 371 c 0x4040
 185 371 204 353 204 329 c 0x4020
133 414 m 0x21
 133 390 114 371 90 371 c 0
 66 371 47 390 47 414 c 0
 47 438 66 457 90 457 c 0
 114 457 133 438 133 414 c 0x21
147 500 m 0x1080
 147 476 128 457 104 457 c 0x2080
 80 457 61 476 61 500 c 0
 61 524 80 543 104 543 c 0
 128 543 147 524 147 500 c 0x1080
161 586 m 0x0840
 161 562 142 543 118 543 c 0x1020
 94 543 76 562 76 586 c 0x1040
 76 610 94 629 118 629 c 0x0820
 142 629 161 610 161 586 c 0x0840
261 671 m 0x0410
 261 647 242 629 218 629 c 0
 194 629 176 647 176 671 c 0
 176 695 194 714 218 714 c 0
 242 714 261 695 261 671 c 0x0410
361 757 m 0x0204
 361 733 342 714 318 714 c 0
 294 714 276 733 276 757 c 0
 276 781 294 800 318 800 c 0
 342 800 361 781 361 757 c 0x0204
EndSplineSet
EndChar

StartChar: plus
Encoding: 43 43 14
Width: 522
VWidth: 0
UnlinkRmOvrlpSave: 1
Flags: W
HStem: 286 85<194.642 269.358> 371 86<209.642 283.61> 457 86<52.39 126.216 137.784 212.216 223.784 298.216 309.784 383.448 394.784 469.358> 543 86<237.642 312.358> 629 85<252.39 326.358>
VStem: 47 85<462.853 498 502 537.147> 132 86<462.853 498 502 537.147> 189 86<291.642 365.61> 204 85<376.642 451.358> 218 86<462.853 498 502 537.147> 232 86<548.642 623.358> 247 85<634.39 708.358> 304 85<462.853 498 502 537.147> 389 86<462.853 498 502 537.147>
LayerCount: 2
Back
Fore
SplineSet
275 329 m 0x81
 275 305 256 286 232 286 c 0x8020
 208 286 189 305 189 329 c 0x81
 189 353 208 371 232 371 c 0x8020
 256 371 275 353 275 329 c 0x81
289 414 m 0x4080
 289 390 271 371 247 371 c 0x8010
 223 371 204 390 204 414 c 0x8080
 204 438 223 457 247 457 c 0x4010
 271 457 289 438 289 414 c 0x4080
475 500 m 0x2004
 475 476 456 457 432 457 c 0
 409 457 390 475 389 498 c 1x2008
 388 475 370 457 347 457 c 0
 324 457 305 475 304 498 c 1x2040
 303 475 284 457 261 457 c 0
 238 457 219 475 218 498 c 1x42
 217 475 198 457 175 457 c 0
 152 457 133 475 132 498 c 1
 131 475 112 457 89 457 c 1
 65 457 47 476 47 500 c 0
 47 524 65 543 89 543 c 0
 112 543 131 525 132 502 c 1x24
 133 525 152 543 175 543 c 1
 198 543 217 525 218 502 c 1x22
 219 525 238 543 261 543 c 0
 284 543 303 525 304 502 c 1x2040
 305 525 324 543 347 543 c 0
 370 543 388 525 389 502 c 1x2008
 390 525 409 543 432 543 c 0
 456 543 475 524 475 500 c 0x2004
318 586 m 0x1020
 318 562 299 543 275 543 c 0x21
 251 543 232 562 232 586 c 0x2020
 232 610 251 629 275 629 c 0x11
 299 629 318 610 318 586 c 0x1020
332 671 m 0x0810
 332 647 313 629 289 629 c 0x1080
 265 629 247 647 247 671 c 0x1010
 247 695 265 714 289 714 c 0x0880
 313 714 332 695 332 671 c 0x0810
EndSplineSet
EndChar

StartChar: asterisk
Encoding: 42 42 15
Width: 522
VWidth: 0
UnlinkRmOvrlpSave: 1
Flags: W
HStem: 371 86<52.6424 127.358 224.642 298.61 395.642 470.358> 457 86<152.642 227.216 238.784 313.216 324.784 398.61> 543 86<81.6424 156.216 167.552 241.216 252.784 327.216 338.784 413.216 424.784 498.61> 629 85<181.642 256.716 267.072 341.716 352.284 427.358> 714 86<109.642 184.358 281.642 356.358 452.642 527.358>
VStem: 47 86<376.642 451.358> 76 86<548.853 584 588 623.147> 104 86<719.642 794.358> 147 86<462.853 498 502 537.147> 162 85<548.853 584 588 623.147> 176 86<634.58 669 674 708.358> 219 85<376.642 451.358> 233 86<462.853 498 502 537.147> 247 86<548.853 584 588 623.147> 262 85<634.58 669 674 708.42> 276 86<719.642 794.358> 319 85<462.853 498 502 537.147> 333 86<548.853 584 588 623.147> 347 86<634.58 669 674 708.358> 390 86<376.642 451.358> 419 85<548.853 584 588 623.147> 447 86<719.642 794.358>
LayerCount: 2
Back
Fore
SplineSet
476 414 m 0x800010
 476 390 457 371 433 371 c 0x800020
 409 371 390 390 390 414 c 0x800010
 390 438 409 457 433 457 c 0x800020
 457 457 476 438 476 414 c 0x800010
304 414 m 0x8010
 304 390 286 371 262 371 c 0x8002
 238 371 219 390 219 414 c 0x8010
 219 438 238 457 262 457 c 0x8002
 286 457 304 438 304 414 c 0x8010
133 414 m 0x84
 133 390 114 371 90 371 c 0
 66 371 47 390 47 414 c 0
 47 438 66 457 90 457 c 0
 114 457 133 438 133 414 c 0x84
404 500 m 0x400080
 404 476 386 457 362 457 c 0x4001
 339 457 320 475 319 498 c 1x4008
 318 475 299 457 276 457 c 0
 253 457 234 475 233 498 c 1x8081
 232 475 213 457 190 457 c 0x41
 166 457 147 476 147 500 c 0x4080
 147 524 166 543 190 543 c 0x41
 213 543 232 525 233 502 c 1
 234 525 253 543 276 543 c 0x4081
 299 543 318 525 319 502 c 1x4008
 320 525 339 543 362 543 c 0x4001
 386 543 404 524 404 500 c 0x400080
504 586 m 0x200008
 504 562 486 543 462 543 c 0
 439 543 420 561 419 584 c 1x200040
 418 561 399 543 376 543 c 0
 353 543 334 561 333 584 c 1x4004
 332 561 313 543 290 543 c 0
 267 543 248 561 247 584 c 1
 246 561 227 543 204 543 c 0x4040
 181 543 163 561 162 584 c 1
 161 561 142 543 119 543 c 1
 95 543 76 562 76 586 c 0
 76 610 95 629 119 629 c 0
 142 629 161 611 162 588 c 1x22
 163 611 181 629 204 629 c 1
 227 629 246 611 247 588 c 1x2040
 248 611 267 629 290 629 c 0
 313 629 332 611 333 588 c 1x2004
 334 611 353 629 376 629 c 0
 399 629 418 611 419 588 c 1x200040
 420 611 439 629 462 629 c 0
 486 629 504 610 504 586 c 0x200008
433 671 m 0x100020
 433 647 414 629 390 629 c 0
 367 629 348 646 347 669 c 1x200210
 346 646 327 629 304 629 c 0x2010
 281 629 263 646 262 669 c 1x2020
 261 646 242 629 219 629 c 0x2010
 195 629 176 647 176 671 c 0x2020
 176 695 195 714 219 714 c 0x1010
 242 714 261 697 262 674 c 1x1020
 263 697 281 714 304 714 c 0x1010
 327 714 346 697 347 674 c 1
 348 697 367 714 390 714 c 0x100210
 414 714 433 695 433 671 c 0x100020
533 757 m 0x080004
 533 733 514 714 490 714 c 0
 466 714 447 733 447 757 c 0
 447 781 466 800 490 800 c 0
 514 800 533 781 533 757 c 0x080004
362 757 m 0x0801
 362 733 343 714 319 714 c 0x100080
 295 714 276 733 276 757 c 0x1001
 276 781 295 800 319 800 c 0x080080
 343 800 362 781 362 757 c 0x0801
190 757 m 0x09
 190 733 171 714 147 714 c 0x0880
 123 714 104 733 104 757 c 0x09
 104 781 123 800 147 800 c 0x0880
 171 800 190 781 190 757 c 0x09
EndSplineSet
EndChar

StartChar: hyphen
Encoding: 45 45 16
Width: 522
VWidth: 0
UnlinkRmOvrlpSave: 1
Flags: W
HStem: 371 86<52.6424 127.216 138.784 213.216 224.784 298.448 309.784 384.216 395.784 470.358>
VStem: 47 86<376.853 412 416 451.147> 133 86<376.853 412 416 451.147> 219 85<376.853 412 416 451.147> 304 86<376.853 412 416 451.147> 390 86<376.853 412 416 451.147>
LayerCount: 2
Back
Fore
SplineSet
476 414 m 0x84
 476 390 457 371 433 371 c 0
 410 371 391 389 390 412 c 1x88
 389 389 370 371 347 371 c 0
 324 371 305 389 304 412 c 1x90
 303 389 285 371 262 371 c 0
 239 371 220 389 219 412 c 1xa0
 218 389 199 371 176 371 c 0
 153 371 134 389 133 412 c 1
 132 389 113 371 90 371 c 1
 66 371 47 390 47 414 c 0
 47 438 66 457 90 457 c 0
 113 457 132 439 133 416 c 1xc0
 134 439 153 457 176 457 c 1
 199 457 218 439 219 416 c 1xa0
 220 439 239 457 262 457 c 0
 285 457 303 439 304 416 c 1x90
 305 439 324 457 347 457 c 0
 370 457 389 439 390 416 c 1x88
 391 439 410 457 433 457 c 0
 457 457 476 438 476 414 c 0x84
EndSplineSet
EndChar

StartChar: comma
Encoding: 44 44 17
Width: 522
VWidth: 0
UnlinkRmOvrlpSave: 1
Flags: W
HStem: 200 86<52.6424 127.358> 286 85<152.642 227.358> 371 86<81.6424 156.216 167.784 241.61> 457 86<95.6424 170.216 181.784 256.358>
VStem: 47 86<205.642 280.358> 76 86<376.853 412 416 451.147> 90 86<462.853 498 502 537.147> 147 86<291.642 365.61> 162 85<376.853 412 416 451.147> 176 86<462.853 498 502 537.147>
LayerCount: 2
Back
Fore
SplineSet
133 243 m 0x88
 133 219 114 200 90 200 c 0x82
 66 200 47 219 47 243 c 0x88
 47 267 66 286 90 286 c 0x82
 114 286 133 267 133 243 c 0x88
233 329 m 0x41
 233 305 214 286 190 286 c 0
 166 286 147 305 147 329 c 0
 147 353 166 371 190 371 c 0
 214 371 233 353 233 329 c 0x41
247 414 m 0x2080
 247 390 229 371 205 371 c 0x4080
 182 371 163 389 162 412 c 1
 161 389 142 371 119 371 c 0
 95 371 76 390 76 414 c 0
 76 438 95 457 119 457 c 0
 142 457 161 439 162 416 c 1x24
 163 439 182 457 205 457 c 0
 229 457 247 438 247 414 c 0x2080
262 500 m 0x1040
 262 476 243 457 219 457 c 0
 196 457 177 475 176 498 c 1x22
 175 475 156 457 133 457 c 0x28
 109 457 90 476 90 500 c 0x22
 90 524 109 543 133 543 c 0x18
 156 543 175 525 176 502 c 1x12
 177 525 196 543 219 543 c 0
 243 543 262 524 262 500 c 0x1040
EndSplineSet
EndChar

StartChar: slash
Encoding: 47 47 18
Width: 522
VWidth: 0
UnlinkRmOvrlpSave: 1
Flags: W
HStem: 286 85<52.6424 127.358> 371 86<152.642 227.358> 457 86<252.642 327.358> 543 86<352.642 427.358> 629 85<452.642 527.358>
VStem: 47 86<291.642 365.61> 147 86<376.642 451.358> 247 86<462.642 537.358> 347 86<548.642 623.358> 447 86<634.39 708.358>
LayerCount: 2
Back
Fore
SplineSet
133 329 m 0x87c0
 133 305 114 286 90 286 c 0
 66 286 47 305 47 329 c 0
 47 353 66 371 90 371 c 0
 114 371 133 353 133 329 c 0x87c0
233 414 m 0
 233 390 214 371 190 371 c 0
 166 371 147 390 147 414 c 0
 147 438 166 457 190 457 c 0x47c0
 214 457 233 438 233 414 c 0
333 500 m 0
 333 476 314 457 290 457 c 0
 266 457 247 476 247 500 c 0
 247 524 266 543 290 543 c 0x27c0
 314 543 333 524 333 500 c 0
433 586 m 0
 433 562 414 543 390 543 c 0
 366 543 347 562 347 586 c 0
 347 610 366 629 390 629 c 0x17c0
 414 629 433 610 433 586 c 0
533 671 m 0
 533 647 514 629 490 629 c 0
 466 629 447 647 447 671 c 0
 447 695 466 714 490 714 c 0x0fc0
 514 714 533 695 533 671 c 0
EndSplineSet
EndChar

StartChar: period
Encoding: 46 46 19
Width: 522
VWidth: 0
UnlinkRmOvrlpSave: 1
Flags: W
HStem: 200 86<52.6424 127.216 138.784 213.358> 286 85<67.6424 141.928 152.284 227.358>
VStem: 47 86<205.853 241 245 280.147> 62 85<291.642 326 331 365.42> 133 86<205.853 241 245 280.147> 147 86<291.642 326 331 365.42>
LayerCount: 2
Back
Fore
SplineSet
219 243 m 0x88
 219 219 200 200 176 200 c 0
 153 200 134 218 133 241 c 1
 132 218 113 200 90 200 c 0
 66 200 47 219 47 243 c 0
 47 267 66 286 90 286 c 0
 113 286 132 268 133 245 c 1xa0
 134 268 153 286 176 286 c 0
 200 286 219 267 219 243 c 0x88
233 329 m 0x44
 233 305 214 286 190 286 c 0
 167 286 148 303 147 326 c 1
 146 303 128 286 105 286 c 0x90
 81 286 62 305 62 329 c 0
 62 353 81 371 105 371 c 0
 128 371 146 354 147 331 c 1x50
 148 354 167 371 190 371 c 0
 214 371 233 353 233 329 c 0x44
EndSplineSet
EndChar

StartChar: one
Encoding: 49 49 20
Width: 522
VWidth: 0
UnlinkRmOvrlpSave: 1
Flags: W
HStem: 200 86<52.6424 127.216 138.784 213.216 224.784 299.358> 286 85<152.642 227.358> 371 86<167.642 241.61> 457 86<181.642 256.358> 543 86<195.642 270.358> 629 85<124.642 199.716 210.072 284.358> 714 86<224.642 299.358>
VStem: 47 86<205.853 241 245 280.147> 119 86<634.58 669 674 708.358> 133 86<205.853 241 245 280.147> 147 86<291.642 365.61> 162 85<376.642 451.358> 176 86<462.642 537.358> 190 86<548.642 623.358> 205 85<634.58 669 674 708.358> 219 86<205.853 241 245 280.147 719.642 794.358>
LayerCount: 2
Back
Fore
SplineSet
305 243 m 0x8001
 305 219 286 200 262 200 c 0x8008
 239 200 220 218 219 241 c 1x8040
 218 218 199 200 176 200 c 0
 153 200 134 218 133 241 c 1
 132 218 113 200 90 200 c 0
 66 200 47 219 47 243 c 0
 47 267 66 286 90 286 c 0
 113 286 132 268 133 245 c 1
 134 268 153 286 176 286 c 0x8108
 199 286 218 268 219 245 c 1x8040
 220 268 239 286 262 286 c 0x8008
 286 286 305 267 305 243 c 0x8001
233 329 m 0x4020
 233 305 214 286 190 286 c 0x8004
 166 286 147 305 147 329 c 0x8020
 147 353 166 371 190 371 c 0x4004
 214 371 233 353 233 329 c 0x4020
247 414 m 0x2010
 247 390 229 371 205 371 c 0x4002
 181 371 162 390 162 414 c 0x4010
 162 438 181 457 205 457 c 0x2002
 229 457 247 438 247 414 c 0x2010
262 500 m 0x1008
 262 476 243 457 219 457 c 0x2001
 195 457 176 476 176 500 c 0x2008
 176 524 195 543 219 543 c 0x1001
 243 543 262 524 262 500 c 0x1008
276 586 m 0x0804
 276 562 257 543 233 543 c 0x1020
 209 543 190 562 190 586 c 0x1004
 190 610 209 629 233 629 c 0x0820
 257 629 276 610 276 586 c 0x0804
290 671 m 0x0402
 290 647 271 629 247 629 c 0x0810
 224 629 206 646 205 669 c 1x0880
 204 646 185 629 162 629 c 0x0410
 138 629 119 647 119 671 c 0x0480
 119 695 138 714 162 714 c 0x0410
 185 714 204 697 205 674 c 1x0480
 206 697 224 714 247 714 c 0x0410
 271 714 290 695 290 671 c 0x0402
305 757 m 0x0201
 305 733 286 714 262 714 c 0x0408
 238 714 219 733 219 757 c 0x0401
 219 781 238 800 262 800 c 0x0208
 286 800 305 781 305 757 c 0x0201
EndSplineSet
EndChar

StartChar: zero
Encoding: 48 48 21
Width: 522
VWidth: 0
UnlinkRmOvrlpSave: 1
Flags: W
HStem: 200 86<123.642 198.216 209.784 284.358> 286 85<52.6424 126.61 309.642 384.358> 371 86<66.6424 141.358 323.642 398.358> 457 86<80.6424 155.358 337.642 412.358> 543 86<95.39 169.358 352.642 426.61> 629 85<109.642 184.358 366.642 441.358> 714 86<209.642 284.216 295.552 369.358>
VStem: 47 85<291.642 365.61> 61 86<376.642 451.358> 75 86<462.642 537.358> 90 85<548.642 623.358> 104 86<634.39 708.358> 118 86<205.853 241 245 280.147> 204 86<205.853 241 245 280.147 719.853 755 759 794.147> 290 85<719.642 755 759 794.358> 304 86<291.642 365.61> 318 86<376.642 451.358> 332 86<462.642 537.358> 347 85<548.642 623.358> 361 86<634.39 708.358>
LayerCount: 2
Back
Fore
SplineSet
290 243 m 0x800a
 290 219 271 200 247 200 c 0
 224 200 205 218 204 241 c 1x800a
 203 218 184 200 161 200 c 0x8040
 137 200 118 219 118 243 c 0x8008
 118 267 137 286 161 286 c 0x8040
 184 286 203 268 204 245 c 1
 205 268 224 286 247 286 c 0
 271 286 290 267 290 243 c 0x800a
390 329 m 0x4001
 390 305 371 286 347 286 c 0x400020
 323 286 304 305 304 329 c 0x4001
 304 353 323 371 347 371 c 0x400020
 371 371 390 353 390 329 c 0x4001
132 329 m 0x41
 132 305 114 286 90 286 c 0x4020
 66 286 47 305 47 329 c 0x41
 47 353 66 371 90 371 c 0x4020
 114 371 132 353 132 329 c 0x41
404 414 m 0x200080
 404 390 385 371 361 371 c 0x400010
 337 371 318 390 318 414 c 0x400080
 318 438 337 457 361 457 c 0x200010
 385 457 404 438 404 414 c 0x200080
147 414 m 0x2080
 147 390 128 371 104 371 c 0x4010
 80 371 61 390 61 414 c 0x4080
 61 438 80 457 104 457 c 0x2010
 128 457 147 438 147 414 c 0x2080
418 500 m 0x100040
 418 476 399 457 375 457 c 0x2002
 351 457 332 476 332 500 c 0x200040
 332 524 351 543 375 543 c 0x1002
 399 543 418 524 418 500 c 0x100040
161 500 m 0x1040
 161 476 142 457 118 457 c 0x2008
 94 457 75 476 75 500 c 0x2040
 75 524 94 543 118 543 c 0x1008
 142 543 161 524 161 500 c 0x1040
432 586 m 0x080020
 432 562 414 543 390 543 c 0x1001
 366 543 347 562 347 586 c 0x100020
 347 610 366 629 390 629 c 0x0801
 414 629 432 610 432 586 c 0x080020
175 586 m 0x0820
 175 562 156 543 132 543 c 0x11
 108 543 90 562 90 586 c 0x1020
 90 610 108 629 132 629 c 0x09
 156 629 175 610 175 586 c 0x0820
447 671 m 0x040010
 447 647 428 629 404 629 c 0x080080
 380 629 361 647 361 671 c 0x080010
 361 695 380 714 404 714 c 0x040080
 428 714 447 695 447 671 c 0x040010
190 671 m 0x0410
 190 647 171 629 147 629 c 0x0880
 123 629 104 647 104 671 c 0x0810
 104 695 123 714 147 714 c 0x0480
 171 714 190 695 190 671 c 0x0410
375 757 m 0x0202
 375 733 356 714 332 714 c 0
 309 714 291 732 290 755 c 1
 289 732 270 714 247 714 c 0
 223 714 204 733 204 757 c 0
 204 781 223 800 247 800 c 0
 270 800 289 782 290 759 c 1
 291 782 309 800 332 800 c 0x020440
 356 800 375 781 375 757 c 0x0202
EndSplineSet
EndChar

StartChar: three
Encoding: 51 51 22
Width: 522
VWidth: 0
UnlinkRmOvrlpSave: 1
Flags: W
HStem: 200 86<123.642 198.216 209.784 284.216 295.784 370.358> 286 85<52.6424 127.358 395.642 470.358> 371 86<409.642 484.358> 457 86<252.642 327.216 338.784 412.61> 543 86<438.642 512.61> 629 85<109.642 184.358 452.642 527.358> 714 86<209.642 284.216 295.784 370.216 381.552 455.358>
VStem: 47 86<291.642 365.61> 104 86<634.39 708.358> 118 86<205.853 241 245 280.147> 204 86<205.853 241 245 280.147 719.853 755 759 794.147> 247 86<462.853 498 502 537.147> 290 86<205.853 241 245 280.147 719.853 755 759 794.147> 333 85<462.853 498 502 537.147> 376 85<719.642 755 759 794.358> 390 86<291.642 365.61> 404 86<376.642 451.358> 433 85<548.642 623.358> 447 86<634.39 708.358>
LayerCount: 2
Back
Fore
SplineSet
376 243 m 0x8002
 376 219 357 200 333 200 c 0
 310 200 291 218 290 241 c 1x8024
 289 218 270 200 247 200 c 0
 224 200 205 218 204 241 c 1
 203 218 184 200 161 200 c 0
 137 200 118 219 118 243 c 0
 118 267 137 286 161 286 c 0
 184 286 203 268 204 245 c 1
 205 268 224 286 247 286 c 0x8050
 270 286 289 268 290 245 c 1
 291 268 310 286 333 286 c 0x8024
 357 286 376 267 376 243 c 0x8002
476 329 m 0x4001
 476 305 457 286 433 286 c 0x400040
 409 286 390 305 390 329 c 0x4001
 390 353 409 371 433 371 c 0x400040
 457 371 476 353 476 329 c 0x4001
133 329 m 0x41
 133 305 114 286 90 286 c 0
 66 286 47 305 47 329 c 0
 47 353 66 371 90 371 c 0
 114 371 133 353 133 329 c 0x41
490 414 m 0x200080
 490 390 471 371 447 371 c 0x400020
 423 371 404 390 404 414 c 0x400080
 404 438 423 457 447 457 c 0x200020
 471 457 490 438 490 414 c 0x200080
418 500 m 0x1004
 418 476 400 457 376 457 c 0
 353 457 334 475 333 498 c 1x1012
 332 475 313 457 290 457 c 0x1008
 266 457 247 476 247 500 c 0x1010
 247 524 266 543 290 543 c 0x1008
 313 543 332 525 333 502 c 1
 334 525 353 543 376 543 c 0x1012
 400 543 418 524 418 500 c 0x1004
518 586 m 0x080040
 518 562 500 543 476 543 c 0x0801
 452 543 433 562 433 586 c 0x080040
 433 610 452 629 476 629 c 0x0801
 500 629 518 610 518 586 c 0x080040
533 671 m 0x040020
 533 647 514 629 490 629 c 0x080080
 466 629 447 647 447 671 c 0x080020
 447 695 466 714 490 714 c 0x040080
 514 714 533 695 533 671 c 0x040020
190 671 m 0x0480
 190 647 171 629 147 629 c 0
 123 629 104 647 104 671 c 0
 104 695 123 714 147 714 c 0
 171 714 190 695 190 671 c 0x0480
461 757 m 0x0202
 461 733 442 714 418 714 c 0x0204
 395 714 377 732 376 755 c 1x0208
 375 732 356 714 333 714 c 0
 310 714 291 732 290 755 c 1x0224
 289 732 270 714 247 714 c 0x0210
 223 714 204 733 204 757 c 0x0220
 204 781 223 800 247 800 c 0x0210
 270 800 289 782 290 759 c 1
 291 782 310 800 333 800 c 0x0224
 356 800 375 782 376 759 c 1x0208
 377 782 395 800 418 800 c 0x0204
 442 800 461 781 461 757 c 0x0202
EndSplineSet
EndChar

StartChar: two
Encoding: 50 50 23
Width: 522
VWidth: 0
UnlinkRmOvrlpSave: 1
Flags: W
HStem: 200 86<52.6424 126.448 137.784 212.216 223.784 298.216 309.784 384.216 395.552 469.358> 286 85<66.6424 141.358> 371 86<80.6424 155.358> 457 86<180.642 255.216 266.784 341.216 352.784 426.61> 543 86<452.642 526.61> 629 85<123.642 198.358 466.642 541.358> 714 86<223.642 298.216 309.784 384.216 395.552 469.358>
VStem: 47 85<205.642 241 245 280.358> 61 86<291.642 365.61> 75 86<376.642 451.358> 118 86<634.39 708.358> 132 86<205.853 241 245 280.147> 175 86<462.853 498 502 537.147> 218 86<205.853 241 245 280.147 719.853 755 759 794.147> 261 86<462.853 498 502 537.147> 347 85<462.853 498 502 537.147> 390 85<205.642 241 245 280.358 719.642 755 759 794.358> 447 85<548.642 623.358> 461 86<634.39 708.358>
LayerCount: 2
Back
Fore
SplineSet
475 243 m 0x800080
 475 219 456 200 432 200 c 0x8001
 409 200 391 218 390 241 c 1x800080
 389 218 370 200 347 200 c 0
 324 200 305 218 304 241 c 1x8005
 303 218 284 200 261 200 c 0
 238 200 219 218 218 241 c 1x8012
 217 218 198 200 175 200 c 0
 152 200 133 218 132 241 c 1
 131 218 113 200 90 200 c 1
 66 200 47 219 47 243 c 0
 47 267 66 286 90 286 c 0
 113 286 131 268 132 245 c 1
 133 268 152 286 175 286 c 1x8108
 198 286 217 268 218 245 c 1
 219 268 238 286 261 286 c 0x8012
 284 286 303 268 304 245 c 1
 305 268 324 286 347 286 c 0x8005
 370 286 389 268 390 245 c 1x800080
 391 268 409 286 432 286 c 0x8001
 456 286 475 267 475 243 c 0x800080
147 329 m 0x4080
 147 305 128 286 104 286 c 0x8080
 80 286 61 305 61 329 c 0
 61 353 80 371 104 371 c 0
 128 371 147 353 147 329 c 0x4080
161 414 m 0x2040
 161 390 142 371 118 371 c 0x4020
 94 371 75 390 75 414 c 0x4040
 75 438 94 457 118 457 c 0x2020
 142 457 161 438 161 414 c 0x2040
432 500 m 0x1001
 432 476 414 457 390 457 c 0
 367 457 348 475 347 498 c 1x100280
 346 475 327 457 304 457 c 0x1004
 281 457 262 475 261 498 c 1x1008
 260 475 241 457 218 457 c 0x1004
 194 457 175 476 175 500 c 0x1008
 175 524 194 543 218 543 c 0x1004
 241 543 260 525 261 502 c 1x1008
 262 525 281 543 304 543 c 0x1004
 327 543 346 525 347 502 c 1
 348 525 367 543 390 543 c 0x100280
 414 543 432 524 432 500 c 0x1001
532 586 m 0x080040
 532 562 514 543 490 543 c 0
 466 543 447 562 447 586 c 0
 447 610 466 629 490 629 c 0
 514 629 532 610 532 586 c 0x080040
547 671 m 0x040020
 547 647 528 629 504 629 c 0x080020
 480 629 461 647 461 671 c 0
 461 695 480 714 504 714 c 0
 528 714 547 695 547 671 c 0x040020
204 671 m 0x0420
 204 647 185 629 161 629 c 0x0440
 137 629 118 647 118 671 c 0x0420
 118 695 137 714 161 714 c 0x0440
 185 714 204 695 204 671 c 0x0420
475 757 m 0x020080
 475 733 456 714 432 714 c 0x0201
 409 714 391 732 390 755 c 1x020080
 389 732 370 714 347 714 c 0
 324 714 305 732 304 755 c 1x0205
 303 732 284 714 261 714 c 0x0202
 237 714 218 733 218 757 c 0x0204
 218 781 237 800 261 800 c 0x0202
 284 800 303 782 304 759 c 1
 305 782 324 800 347 800 c 0x0205
 370 800 389 782 390 759 c 1x020080
 391 782 409 800 432 800 c 0x0201
 456 800 475 781 475 757 c 0x020080
EndSplineSet
EndChar

StartChar: five
Encoding: 53 53 24
Width: 522
VWidth: 0
UnlinkRmOvrlpSave: 1
Flags: W
HStem: 200 86<123.642 198.216 209.784 284.216 295.784 370.358> 286 85<52.6424 127.358 395.642 470.358> 371 86<409.642 484.358> 457 86<423.642 498.358> 543 86<95.6424 170.216 181.552 255.216 266.784 341.216 352.784 427.358> 629 85<109.642 184.358> 714 86<123.642 198.216 209.784 284.216 295.784 370.216 381.552 455.216 466.784 541.358>
VStem: 47 86<291.642 365.61> 90 86<548.853 584 588 623.147> 104 86<634.39 708.358> 118 86<205.853 241 245 280.147 719.853 755 759 794.147> 176 85<548.853 584 588 623.147> 204 86<205.853 241 245 280.147 719.853 755 759 794.147> 261 86<548.853 584 588 623.147> 290 86<205.853 241 245 280.147 719.853 755 759 794.147> 347 86<548.853 584 588 623.147> 376 85<719.853 755 759 794.147> 390 86<291.642 365.61> 404 86<376.642 451.358> 418 86<462.642 537.358> 461 86<719.853 755 759 794.147>
LayerCount: 2
Back
Fore
SplineSet
376 243 m 0x800880
 376 219 357 200 333 200 c 0
 310 200 291 218 290 241 c 1x800880
 289 218 270 200 247 200 c 0
 224 200 205 218 204 241 c 1
 203 218 184 200 161 200 c 0
 137 200 118 219 118 243 c 0
 118 267 137 286 161 286 c 0
 184 286 203 268 204 245 c 1x8020
 205 268 224 286 247 286 c 0
 270 286 289 268 290 245 c 1
 291 268 310 286 333 286 c 0
 357 286 376 267 376 243 c 0x800880
476 329 m 0x400040
 476 305 457 286 433 286 c 0x4001
 409 286 390 305 390 329 c 0x400040
 390 353 409 371 433 371 c 0x4001
 457 371 476 353 476 329 c 0x400040
133 329 m 0x41
 133 305 114 286 90 286 c 0x4080
 66 286 47 305 47 329 c 0x41
 47 353 66 371 90 371 c 0x4080
 114 371 133 353 133 329 c 0x41
490 414 m 0x200020
 490 390 471 371 447 371 c 0x400020
 423 371 404 390 404 414 c 0
 404 438 423 457 447 457 c 0
 471 457 490 438 490 414 c 0x200020
504 500 m 0x100010
 504 476 485 457 461 457 c 0x200008
 437 457 418 476 418 500 c 0x200010
 418 524 437 543 461 543 c 0x100008
 485 543 504 524 504 500 c 0x100010
433 586 m 0x0801
 433 562 414 543 390 543 c 0
 367 543 348 561 347 584 c 1x080440
 346 561 327 543 304 543 c 0
 281 543 262 561 261 584 c 1x0810
 260 561 241 543 218 543 c 0
 195 543 177 561 176 584 c 1x0880
 175 561 156 543 133 543 c 1x09
 109 543 90 562 90 586 c 0x0880
 90 610 109 629 133 629 c 0x09
 156 629 175 611 176 588 c 1x0880
 177 611 195 629 218 629 c 1
 241 629 260 611 261 588 c 1x0810
 262 611 281 629 304 629 c 0
 327 629 346 611 347 588 c 1
 348 611 367 629 390 629 c 0x080440
 414 629 433 610 433 586 c 0x0801
190 671 m 0x0440
 190 647 171 629 147 629 c 0x0840
 123 629 104 647 104 671 c 0
 104 695 123 714 147 714 c 0
 171 714 190 695 190 671 c 0x0440
547 757 m 0x020008
 547 733 528 714 504 714 c 0x020010
 481 714 462 732 461 755 c 1x020080
 460 732 441 714 418 714 c 0
 395 714 377 732 376 755 c 1x020210
 375 732 356 714 333 714 c 0
 310 714 291 732 290 755 c 1
 289 732 270 714 247 714 c 0x0208
 224 714 205 732 204 755 c 1
 203 732 184 714 161 714 c 1x0420
 137 714 118 733 118 757 c 0
 118 781 137 800 161 800 c 0
 184 800 203 782 204 759 c 1x0220
 205 782 224 800 247 800 c 1
 270 800 289 782 290 759 c 1x0208
 291 782 310 800 333 800 c 0
 356 800 375 782 376 759 c 1
 377 782 395 800 418 800 c 0x020210
 441 800 460 782 461 759 c 1x020080
 462 782 481 800 504 800 c 0x020010
 528 800 547 781 547 757 c 0x020008
EndSplineSet
EndChar

StartChar: four
Encoding: 52 52 25
Width: 522
VWidth: 0
UnlinkRmOvrlpSave: 1
Flags: W
HStem: 200 86<281.642 356.358> 286 85<295.642 370.358> 371 86<52.6424 127.216 138.784 213.216 224.784 298.448 309.784 384.216 395.784 470.358> 457 86<67.39 141.358 324.642 398.61> 543 86<167.39 241.358 338.642 413.358> 629 85<267.39 341.716 352.284 427.358> 714 86<367.39 441.358>
VStem: 47 86<376.853 412 416 451.147> 62 85<462.642 537.358> 133 86<376.853 412 416 451.147> 162 85<548.642 623.358> 219 85<376.853 412 416 451.147> 262 85<634.58 669 674 708.358> 276 86<205.642 280.358> 290 86<291.642 365.61> 304 86<376.853 412 416 451.147> 319 85<462.642 537.358> 333 86<548.642 623.358> 347 86<634.58 669 674 708.358> 362 85<719.642 794.358> 390 86<376.853 412 416 451.147>
LayerCount: 2
Back
Fore
SplineSet
362 243 m 0x8004
 362 219 343 200 319 200 c 0x800080
 295 200 276 219 276 243 c 0x8004
 276 267 295 286 319 286 c 0x800080
 343 286 362 267 362 243 c 0x8004
376 329 m 0x4002
 376 305 357 286 333 286 c 0x800040
 309 286 290 305 290 329 c 0x8002
 290 353 309 371 333 371 c 0x400040
 357 371 376 353 376 329 c 0x4002
476 414 m 0x200008
 476 390 457 371 433 371 c 0x200020
 410 371 391 389 390 412 c 1x2001
 389 389 370 371 347 371 c 0
 324 371 305 389 304 412 c 1x401020
 303 389 285 371 262 371 c 0
 239 371 220 389 219 412 c 1x2048
 218 389 199 371 176 371 c 0
 153 371 134 389 133 412 c 1
 132 389 113 371 90 371 c 1
 66 371 47 390 47 414 c 0
 47 438 66 457 90 457 c 0
 113 457 132 439 133 416 c 1x21
 134 439 153 457 176 457 c 1
 199 457 218 439 219 416 c 1
 220 439 239 457 262 457 c 0x2048
 285 457 303 439 304 416 c 1
 305 439 324 457 347 457 c 0x201020
 370 457 389 439 390 416 c 1x2001
 391 439 410 457 433 457 c 0x200020
 457 457 476 438 476 414 c 0x200008
404 500 m 0x100080
 404 476 386 457 362 457 c 0x200010
 338 457 319 476 319 500 c 0x200080
 319 524 338 543 362 543 c 0x100010
 386 543 404 524 404 500 c 0x100080
147 500 m 0x1080
 147 476 128 457 104 457 c 0x2080
 80 457 62 476 62 500 c 0
 62 524 80 543 104 543 c 0
 128 543 147 524 147 500 c 0x1080
419 586 m 0x080040
 419 562 400 543 376 543 c 0x1002
 352 543 333 562 333 586 c 0x100040
 333 610 352 629 376 629 c 0x0802
 400 629 419 610 419 586 c 0x080040
247 586 m 0x0820
 247 562 228 543 204 543 c 0
 180 543 162 562 162 586 c 0
 162 610 180 629 204 629 c 0
 228 629 247 610 247 586 c 0x0820
433 671 m 0x040020
 433 647 414 629 390 629 c 0
 367 629 348 646 347 669 c 1x080808
 346 646 327 629 304 629 c 0x0401
 280 629 262 647 262 671 c 0x0408
 262 695 280 714 304 714 c 0x0401
 327 714 346 697 347 674 c 1
 348 697 367 714 390 714 c 0x040808
 414 714 433 695 433 671 c 0x040020
447 757 m 0x020010
 447 733 428 714 404 714 c 0x040080
 380 714 362 733 362 757 c 0x040010
 362 781 380 800 404 800 c 0x020080
 428 800 447 781 447 757 c 0x020010
EndSplineSet
EndChar

StartChar: seven
Encoding: 55 55 26
Width: 522
VWidth: 0
UnlinkRmOvrlpSave: 1
Flags: W
HStem: 200 86<52.6424 127.358> 286 85<67.6424 141.61> 371 86<81.6424 156.358> 457 86<181.642 256.358> 543 86<281.642 356.358> 629 85<381.642 456.358> 714 86<52.6424 127.216 138.784 213.216 224.784 299.216 310.552 384.216 395.784 470.358>
VStem: 47 86<205.642 280.358 719.853 755 759 794.147> 62 85<291.642 365.61> 76 86<376.642 451.358> 176 86<462.642 537.358> 219 86<719.853 755 759 794.147> 276 86<548.642 623.358> 305 85<719.853 755 759 794.147> 376 86<634.39 708.358> 390 86<719.853 755 759 794.147>
LayerCount: 2
Back
Fore
SplineSet
133 243 m 0x81
 133 219 114 200 90 200 c 0
 66 200 47 219 47 243 c 0
 47 267 66 286 90 286 c 0
 114 286 133 267 133 243 c 0x81
147 329 m 0x4080
 147 305 129 286 105 286 c 0x8080
 81 286 62 305 62 329 c 0
 62 353 81 371 105 371 c 0
 129 371 147 353 147 329 c 0x4080
162 414 m 0x2040
 162 390 143 371 119 371 c 0x4040
 95 371 76 390 76 414 c 0
 76 438 95 457 119 457 c 0
 143 457 162 438 162 414 c 0x2040
262 500 m 0x1020
 262 476 243 457 219 457 c 0x1010
 195 457 176 476 176 500 c 0x1020
 176 524 195 543 219 543 c 0x1010
 243 543 262 524 262 500 c 0x1020
362 586 m 0x0808
 362 562 343 543 319 543 c 0
 295 543 276 562 276 586 c 0
 276 610 295 629 319 629 c 0
 343 629 362 610 362 586 c 0x0808
462 671 m 0x0402
 462 647 443 629 419 629 c 0
 395 629 376 647 376 671 c 0
 376 695 395 714 419 714 c 0
 443 714 462 695 462 671 c 0x0402
476 757 m 0x0201
 476 733 457 714 433 714 c 0
 410 714 391 732 390 755 c 1x0404
 389 732 370 714 347 714 c 0
 324 714 306 732 305 755 c 1x0210
 304 732 285 714 262 714 c 0x0220
 239 714 220 732 219 755 c 1x0210
 218 732 199 714 176 714 c 0
 153 714 134 732 133 755 c 1
 132 732 113 714 90 714 c 1
 66 714 47 733 47 757 c 0
 47 781 66 800 90 800 c 0
 113 800 132 782 133 759 c 1
 134 782 153 800 176 800 c 1x0320
 199 800 218 782 219 759 c 1x0210
 220 782 239 800 262 800 c 0x0220
 285 800 304 782 305 759 c 1x0210
 306 782 324 800 347 800 c 0
 370 800 389 782 390 759 c 1x0204
 391 782 410 800 433 800 c 0
 457 800 476 781 476 757 c 0x0201
EndSplineSet
EndChar

StartChar: six
Encoding: 54 54 27
Width: 522
VWidth: 0
UnlinkRmOvrlpSave: 1
Flags: W
HStem: 200 86<123.642 198.216 209.784 284.216 295.784 370.358> 286 85<52.6424 127.358 395.642 470.358> 371 86<66.6424 141.358 409.642 484.358> 457 86<81.39 155.216 166.784 241.216 252.784 327.216 338.784 412.61> 543 86<95.6424 170.358> 629 85<195.642 270.358> 714 86<295.642 370.216 381.552 455.358>
VStem: 47 86<291.642 365.61> 61 86<376.642 451.358> 76 85<462.853 498 502 537.147> 90 86<548.642 623.358> 118 86<205.853 241 245 280.147> 161 86<462.853 498 502 537.147> 190 86<634.39 708.358> 204 86<205.853 241 245 280.147> 247 86<462.853 498 502 537.147> 290 86<205.853 241 245 280.147 719.853 755 759 794.147> 333 85<462.853 498 502 537.147> 376 85<719.642 755 759 794.358> 390 86<291.642 365.61> 404 86<376.642 451.358>
LayerCount: 2
Back
Fore
SplineSet
376 243 m 0x800020
 376 219 357 200 333 200 c 0
 310 200 291 218 290 241 c 1x800240
 289 218 270 200 247 200 c 0
 224 200 205 218 204 241 c 1x8011
 203 218 184 200 161 200 c 0x8008
 137 200 118 219 118 243 c 0x8010
 118 267 137 286 161 286 c 0x8008
 184 286 203 268 204 245 c 1
 205 268 224 286 247 286 c 0x8011
 270 286 289 268 290 245 c 1
 291 268 310 286 333 286 c 0x800240
 357 286 376 267 376 243 c 0x800020
476 329 m 0x400010
 476 305 457 286 433 286 c 0
 409 286 390 305 390 329 c 0
 390 353 409 371 433 371 c 0
 457 371 476 353 476 329 c 0x400010
133 329 m 0x41
 133 305 114 286 90 286 c 0x4020
 66 286 47 305 47 329 c 0x41
 47 353 66 371 90 371 c 0x4020
 114 371 133 353 133 329 c 0x41
490 414 m 0x200008
 490 390 471 371 447 371 c 0x400008
 423 371 404 390 404 414 c 0
 404 438 423 457 447 457 c 0
 471 457 490 438 490 414 c 0x200008
147 414 m 0x2080
 147 390 128 371 104 371 c 0x4080
 80 371 61 390 61 414 c 0
 61 438 80 457 104 457 c 0
 128 457 147 438 147 414 c 0x2080
418 500 m 0x100040
 418 476 400 457 376 457 c 0
 353 457 334 475 333 498 c 1x100120
 332 475 313 457 290 457 c 0
 267 457 248 475 247 498 c 1x100880
 246 475 227 457 204 457 c 0
 181 457 162 475 161 498 c 1x1042
 160 475 141 457 118 457 c 1x2010
 94 457 76 476 76 500 c 0x2040
 76 524 94 543 118 543 c 0x1010
 141 543 160 525 161 502 c 1
 162 525 181 543 204 543 c 1x1042
 227 543 246 525 247 502 c 1
 248 525 267 543 290 543 c 0x100880
 313 543 332 525 333 502 c 1
 334 525 353 543 376 543 c 0x100120
 400 543 418 524 418 500 c 0x100040
176 586 m 0x0820
 176 562 157 543 133 543 c 0x11
 109 543 90 562 90 586 c 0x1020
 90 610 109 629 133 629 c 0x09
 157 629 176 610 176 586 c 0x0820
276 671 m 0x0404
 276 647 257 629 233 629 c 0
 209 629 190 647 190 671 c 0
 190 695 209 714 233 714 c 0
 257 714 276 695 276 671 c 0x0404
461 757 m 0x020020
 461 733 442 714 418 714 c 0x020040
 395 714 377 732 376 755 c 1x020080
 375 732 356 714 333 714 c 0x020040
 309 714 290 733 290 757 c 0x020080
 290 781 309 800 333 800 c 0x020040
 356 800 375 782 376 759 c 1x020080
 377 782 395 800 418 800 c 0x020040
 442 800 461 781 461 757 c 0x020020
EndSplineSet
EndChar

StartChar: nine
Encoding: 57 57 28
Width: 522
VWidth: 0
UnlinkRmOvrlpSave: 1
Flags: W
HStem: 200 86<80.6424 155.216 166.784 241.358> 286 85<266.642 341.358> 371 86<366.642 441.358> 457 86<123.642 198.216 209.784 284.216 295.784 369.448 380.784 455.358> 543 86<52.6424 127.358 395.642 469.61> 629 85<66.6424 141.358 409.642 484.358> 714 86<166.642 241.216 252.784 327.216 338.552 412.358>
VStem: 47 86<548.642 623.358> 61 86<634.39 708.358> 75 86<205.853 241 245 280.147> 118 86<462.853 498 502 537.147> 161 86<205.853 241 245 280.147 719.853 755 759 794.147> 204 86<462.853 498 502 537.147> 261 86<291.642 365.61> 290 85<462.853 498 502 537.147> 333 85<719.642 755 759 794.358> 361 86<376.642 451.358> 375 86<462.853 498 502 537.147> 390 85<548.642 623.358> 404 86<634.39 708.358>
LayerCount: 2
Back
Fore
SplineSet
247 243 m 0x8010
 247 219 228 200 204 200 c 0
 181 200 162 218 161 241 c 1x8048
 160 218 141 200 118 200 c 0x8020
 94 200 75 219 75 243 c 0x8040
 75 267 94 286 118 286 c 0x8020
 141 286 160 268 161 245 c 1
 162 268 181 286 204 286 c 0x8048
 228 286 247 267 247 243 c 0x8010
347 329 m 0x4004
 347 305 328 286 304 286 c 0
 280 286 261 305 261 329 c 0
 261 353 280 371 304 371 c 0
 328 371 347 353 347 329 c 0x4004
447 414 m 0x200080
 447 390 428 371 404 371 c 0x200010
 380 371 361 390 361 414 c 0x200080
 361 438 380 457 404 457 c 0x200010
 428 457 447 438 447 414 c 0x200080
461 500 m 0x100040
 461 476 442 457 418 457 c 0x2001
 395 457 376 475 375 498 c 1x2002
 374 475 356 457 333 457 c 0
 310 457 291 475 290 498 c 1x1009
 289 475 270 457 247 457 c 0x1010
 224 457 205 475 204 498 c 1x1020
 203 475 184 457 161 457 c 0x1010
 137 457 118 476 118 500 c 0x1020
 118 524 137 543 161 543 c 0x1010
 184 543 203 525 204 502 c 1x1020
 205 525 224 543 247 543 c 0x1010
 270 543 289 525 290 502 c 1
 291 525 310 543 333 543 c 0x1009
 356 543 374 525 375 502 c 1x1002
 376 525 395 543 418 543 c 0x1001
 442 543 461 524 461 500 c 0x100040
475 586 m 0x080020
 475 562 457 543 433 543 c 0x100020
 409 543 390 562 390 586 c 0
 390 610 409 629 433 629 c 0
 457 629 475 610 475 586 c 0x080020
133 586 m 0x09
 133 562 114 543 90 543 c 0
 66 543 47 562 47 586 c 0
 47 610 66 629 90 629 c 0
 114 629 133 610 133 586 c 0x09
490 671 m 0x040010
 490 647 471 629 447 629 c 0x080080
 423 629 404 647 404 671 c 0x080010
 404 695 423 714 447 714 c 0x040080
 471 714 490 695 490 671 c 0x040010
147 671 m 0x0480
 147 647 128 629 104 629 c 0x0880
 80 629 61 647 61 671 c 0
 61 695 80 714 104 714 c 0
 128 714 147 695 147 671 c 0x0480
418 757 m 0x0201
 418 733 399 714 375 714 c 0x020040
 352 714 334 732 333 755 c 1x0201
 332 732 313 714 290 714 c 0
 267 714 248 732 247 755 c 1x0212
 246 732 227 714 204 714 c 0x0208
 180 714 161 733 161 757 c 0x0210
 161 781 180 800 204 800 c 0x0208
 227 800 246 782 247 759 c 1
 248 782 267 800 290 800 c 0x0212
 313 800 332 782 333 759 c 1x0201
 334 782 352 800 375 800 c 0x020040
 399 800 418 781 418 757 c 0x0201
EndSplineSet
EndChar

StartChar: eight
Encoding: 56 56 29
Width: 522
VWidth: 0
UnlinkRmOvrlpSave: 1
Flags: W
HStem: 200 86<123.642 198.216 209.784 284.216 295.784 370.358> 286 85<52.6424 127.358 395.642 470.358> 371 86<66.6424 141.358 409.642 484.358> 457 86<166.642 241.216 252.784 327.216 338.784 412.61> 543 86<95.6424 170.358 438.642 512.61> 629 85<109.642 184.358 452.642 527.358> 714 86<209.642 284.216 295.784 370.216 381.552 455.358>
VStem: 47 86<291.642 365.61> 61 86<376.642 451.358> 90 86<548.642 623.358> 104 86<634.39 708.358> 118 86<205.853 241 245 280.147> 161 86<462.853 498 502 537.147> 204 86<205.853 241 245 280.147 719.853 755 759 794.147> 247 86<462.853 498 502 537.147> 290 86<205.853 241 245 280.147 719.853 755 759 794.147> 333 85<462.853 498 502 537.147> 376 85<719.642 755 759 794.358> 390 86<291.642 365.61> 404 86<376.642 451.358> 433 85<548.642 623.358> 447 86<634.39 708.358>
LayerCount: 2
Back
Fore
SplineSet
376 243 m 0x800040
 376 219 357 200 333 200 c 0
 310 200 291 218 290 241 c 1x800480
 289 218 270 200 247 200 c 0
 224 200 205 218 204 241 c 1x8012
 203 218 184 200 161 200 c 0x8008
 137 200 118 219 118 243 c 0x8010
 118 267 137 286 161 286 c 0x8008
 184 286 203 268 204 245 c 1
 205 268 224 286 247 286 c 0x8012
 270 286 289 268 290 245 c 1
 291 268 310 286 333 286 c 0x800480
 357 286 376 267 376 243 c 0x800040
476 329 m 0x400020
 476 305 457 286 433 286 c 0x400008
 409 286 390 305 390 329 c 0x400020
 390 353 409 371 433 371 c 0x400008
 457 371 476 353 476 329 c 0x400020
133 329 m 0x41
 133 305 114 286 90 286 c 0x4040
 66 286 47 305 47 329 c 0x41
 47 353 66 371 90 371 c 0x4040
 114 371 133 353 133 329 c 0x41
490 414 m 0x200010
 490 390 471 371 447 371 c 0x400004
 423 371 404 390 404 414 c 0x400010
 404 438 423 457 447 457 c 0x200004
 471 457 490 438 490 414 c 0x200010
147 414 m 0x2080
 147 390 128 371 104 371 c 0x4020
 80 371 61 390 61 414 c 0x4080
 61 438 80 457 104 457 c 0x2020
 128 457 147 438 147 414 c 0x2080
418 500 m 0x100080
 418 476 400 457 376 457 c 0
 353 457 334 475 333 498 c 1x100240
 332 475 313 457 290 457 c 0
 267 457 248 475 247 498 c 1x1009
 246 475 227 457 204 457 c 0x1004
 180 457 161 476 161 500 c 0x1008
 161 524 180 543 204 543 c 0x1004
 227 543 246 525 247 502 c 1
 248 525 267 543 290 543 c 0x1009
 313 543 332 525 333 502 c 1
 334 525 353 543 376 543 c 0x100240
 400 543 418 524 418 500 c 0x100080
518 586 m 0x080008
 518 562 500 543 476 543 c 0x080020
 452 543 433 562 433 586 c 0x080008
 433 610 452 629 476 629 c 0x080020
 500 629 518 610 518 586 c 0x080008
176 586 m 0x0840
 176 562 157 543 133 543 c 0x09
 109 543 90 562 90 586 c 0x0840
 90 610 109 629 133 629 c 0x09
 157 629 176 610 176 586 c 0x0840
533 671 m 0x040004
 533 647 514 629 490 629 c 0x080010
 466 629 447 647 447 671 c 0x080004
 447 695 466 714 490 714 c 0x040010
 514 714 533 695 533 671 c 0x040004
190 671 m 0x0420
 190 647 171 629 147 629 c 0x0880
 123 629 104 647 104 671 c 0x0820
 104 695 123 714 147 714 c 0x0480
 171 714 190 695 190 671 c 0x0420
461 757 m 0x020040
 461 733 442 714 418 714 c 0x020080
 395 714 377 732 376 755 c 1x0201
 375 732 356 714 333 714 c 0
 310 714 291 732 290 755 c 1x020480
 289 732 270 714 247 714 c 0x0202
 223 714 204 733 204 757 c 0x0204
 204 781 223 800 247 800 c 0x0202
 270 800 289 782 290 759 c 1
 291 782 310 800 333 800 c 0x020480
 356 800 375 782 376 759 c 1x0201
 377 782 395 800 418 800 c 0x020080
 442 800 461 781 461 757 c 0x020040
EndSplineSet
EndChar

StartChar: semicolon
Encoding: 59 59 30
Width: 522
VWidth: 0
UnlinkRmOvrlpSave: 1
Flags: W
HStem: 200 86<52.6424 127.358> 286 85<152.642 227.358> 371 86<81.6424 156.216 167.784 241.61> 457 86<95.6424 170.216 181.784 256.358> 629 85<124.642 199.716 210.072 284.358> 714 86<138.642 213.216 224.784 299.358>
VStem: 47 86<205.642 280.358> 76 86<376.853 412 416 451.147> 90 86<462.853 498 502 537.147> 119 86<634.58 669 674 708.358> 133 86<719.853 755 759 794.147> 147 86<291.642 365.61> 162 85<376.853 412 416 451.147> 176 86<462.853 498 502 537.147> 205 85<634.58 669 674 708.358> 219 86<719.853 755 759 794.147>
LayerCount: 2
Back
Fore
SplineSet
133 243 m 0x82
 133 219 114 200 90 200 c 0x8080
 66 200 47 219 47 243 c 0x82
 47 267 66 286 90 286 c 0x8080
 114 286 133 267 133 243 c 0x82
233 329 m 0x4010
 233 305 214 286 190 286 c 0
 166 286 147 305 147 329 c 0
 147 353 166 371 190 371 c 0
 214 371 233 353 233 329 c 0x4010
247 414 m 0x2008
 247 390 229 371 205 371 c 0
 182 371 163 389 162 412 c 1x4102
 161 389 142 371 119 371 c 0x2040
 95 371 76 390 76 414 c 0x21
 76 438 95 457 119 457 c 0x2040
 142 457 161 439 162 416 c 1
 163 439 182 457 205 457 c 0x2102
 229 457 247 438 247 414 c 0x2008
262 500 m 0x1004
 262 476 243 457 219 457 c 0
 196 457 177 475 176 498 c 1x2081
 175 475 156 457 133 457 c 0x2020
 109 457 90 476 90 500 c 0x2080
 90 524 109 543 133 543 c 0x1020
 156 543 175 525 176 502 c 1
 177 525 196 543 219 543 c 0x1081
 243 543 262 524 262 500 c 0x1004
290 671 m 0x0802
 290 647 271 629 247 629 c 0x0808
 224 629 206 646 205 669 c 1x0840
 204 646 185 629 162 629 c 0x0808
 138 629 119 647 119 671 c 0x0840
 119 695 138 714 162 714 c 0x0808
 185 714 204 697 205 674 c 1x0840
 206 697 224 714 247 714 c 0x0808
 271 714 290 695 290 671 c 0x0802
305 757 m 0x0401
 305 733 286 714 262 714 c 0x0804
 239 714 220 732 219 755 c 1x0820
 218 732 199 714 176 714 c 0x0804
 152 714 133 733 133 757 c 0x0820
 133 781 152 800 176 800 c 0x0404
 199 800 218 782 219 759 c 1x0420
 220 782 239 800 262 800 c 0x0404
 286 800 305 781 305 757 c 0x0401
EndSplineSet
EndChar

StartChar: colon
Encoding: 58 58 31
Width: 522
VWidth: 0
UnlinkRmOvrlpSave: 1
Flags: W
HStem: 286 85<52.6424 126.928 137.284 212.358> 371 86<66.6424 141.216 152.784 226.61> 543 86<95.39 169.216 180.784 255.358> 629 85<109.642 184.716 195.072 269.358>
VStem: 47 85<291.642 326 331 365.42> 61 86<376.853 412 416 451.147> 90 85<548.853 584 588 623.147> 104 86<634.58 669 674 708.358> 132 86<291.642 326 331 365.42> 147 85<376.853 412 416 451.147> 175 86<548.853 584 588 623.147> 190 85<634.58 669 674 708.358>
LayerCount: 2
Back
Fore
SplineSet
218 329 m 0x8080
 218 305 199 286 175 286 c 0
 152 286 133 303 132 326 c 1x8820
 131 303 113 286 90 286 c 0x82
 66 286 47 305 47 329 c 0x88
 47 353 66 371 90 371 c 0x82
 113 371 131 354 132 331 c 1
 133 354 152 371 175 371 c 0x8820
 199 371 218 353 218 329 c 0x8080
232 414 m 0x4040
 232 390 214 371 190 371 c 0
 167 371 148 389 147 412 c 1x8410
 146 389 127 371 104 371 c 0x81
 80 371 61 390 61 414 c 0x84
 61 438 80 457 104 457 c 0x41
 127 457 146 439 147 416 c 1
 148 439 167 457 190 457 c 0x4410
 214 457 232 438 232 414 c 0x4040
261 586 m 0x2020
 261 562 242 543 218 543 c 0x2080
 195 543 176 561 175 584 c 1x22
 174 561 155 543 132 543 c 0x2080
 108 543 90 562 90 586 c 0x22
 90 610 108 629 132 629 c 0x2080
 155 629 174 611 175 588 c 1x22
 176 611 195 629 218 629 c 0x2080
 242 629 261 610 261 586 c 0x2020
275 671 m 0x1010
 275 647 256 629 232 629 c 0x2040
 209 629 191 646 190 669 c 1x21
 189 646 170 629 147 629 c 0x2040
 123 629 104 647 104 671 c 0x21
 104 695 123 714 147 714 c 0x1040
 170 714 189 697 190 674 c 1x11
 191 697 209 714 232 714 c 0x1040
 256 714 275 695 275 671 c 0x1010
EndSplineSet
EndChar

StartChar: equal
Encoding: 61 61 32
Width: 522
VWidth: 0
UnlinkRmOvrlpSave: 1
Flags: W
HStem: 371 86<52.6424 127.216 138.784 213.216 224.784 298.448 309.784 384.216 395.784 470.358> 543 86<81.6424 156.216 167.552 241.216 252.784 327.216 338.784 413.216 424.784 498.61>
VStem: 47 86<376.853 412 416 451.147> 76 86<548.853 584 588 623.147> 133 86<376.853 412 416 451.147> 162 85<548.853 584 588 623.147> 219 85<376.853 412 416 451.147> 247 86<548.853 584 588 623.147> 304 86<376.853 412 416 451.147> 333 86<548.853 584 588 623.147> 390 86<376.853 412 416 451.147> 419 85<548.853 584 588 623.147>
LayerCount: 2
Back
Fore
SplineSet
476 414 m 0xc020
 476 390 457 371 433 371 c 0
 410 371 391 389 390 412 c 1xc080
 389 389 370 371 347 371 c 0
 324 371 305 389 304 412 c 1xc2
 303 389 285 371 262 371 c 0
 239 371 220 389 219 412 c 1xc8
 218 389 199 371 176 371 c 0
 153 371 134 389 133 412 c 1
 132 389 113 371 90 371 c 1
 66 371 47 390 47 414 c 0
 47 438 66 457 90 457 c 0
 113 457 132 439 133 416 c 1xe0
 134 439 153 457 176 457 c 1
 199 457 218 439 219 416 c 1xc8
 220 439 239 457 262 457 c 0
 285 457 303 439 304 416 c 1xc2
 305 439 324 457 347 457 c 0
 370 457 389 439 390 416 c 1xc080
 391 439 410 457 433 457 c 0
 457 457 476 438 476 414 c 0xc020
504 586 m 0xc010
 504 562 486 543 462 543 c 0
 439 543 420 561 419 584 c 1xc040
 418 561 399 543 376 543 c 0
 353 543 334 561 333 584 c 1xc1
 332 561 313 543 290 543 c 0
 267 543 248 561 247 584 c 1xc4
 246 561 227 543 204 543 c 0
 181 543 163 561 162 584 c 1
 161 561 142 543 119 543 c 1
 95 543 76 562 76 586 c 0
 76 610 95 629 119 629 c 0
 142 629 161 611 162 588 c 1xd0
 163 611 181 629 204 629 c 1
 227 629 246 611 247 588 c 1xc4
 248 611 267 629 290 629 c 0
 313 629 332 611 333 588 c 1xc1
 334 611 353 629 376 629 c 0
 399 629 418 611 419 588 c 1xc040
 420 611 439 629 462 629 c 0
 486 629 504 610 504 586 c 0xc010
EndSplineSet
EndChar

StartChar: less
Encoding: 60 60 33
Width: 522
VWidth: 0
UnlinkRmOvrlpSave: 1
Flags: W
HStem: 200 86<267.39 341.358> 286 85<195.642 270.358> 371 86<124.642 198.61> 457 86<52.6424 127.358> 543 86<152.642 227.358> 629 85<252.642 327.358> 714 86<352.642 427.358>
VStem: 47 86<462.642 537.358> 119 85<376.642 451.358> 147 86<548.642 623.358> 190 86<291.642 365.61> 247 86<634.39 708.358> 262 85<205.642 280.358> 347 86<719.642 794.358>
LayerCount: 2
Back
Fore
SplineSet
347 243 m 0x8008
 347 219 328 200 304 200 c 0
 280 200 262 219 262 243 c 0
 262 267 280 286 304 286 c 0
 328 286 347 267 347 243 c 0x8008
276 329 m 0x4020
 276 305 257 286 233 286 c 0x4040
 209 286 190 305 190 329 c 0x4020
 190 353 209 371 233 371 c 0x4040
 257 371 276 353 276 329 c 0x4020
204 414 m 0x2080
 204 390 186 371 162 371 c 0
 138 371 119 390 119 414 c 0
 119 438 138 457 162 457 c 0
 186 457 204 438 204 414 c 0x2080
133 500 m 0x11
 133 476 114 457 90 457 c 0
 66 457 47 476 47 500 c 0
 47 524 66 543 90 543 c 0
 114 543 133 524 133 500 c 0x11
233 586 m 0x0840
 233 562 214 543 190 543 c 0x0820
 166 543 147 562 147 586 c 0x0840
 147 610 166 629 190 629 c 0x0820
 214 629 233 610 233 586 c 0x0840
333 671 m 0x0410
 333 647 314 629 290 629 c 0
 266 629 247 647 247 671 c 0
 247 695 266 714 290 714 c 0
 314 714 333 695 333 671 c 0x0410
433 757 m 0x0204
 433 733 414 714 390 714 c 0
 366 714 347 733 347 757 c 0
 347 781 366 800 390 800 c 0
 414 800 433 781 433 757 c 0x0204
EndSplineSet
EndChar

StartChar: question
Encoding: 63 63 34
Width: 522
VWidth: 0
UnlinkRmOvrlpSave: 1
Flags: W
HStem: 200 86<152.642 227.358> 371 86<181.642 255.61> 457 86<195.642 270.358> 543 86<295.642 370.358> 629 85<52.6424 127.358 309.642 384.358> 714 86<152.642 227.216 238.784 313.358>
VStem: 47 86<634.39 708.358> 147 86<205.642 280.358 719.853 755 759 794.147> 176 85<376.642 451.358> 190 86<462.642 537.358> 290 86<548.642 623.358> 304 86<634.39 708.358>
LayerCount: 2
Back
Fore
SplineSet
233 243 m 0x83
 233 219 214 200 190 200 c 0x8240
 166 200 147 219 147 243 c 0x83
 147 267 166 286 190 286 c 0x8240
 214 286 233 267 233 243 c 0x83
261 414 m 0xc280
 261 390 243 371 219 371 c 0
 195 371 176 390 176 414 c 0
 176 438 195 457 219 457 c 0
 243 457 261 438 261 414 c 0xc280
276 500 m 0xa240
 276 476 257 457 233 457 c 0xc3
 209 457 190 476 190 500 c 0xc240
 190 524 209 543 233 543 c 0xa3
 257 543 276 524 276 500 c 0xa240
376 586 m 0x9220
 376 562 357 543 333 543 c 0
 309 543 290 562 290 586 c 0
 290 610 309 629 333 629 c 0
 357 629 376 610 376 586 c 0x9220
390 671 m 0x8a10
 390 647 371 629 347 629 c 0x9210
 323 629 304 647 304 671 c 0
 304 695 323 714 347 714 c 0
 371 714 390 695 390 671 c 0x8a10
133 671 m 0
 133 647 114 629 90 629 c 0
 66 629 47 647 47 671 c 0
 47 695 66 714 90 714 c 0x8a
 114 714 133 695 133 671 c 0
319 757 m 0
 319 733 300 714 276 714 c 0x8640
 253 714 234 732 233 755 c 1x87
 232 732 213 714 190 714 c 0x8640
 166 714 147 733 147 757 c 0x87
 147 781 166 800 190 800 c 0x8640
 213 800 232 782 233 759 c 1x87
 234 782 253 800 276 800 c 0x8640
 300 800 319 781 319 757 c 0
EndSplineSet
EndChar

StartChar: greater
Encoding: 62 62 35
Width: 522
VWidth: 0
UnlinkRmOvrlpSave: 1
Flags: W
HStem: 200 86<52.6424 126.61> 286 85<152.642 226.61> 371 86<252.642 326.61> 457 86<352.642 426.61> 543 86<280.642 355.358> 629 85<209.642 284.358> 714 86<137.642 212.358>
VStem: 47 85<205.642 280.358> 132 86<719.642 794.358> 147 85<291.642 365.61> 204 86<634.39 708.358> 247 85<376.642 451.358> 275 86<548.642 623.358> 347 85<462.642 537.358>
LayerCount: 2
Back
Fore
SplineSet
132 243 m 0x81
 132 219 114 200 90 200 c 0
 66 200 47 219 47 243 c 0
 47 267 66 286 90 286 c 0
 114 286 132 267 132 243 c 0x81
232 329 m 0x4040
 232 305 214 286 190 286 c 0
 166 286 147 305 147 329 c 0
 147 353 166 371 190 371 c 0
 214 371 232 353 232 329 c 0x4040
332 414 m 0x2010
 332 390 314 371 290 371 c 0x2020
 266 371 247 390 247 414 c 0x2010
 247 438 266 457 290 457 c 0x2020
 314 457 332 438 332 414 c 0x2010
432 500 m 0x1004
 432 476 414 457 390 457 c 0
 366 457 347 476 347 500 c 0
 347 524 366 543 390 543 c 0
 414 543 432 524 432 500 c 0x1004
361 586 m 0x0808
 361 562 342 543 318 543 c 0
 294 543 275 562 275 586 c 0
 275 610 294 629 318 629 c 0
 342 629 361 610 361 586 c 0x0808
290 671 m 0x0420
 290 647 271 629 247 629 c 0x0410
 223 629 204 647 204 671 c 0x0420
 204 695 223 714 247 714 c 0x0410
 271 714 290 695 290 671 c 0x0420
218 757 m 0x0280
 218 733 199 714 175 714 c 0
 151 714 132 733 132 757 c 0
 132 781 151 800 175 800 c 0
 199 800 218 781 218 757 c 0x0280
EndSplineSet
EndChar

StartChar: A
Encoding: 65 65 36
Width: 522
VWidth: 0
UnlinkRmOvrlpSave: 1
Flags: W
HStem: 200 86<52.6424 126.61 395.39 469.358> 286 85<66.6424 141.358 409.642 484.358> 371 86<80.6424 155.216 166.784 241.216 252.784 326.448 337.784 412.216 423.784 498.358> 457 86<95.39 169.358 437.642 512.358> 543 86<109.642 184.358 452.642 526.61> 629 85<209.642 284.358 380.642 455.358> 714 86<309.642 384.358>
VStem: 47 85<205.642 280.358> 61 86<291.642 365.61> 75 86<376.853 412 416 451.147> 90 85<462.642 537.358> 104 86<548.642 623.358> 161 86<376.853 412 416 451.147> 204 86<634.39 708.358> 247 85<376.853 412 416 451.147> 304 86<719.642 794.358> 332 86<376.853 412 416 451.147> 375 86<634.39 708.358> 390 85<205.642 280.358> 404 86<291.642 365.61> 418 86<376.853 412 416 451.147> 432 86<462.642 537.358> 447 85<548.642 623.358>
LayerCount: 2
Back
Fore
SplineSet
475 243 m 0x800020
 475 219 456 200 432 200 c 0x800004
 408 200 390 219 390 243 c 0x800020
 390 267 408 286 432 286 c 0x800004
 456 286 475 267 475 243 c 0x800020
132 243 m 0x81
 132 219 114 200 90 200 c 0x8020
 66 200 47 219 47 243 c 0x81
 47 267 66 286 90 286 c 0x8020
 114 286 132 267 132 243 c 0x81
490 329 m 0x400010
 490 305 471 286 447 286 c 0x800002
 423 286 404 305 404 329 c 0x800010
 404 353 423 371 447 371 c 0x400002
 471 371 490 353 490 329 c 0x400010
147 329 m 0x4080
 147 305 128 286 104 286 c 0x8010
 80 286 61 305 61 329 c 0x8080
 61 353 80 371 104 371 c 0x4010
 128 371 147 353 147 329 c 0x4080
504 414 m 0x200008
 504 390 485 371 461 371 c 0x400040
 438 371 419 389 418 412 c 1x400080
 417 389 398 371 375 371 c 0
 352 371 333 389 332 412 c 1x200240
 331 389 313 371 290 371 c 0x2004
 267 371 248 389 247 412 c 1x2008
 246 389 227 371 204 371 c 0x2004
 181 371 162 389 161 412 c 1
 160 389 141 371 118 371 c 1x4044
 94 371 75 390 75 414 c 0
 75 438 94 457 118 457 c 0
 141 457 160 439 161 416 c 1
 162 439 181 457 204 457 c 1x2044
 227 457 246 439 247 416 c 1x2008
 248 439 267 457 290 457 c 0x2004
 313 457 331 439 332 416 c 1
 333 439 352 457 375 457 c 0x200240
 398 457 417 439 418 416 c 1x200080
 419 439 438 457 461 457 c 0x200040
 485 457 504 438 504 414 c 0x200008
518 500 m 0x100004
 518 476 499 457 475 457 c 0x200020
 451 457 432 476 432 500 c 0x200004
 432 524 451 543 475 543 c 0x100020
 499 543 518 524 518 500 c 0x100004
175 500 m 0x1020
 175 476 156 457 132 457 c 0x21
 108 457 90 476 90 500 c 0x2020
 90 524 108 543 132 543 c 0x11
 156 543 175 524 175 500 c 0x1020
532 586 m 0x080002
 532 562 514 543 490 543 c 0x100010
 466 543 447 562 447 586 c 0x100002
 447 610 466 629 490 629 c 0x080010
 514 629 532 610 532 586 c 0x080002
190 586 m 0x0810
 190 562 171 543 147 543 c 0x1080
 123 543 104 562 104 586 c 0x1010
 104 610 123 629 147 629 c 0x0880
 171 629 190 610 190 586 c 0x0810
461 671 m 0x040040
 461 647 442 629 418 629 c 0x040008
 394 629 375 647 375 671 c 0x040040
 375 695 394 714 418 714 c 0x040008
 442 714 461 695 461 671 c 0x040040
290 671 m 0x0404
 290 647 271 629 247 629 c 0x0402
 223 629 204 647 204 671 c 0x0404
 204 695 223 714 247 714 c 0x0402
 271 714 290 695 290 671 c 0x0404
390 757 m 0x0201
 390 733 371 714 347 714 c 0
 323 714 304 733 304 757 c 0
 304 781 323 800 347 800 c 0
 371 800 390 781 390 757 c 0x0201
EndSplineSet
EndChar

StartChar: at
Encoding: 64 64 37
Width: 522
VWidth: 0
UnlinkRmOvrlpSave: 1
Flags: W
HStem: 200 86<123.642 198.216 209.784 284.216 295.784 370.358> 286 85<52.6424 127.358 223.642 298.358 395.642 470.358> 371 86<66.6424 141.358 238.642 312.61 409.642 484.358> 457 86<166.642 241.216 252.784 327.358 423.642 498.358> 543 86<438.642 512.61> 629 85<109.642 184.358 452.642 527.358> 714 86<209.642 284.216 295.784 370.216 381.552 455.358>
VStem: 47 86<291.642 365.61> 61 86<376.642 451.358> 104 86<634.39 708.358> 118 86<205.853 241 245 280.147> 161 86<462.853 498 502 537.147> 204 86<205.853 241 245 280.147 719.853 755 759 794.147> 218 86<291.642 365.61> 233 85<376.642 451.358> 247 86<462.853 498 502 537.147> 290 86<205.853 241 245 280.147 719.853 755 759 794.147> 376 85<719.642 755 759 794.358> 390 86<291.642 365.61> 404 86<376.642 451.358> 418 86<462.642 537.358> 433 85<548.642 623.358> 447 86<634.39 708.358>
LayerCount: 2
Back
Fore
SplineSet
376 243 m 0x800140
 376 219 357 200 333 200 c 0x800140
 310 200 291 218 290 241 c 1x8008
 289 218 270 200 247 200 c 0
 224 200 205 218 204 241 c 1x8021
 203 218 184 200 161 200 c 0x8010
 137 200 118 219 118 243 c 0x8020
 118 267 137 286 161 286 c 0x8010
 184 286 203 268 204 245 c 1
 205 268 224 286 247 286 c 0x8021
 270 286 289 268 290 245 c 1x8008
 291 268 310 286 333 286 c 0
 357 286 376 267 376 243 c 0x800140
476 329 m 0x400020
 476 305 457 286 433 286 c 0x400004
 409 286 390 305 390 329 c 0x400020
 390 353 409 371 433 371 c 0x400004
 457 371 476 353 476 329 c 0x400020
304 329 m 0x4004
 304 305 285 286 261 286 c 0x8004
 237 286 218 305 218 329 c 0
 218 353 237 371 261 371 c 0
 285 371 304 353 304 329 c 0x4004
133 329 m 0x41
 133 305 114 286 90 286 c 0
 66 286 47 305 47 329 c 0
 47 353 66 371 90 371 c 0
 114 371 133 353 133 329 c 0x41
490 414 m 0x200010
 490 390 471 371 447 371 c 0x400002
 423 371 404 390 404 414 c 0x400010
 404 438 423 457 447 457 c 0x200002
 471 457 490 438 490 414 c 0x200010
318 414 m 0x2002
 318 390 300 371 276 371 c 0x4002
 252 371 233 390 233 414 c 0
 233 438 252 457 276 457 c 0
 300 457 318 438 318 414 c 0x2002
147 414 m 0x2080
 147 390 128 371 104 371 c 0x4040
 80 371 61 390 61 414 c 0x4080
 61 438 80 457 104 457 c 0x2040
 128 457 147 438 147 414 c 0x2080
504 500 m 0x100008
 504 476 485 457 461 457 c 0x200040
 437 457 418 476 418 500 c 0x200008
 418 524 437 543 461 543 c 0x100040
 485 543 504 524 504 500 c 0x100008
333 500 m 0x1001
 333 476 314 457 290 457 c 0
 267 457 248 475 247 498 c 1x201080
 246 475 227 457 204 457 c 0x1008
 180 457 161 476 161 500 c 0x1010
 161 524 180 543 204 543 c 0x1008
 227 543 246 525 247 502 c 1
 248 525 267 543 290 543 c 0x101080
 314 543 333 524 333 500 c 0x1001
518 586 m 0x080004
 518 562 500 543 476 543 c 0x100020
 452 543 433 562 433 586 c 0x100004
 433 610 452 629 476 629 c 0x080020
 500 629 518 610 518 586 c 0x080004
533 671 m 0x040002
 533 647 514 629 490 629 c 0x080010
 466 629 447 647 447 671 c 0x080002
 447 695 466 714 490 714 c 0x040010
 514 714 533 695 533 671 c 0x040002
190 671 m 0x0440
 190 647 171 629 147 629 c 0x0480
 123 629 104 647 104 671 c 0x0440
 104 695 123 714 147 714 c 0x0480
 171 714 190 695 190 671 c 0x0440
461 757 m 0x020040
 461 733 442 714 418 714 c 0
 395 714 377 732 376 755 c 1x020088
 375 732 356 714 333 714 c 0x0201
 310 714 291 732 290 755 c 1x0208
 289 732 270 714 247 714 c 0x0201
 223 714 204 733 204 757 c 0x0208
 204 781 223 800 247 800 c 0x0201
 270 800 289 782 290 759 c 1x0208
 291 782 310 800 333 800 c 0x0201
 356 800 375 782 376 759 c 1
 377 782 395 800 418 800 c 0x020088
 442 800 461 781 461 757 c 0x020040
EndSplineSet
EndChar

StartChar: C
Encoding: 67 67 38
Width: 522
VWidth: 0
UnlinkRmOvrlpSave: 1
Flags: W
HStem: 200 86<123.642 198.216 209.784 284.216 295.784 370.358> 286 85<52.6424 127.358 395.642 470.358> 371 86<66.6424 141.358> 457 86<81.39 155.358> 543 86<95.6424 170.358> 629 85<109.642 184.358 452.642 527.358> 714 86<209.642 284.216 295.784 370.216 381.552 455.358>
VStem: 47 86<291.642 365.61> 61 86<376.642 451.358> 76 85<462.642 537.358> 90 86<548.642 623.358> 104 86<634.39 708.358> 118 86<205.853 241 245 280.147> 204 86<205.853 241 245 280.147 719.853 755 759 794.147> 290 86<205.853 241 245 280.147 719.853 755 759 794.147> 376 85<719.642 755 759 794.358> 390 86<291.642 365.61> 447 86<634.39 708.358>
LayerCount: 2
Back
Fore
SplineSet
376 243 m 0x8005
 376 219 357 200 333 200 c 0
 310 200 291 218 290 241 c 1x8005
 289 218 270 200 247 200 c 0
 224 200 205 218 204 241 c 1x8008
 203 218 184 200 161 200 c 0x8040
 137 200 118 219 118 243 c 0x8008
 118 267 137 286 161 286 c 0x8040
 184 286 203 268 204 245 c 1x8008
 205 268 224 286 247 286 c 0
 270 286 289 268 290 245 c 1
 291 268 310 286 333 286 c 0
 357 286 376 267 376 243 c 0x8005
476 329 m 0x400080
 476 305 457 286 433 286 c 0
 409 286 390 305 390 329 c 0
 390 353 409 371 433 371 c 0
 457 371 476 353 476 329 c 0x400080
133 329 m 0x41
 133 305 114 286 90 286 c 0x4020
 66 286 47 305 47 329 c 0x41
 47 353 66 371 90 371 c 0x4020
 114 371 133 353 133 329 c 0x41
147 414 m 0x2080
 147 390 128 371 104 371 c 0x4010
 80 371 61 390 61 414 c 0x4080
 61 438 80 457 104 457 c 0x2010
 128 457 147 438 147 414 c 0x2080
161 500 m 0x1040
 161 476 142 457 118 457 c 0x2008
 94 457 76 476 76 500 c 0x2040
 76 524 94 543 118 543 c 0x1008
 142 543 161 524 161 500 c 0x1040
176 586 m 0x0820
 176 562 157 543 133 543 c 0x11
 109 543 90 562 90 586 c 0x1020
 90 610 109 629 133 629 c 0x09
 157 629 176 610 176 586 c 0x0820
533 671 m 0x040040
 533 647 514 629 490 629 c 0
 466 629 447 647 447 671 c 0
 447 695 466 714 490 714 c 0
 514 714 533 695 533 671 c 0x040040
190 671 m 0x0410
 190 647 171 629 147 629 c 0x0880
 123 629 104 647 104 671 c 0x0810
 104 695 123 714 147 714 c 0x0480
 171 714 190 695 190 671 c 0x0410
461 757 m 0x0201
 461 733 442 714 418 714 c 0
 395 714 377 732 376 755 c 1x0202
 375 732 356 714 333 714 c 0
 310 714 291 732 290 755 c 1
 289 732 270 714 247 714 c 0
 223 714 204 733 204 757 c 0
 204 781 223 800 247 800 c 0
 270 800 289 782 290 759 c 1x0204
 291 782 310 800 333 800 c 0
 356 800 375 782 376 759 c 1x0202
 377 782 395 800 418 800 c 0
 442 800 461 781 461 757 c 0x0201
EndSplineSet
EndChar

StartChar: B
Encoding: 66 66 39
Width: 522
VWidth: 0
UnlinkRmOvrlpSave: 1
Flags: W
HStem: 200 86<52.6424 126.448 137.784 212.216 223.784 298.216 309.784 384.358> 286 85<152.642 226.61 409.642 484.358> 371 86<166.642 241.358 423.642 498.358> 457 86<180.642 255.216 266.784 341.216 352.784 426.61> 543 86<195.39 269.358 452.642 526.61> 629 85<209.642 284.358 466.642 541.358> 714 86<137.642 212.216 223.784 298.216 309.784 384.216 395.552 469.358>
VStem: 47 85<205.642 241 245 280.358> 132 86<205.853 241 245 280.147 719.853 755 759 794.147> 147 85<291.642 365.61> 161 86<376.642 451.358> 175 86<462.853 498 502 537.147> 190 85<548.642 623.358> 204 86<634.39 708.358> 218 86<205.853 241 245 280.147 719.853 755 759 794.147> 261 86<462.853 498 502 537.147> 304 86<205.853 241 245 280.147 719.853 755 759 794.147> 347 85<462.853 498 502 537.147> 390 85<719.642 755 759 794.358> 404 86<291.642 365.61> 418 86<376.642 451.358> 447 85<548.642 623.358> 461 86<634.39 708.358>
LayerCount: 2
Back
Fore
SplineSet
390 243 m 0x800020
 390 219 371 200 347 200 c 0
 324 200 305 218 304 241 c 1x800240
 303 218 284 200 261 200 c 0
 238 200 219 218 218 241 c 1x8081
 217 218 198 200 175 200 c 0
 152 200 133 218 132 241 c 1
 131 218 113 200 90 200 c 1
 66 200 47 219 47 243 c 0
 47 267 66 286 90 286 c 0
 113 286 131 268 132 245 c 1
 133 268 152 286 175 286 c 1x8110
 198 286 217 268 218 245 c 1
 219 268 238 286 261 286 c 0x8081
 284 286 303 268 304 245 c 1
 305 268 324 286 347 286 c 0x800240
 371 286 390 267 390 243 c 0x800020
490 329 m 0x400010
 490 305 471 286 447 286 c 0x400004
 423 286 404 305 404 329 c 0x400010
 404 353 423 371 447 371 c 0x400004
 471 371 490 353 490 329 c 0x400010
232 329 m 0x4040
 232 305 214 286 190 286 c 0x8008
 166 286 147 305 147 329 c 0x8040
 147 353 166 371 190 371 c 0x4008
 214 371 232 353 232 329 c 0x4040
504 414 m 0x200008
 504 390 485 371 461 371 c 0x400002
 437 371 418 390 418 414 c 0x400008
 418 438 437 457 461 457 c 0x200002
 485 457 504 438 504 414 c 0x200008
247 414 m 0x2020
 247 390 228 371 204 371 c 0x4004
 180 371 161 390 161 414 c 0x4020
 161 438 180 457 204 457 c 0x2004
 228 457 247 438 247 414 c 0x2020
432 500 m 0x100040
 432 476 414 457 390 457 c 0
 367 457 348 475 347 498 c 1x100120
 346 475 327 457 304 457 c 0
 281 457 262 475 261 498 c 1x101080
 260 475 241 457 218 457 c 0x2002
 194 457 175 476 175 500 c 0x2010
 175 524 194 543 218 543 c 0x1002
 241 543 260 525 261 502 c 1
 262 525 281 543 304 543 c 0x101080
 327 543 346 525 347 502 c 1
 348 525 367 543 390 543 c 0x100120
 414 543 432 524 432 500 c 0x100040
532 586 m 0x080004
 532 562 514 543 490 543 c 0x080010
 466 543 447 562 447 586 c 0x080004
 447 610 466 629 490 629 c 0x080010
 514 629 532 610 532 586 c 0x080004
275 586 m 0x0808
 275 562 256 543 232 543 c 0x1040
 208 543 190 562 190 586 c 0x1008
 190 610 208 629 232 629 c 0x0840
 256 629 275 610 275 586 c 0x0808
547 671 m 0x040002
 547 647 528 629 504 629 c 0x080008
 480 629 461 647 461 671 c 0x080002
 461 695 480 714 504 714 c 0x040008
 528 714 547 695 547 671 c 0x040002
290 671 m 0x0404
 290 647 271 629 247 629 c 0x0820
 223 629 204 647 204 671 c 0x0804
 204 695 223 714 247 714 c 0x0420
 271 714 290 695 290 671 c 0x0404
475 757 m 0x020020
 475 733 456 714 432 714 c 0x020040
 409 714 391 732 390 755 c 1x020080
 389 732 370 714 347 714 c 0
 324 714 305 732 304 755 c 1x020240
 303 732 284 714 261 714 c 0
 238 714 219 732 218 755 c 1x0481
 217 732 198 714 175 714 c 1x0210
 151 714 132 733 132 757 c 0x0280
 132 781 151 800 175 800 c 0x0210
 198 800 217 782 218 759 c 1
 219 782 238 800 261 800 c 1x0281
 284 800 303 782 304 759 c 1
 305 782 324 800 347 800 c 0x020240
 370 800 389 782 390 759 c 1x020080
 391 782 409 800 432 800 c 0x020040
 456 800 475 781 475 757 c 0x020020
EndSplineSet
EndChar

StartChar: E
Encoding: 69 69 40
Width: 522
VWidth: 0
UnlinkRmOvrlpSave: 1
Flags: W
HStem: 200 86<52.6424 126.448 137.784 212.216 223.784 298.216 309.784 384.216 395.552 469.358> 286 85<66.6424 141.358> 371 86<80.6424 155.358> 457 86<95.39 169.216 180.784 255.216 266.784 341.358> 543 86<109.642 184.358> 629 85<123.642 198.358> 714 86<137.642 212.216 223.784 298.216 309.784 384.216 395.552 469.216 480.784 555.358>
VStem: 47 85<205.642 241 245 280.358> 61 86<291.642 365.61> 75 86<376.642 451.358> 90 85<462.853 498 502 537.147> 104 86<548.642 623.358> 118 86<634.39 708.358> 132 86<205.853 241 245 280.147 719.853 755 759 794.147> 175 86<462.853 498 502 537.147> 218 86<205.853 241 245 280.147 719.853 755 759 794.147> 261 86<462.853 498 502 537.147> 390 85<205.642 241 245 280.358 719.853 755 759 794.147>
LayerCount: 2
Back
Fore
SplineSet
475 243 m 0x8000c0
 475 219 456 200 432 200 c 0
 409 200 391 218 390 241 c 1
 389 218 370 200 347 200 c 0x8000c0
 324 200 305 218 304 241 c 1x800140
 303 218 284 200 261 200 c 0
 238 200 219 218 218 241 c 1x8004c0
 217 218 198 200 175 200 c 0
 152 200 133 218 132 241 c 1x810240
 131 218 113 200 90 200 c 1x802040
 66 200 47 219 47 243 c 0x810040
 47 267 66 286 90 286 c 0x802040
 113 286 131 268 132 245 c 1
 133 268 152 286 175 286 c 1x810240
 198 286 217 268 218 245 c 1
 219 268 238 286 261 286 c 0x8004c0
 284 286 303 268 304 245 c 1x800140
 305 268 324 286 347 286 c 0
 370 286 389 268 390 245 c 1
 391 268 409 286 432 286 c 0
 456 286 475 267 475 243 c 0x8000c0
147 329 m 0x408040
 147 305 128 286 104 286 c 0x801040
 80 286 61 305 61 329 c 0x808040
 61 353 80 371 104 371 c 0x401040
 128 371 147 353 147 329 c 0x408040
161 414 m 0x204040
 161 390 142 371 118 371 c 0x400840
 94 371 75 390 75 414 c 0x404040
 75 438 94 457 118 457 c 0x200840
 142 457 161 438 161 414 c 0x204040
347 500 m 0x1000c0
 347 476 328 457 304 457 c 0x100140
 281 457 262 475 261 498 c 1x100240
 260 475 241 457 218 457 c 0
 195 457 176 475 175 498 c 1x102140
 174 475 155 457 132 457 c 1x200440
 108 457 90 476 90 500 c 0x202040
 90 524 108 543 132 543 c 0x100440
 155 543 174 525 175 502 c 1
 176 525 195 543 218 543 c 1x102140
 241 543 260 525 261 502 c 1x100240
 262 525 281 543 304 543 c 0x100140
 328 543 347 524 347 500 c 0x1000c0
190 586 m 0x081040
 190 562 171 543 147 543 c 0x108040
 123 543 104 562 104 586 c 0x101040
 104 610 123 629 147 629 c 0x088040
 171 629 190 610 190 586 c 0x081040
204 671 m 0x040840
 204 647 185 629 161 629 c 0x084040
 137 629 118 647 118 671 c 0x080840
 118 695 137 714 161 714 c 0x044040
 185 714 204 695 204 671 c 0x040840
561 757 m 0
 561 733 542 714 518 714 c 0
 495 714 476 732 475 755 c 1
 474 732 455 714 432 714 c 0
 409 714 391 732 390 755 c 1
 389 732 370 714 347 714 c 0x0200c0
 324 714 305 732 304 755 c 1x020140
 303 732 284 714 261 714 c 0
 238 714 219 732 218 755 c 1x0204c0
 217 732 198 714 175 714 c 1x040240
 151 714 132 733 132 757 c 0x040440
 132 781 151 800 175 800 c 0x020240
 198 800 217 782 218 759 c 1
 219 782 238 800 261 800 c 1x0204c0
 284 800 303 782 304 759 c 1x020140
 305 782 324 800 347 800 c 0
 370 800 389 782 390 759 c 1
 391 782 409 800 432 800 c 0
 455 800 474 782 475 759 c 1
 476 782 495 800 518 800 c 0x0200c0
 542 800 561 781 561 757 c 0
EndSplineSet
EndChar

StartChar: D
Encoding: 68 68 41
Width: 522
VWidth: 0
UnlinkRmOvrlpSave: 1
Flags: W
HStem: 200 86<52.6424 126.448 137.784 212.216 223.784 298.216 309.784 384.358> 286 85<152.642 226.61 409.642 484.358> 371 86<166.642 241.358 423.642 498.358> 457 86<180.642 255.358 437.642 512.358> 543 86<195.39 269.358 452.642 526.61> 629 85<209.642 284.358 466.642 541.358> 714 86<137.642 212.216 223.784 298.216 309.784 384.216 395.552 469.358>
VStem: 47 85<205.642 241 245 280.358> 132 86<205.853 241 245 280.147 719.853 755 759 794.147> 147 85<291.642 365.61> 161 86<376.642 451.358> 175 86<462.642 537.358> 190 85<548.642 623.358> 204 86<634.39 708.358> 218 86<205.853 241 245 280.147 719.853 755 759 794.147> 304 86<205.853 241 245 280.147 719.853 755 759 794.147> 390 85<719.642 755 759 794.358> 404 86<291.642 365.61> 418 86<376.642 451.358> 432 86<462.642 537.358> 447 85<548.642 623.358> 461 86<634.39 708.358>
LayerCount: 2
Back
Fore
SplineSet
390 243 m 0x800280
 390 219 371 200 347 200 c 0
 324 200 305 218 304 241 c 1x800280
 303 218 284 200 261 200 c 0x8010
 238 200 219 218 218 241 c 1x8080
 217 218 198 200 175 200 c 0
 152 200 133 218 132 241 c 1
 131 218 113 200 90 200 c 1
 66 200 47 219 47 243 c 0
 47 267 66 286 90 286 c 0
 113 286 131 268 132 245 c 1
 133 268 152 286 175 286 c 1x8110
 198 286 217 268 218 245 c 1x8080
 219 268 238 286 261 286 c 0x8010
 284 286 303 268 304 245 c 1
 305 268 324 286 347 286 c 0
 371 286 390 267 390 243 c 0x800280
490 329 m 0x400040
 490 305 471 286 447 286 c 0x400008
 423 286 404 305 404 329 c 0x400040
 404 353 423 371 447 371 c 0x400008
 471 371 490 353 490 329 c 0x400040
232 329 m 0x4040
 232 305 214 286 190 286 c 0x8008
 166 286 147 305 147 329 c 0x8040
 147 353 166 371 190 371 c 0x4008
 214 371 232 353 232 329 c 0x4040
504 414 m 0x200020
 504 390 485 371 461 371 c 0x400004
 437 371 418 390 418 414 c 0x400020
 418 438 437 457 461 457 c 0x200004
 485 457 504 438 504 414 c 0x200020
247 414 m 0x2020
 247 390 228 371 204 371 c 0x4004
 180 371 161 390 161 414 c 0x4020
 161 438 180 457 204 457 c 0x2004
 228 457 247 438 247 414 c 0x2020
518 500 m 0x100010
 518 476 499 457 475 457 c 0x200080
 451 457 432 476 432 500 c 0x200010
 432 524 451 543 475 543 c 0x100080
 499 543 518 524 518 500 c 0x100010
261 500 m 0x1010
 261 476 242 457 218 457 c 0x2002
 194 457 175 476 175 500 c 0x2010
 175 524 194 543 218 543 c 0x1002
 242 543 261 524 261 500 c 0x1010
532 586 m 0x080008
 532 562 514 543 490 543 c 0x100040
 466 543 447 562 447 586 c 0x100008
 447 610 466 629 490 629 c 0x080040
 514 629 532 610 532 586 c 0x080008
275 586 m 0x0808
 275 562 256 543 232 543 c 0x1040
 208 543 190 562 190 586 c 0x1008
 190 610 208 629 232 629 c 0x0840
 256 629 275 610 275 586 c 0x0808
547 671 m 0x040004
 547 647 528 629 504 629 c 0x080020
 480 629 461 647 461 671 c 0x080004
 461 695 480 714 504 714 c 0x040020
 528 714 547 695 547 671 c 0x040004
290 671 m 0x0404
 290 647 271 629 247 629 c 0x0820
 223 629 204 647 204 671 c 0x0804
 204 695 223 714 247 714 c 0x0420
 271 714 290 695 290 671 c 0x0404
475 757 m 0x020080
 475 733 456 714 432 714 c 0
 409 714 391 732 390 755 c 1x020110
 389 732 370 714 347 714 c 0
 324 714 305 732 304 755 c 1x0202
 303 732 284 714 261 714 c 0x0410
 238 714 219 732 218 755 c 1x0480
 217 732 198 714 175 714 c 1x0210
 151 714 132 733 132 757 c 0x0280
 132 781 151 800 175 800 c 0x0210
 198 800 217 782 218 759 c 1x0280
 219 782 238 800 261 800 c 1x0210
 284 800 303 782 304 759 c 1x0202
 305 782 324 800 347 800 c 0
 370 800 389 782 390 759 c 1
 391 782 409 800 432 800 c 0x020110
 456 800 475 781 475 757 c 0x020080
EndSplineSet
EndChar

StartChar: G
Encoding: 71 71 42
Width: 522
VWidth: 0
UnlinkRmOvrlpSave: 1
Flags: W
HStem: 200 86<123.642 198.216 209.784 284.216 295.784 370.216 381.552 455.358> 286 85<52.6424 127.358 395.642 470.358> 371 86<66.6424 141.358 409.642 484.358> 457 86<81.39 155.358 338.642 412.448 423.784 498.358> 543 86<95.6424 170.358> 629 85<109.642 184.358> 714 86<209.642 284.216 295.784 370.216 381.552 455.216 466.784 541.358>
VStem: 47 86<291.642 365.61> 61 86<376.642 451.358> 76 85<462.642 537.358> 90 86<548.642 623.358> 104 86<634.39 708.358> 118 86<205.853 241 245 280.147> 204 86<205.853 241 245 280.147 719.853 755 759 794.147> 333 85<462.642 498 502 537.358> 376 85<205.642 241 245 280.358 719.853 755 759 794.147> 390 86<291.642 365.61> 404 86<376.642 451.358> 418 86<462.853 498 502 537.147>
LayerCount: 2
Back
Fore
SplineSet
461 243 m 0x8001
 461 219 442 200 418 200 c 0x800020
 395 200 377 218 376 241 c 1x8001
 375 218 356 200 333 200 c 0
 310 200 291 218 290 241 c 1x8006
 289 218 270 200 247 200 c 0
 224 200 205 218 204 241 c 1x8008
 203 218 184 200 161 200 c 0x8040
 137 200 118 219 118 243 c 0x8008
 118 267 137 286 161 286 c 0x8040
 184 286 203 268 204 245 c 1x8008
 205 268 224 286 247 286 c 0
 270 286 289 268 290 245 c 1
 291 268 310 286 333 286 c 0x8006
 356 286 375 268 376 245 c 1x8001
 377 268 395 286 418 286 c 0x800020
 442 286 461 267 461 243 c 0x8001
476 329 m 0x400080
 476 305 457 286 433 286 c 0x800080
 409 286 390 305 390 329 c 0
 390 353 409 371 433 371 c 0
 457 371 476 353 476 329 c 0x400080
133 329 m 0x41
 133 305 114 286 90 286 c 0x4020
 66 286 47 305 47 329 c 0x41
 47 353 66 371 90 371 c 0x4020
 114 371 133 353 133 329 c 0x41
490 414 m 0x200040
 490 390 471 371 447 371 c 0x400040
 423 371 404 390 404 414 c 0
 404 438 423 457 447 457 c 0
 471 457 490 438 490 414 c 0x200040
147 414 m 0x2080
 147 390 128 371 104 371 c 0x4010
 80 371 61 390 61 414 c 0x4080
 61 438 80 457 104 457 c 0x2010
 128 457 147 438 147 414 c 0x2080
504 500 m 0x100020
 504 476 485 457 461 457 c 0x2001
 438 457 419 475 418 498 c 1x2002
 417 475 399 457 376 457 c 0x1001
 352 457 333 476 333 500 c 0x1002
 333 524 352 543 376 543 c 0x1001
 399 543 417 525 418 502 c 1x1002
 419 525 438 543 461 543 c 0x1001
 485 543 504 524 504 500 c 0x100020
161 500 m 0x1040
 161 476 142 457 118 457 c 0x2008
 94 457 76 476 76 500 c 0x2040
 76 524 94 543 118 543 c 0x1008
 142 543 161 524 161 500 c 0x1040
176 586 m 0x0820
 176 562 157 543 133 543 c 0x11
 109 543 90 562 90 586 c 0x1020
 90 610 109 629 133 629 c 0x09
 157 629 176 610 176 586 c 0x0820
190 671 m 0x0410
 190 647 171 629 147 629 c 0x0880
 123 629 104 647 104 671 c 0x0810
 104 695 123 714 147 714 c 0x0480
 171 714 190 695 190 671 c 0x0410
547 757 m 0
 547 733 528 714 504 714 c 0x020020
 481 714 462 732 461 755 c 1x0201
 460 732 441 714 418 714 c 0x020020
 395 714 377 732 376 755 c 1x0201
 375 732 356 714 333 714 c 0
 310 714 291 732 290 755 c 1
 289 732 270 714 247 714 c 0
 223 714 204 733 204 757 c 0
 204 781 223 800 247 800 c 0
 270 800 289 782 290 759 c 1
 291 782 310 800 333 800 c 0x0206
 356 800 375 782 376 759 c 1x0201
 377 782 395 800 418 800 c 0x020020
 441 800 460 782 461 759 c 1x0201
 462 782 481 800 504 800 c 0x020020
 528 800 547 781 547 757 c 0
EndSplineSet
EndChar

StartChar: F
Encoding: 70 70 43
Width: 522
VWidth: 0
UnlinkRmOvrlpSave: 1
Flags: W
HStem: 200 86<52.6424 126.61> 286 85<66.6424 141.358> 371 86<80.6424 155.358> 457 86<95.39 169.216 180.784 255.216 266.784 341.358> 543 86<109.642 184.358> 629 85<123.642 198.358> 714 86<137.642 212.216 223.784 298.216 309.784 384.216 395.552 469.216 480.784 555.358>
VStem: 47 85<205.642 280.358> 61 86<291.642 365.61> 75 86<376.642 451.358> 90 85<462.853 498 502 537.147> 104 86<548.642 623.358> 118 86<634.39 708.358> 132 86<719.853 755 759 794.147> 175 86<462.853 498 502 537.147> 218 86<719.853 755 759 794.147> 261 86<462.853 498 502 537.147> 304 86<719.853 755 759 794.147> 390 85<719.853 755 759 794.147> 475 86<719.853 755 759 794.147>
LayerCount: 2
Back
Fore
SplineSet
132 243 m 0x81
 132 219 114 200 90 200 c 0x8020
 66 200 47 219 47 243 c 0x81
 47 267 66 286 90 286 c 0x8020
 114 286 132 267 132 243 c 0x81
147 329 m 0x4080
 147 305 128 286 104 286 c 0x8010
 80 286 61 305 61 329 c 0x8080
 61 353 80 371 104 371 c 0x4010
 128 371 147 353 147 329 c 0x4080
161 414 m 0x2040
 161 390 142 371 118 371 c 0x4008
 94 371 75 390 75 414 c 0x4040
 75 438 94 457 118 457 c 0x2008
 142 457 161 438 161 414 c 0x2040
347 500 m 0x100080
 347 476 328 457 304 457 c 0
 281 457 262 475 261 498 c 1x100240
 260 475 241 457 218 457 c 0
 195 457 176 475 175 498 c 1x1021
 174 475 155 457 132 457 c 1x2004
 108 457 90 476 90 500 c 0x2020
 90 524 108 543 132 543 c 0x1004
 155 543 174 525 175 502 c 1
 176 525 195 543 218 543 c 1x1021
 241 543 260 525 261 502 c 1
 262 525 281 543 304 543 c 0x100240
 328 543 347 524 347 500 c 0x100080
190 586 m 0x0810
 190 562 171 543 147 543 c 0x1080
 123 543 104 562 104 586 c 0x1010
 104 610 123 629 147 629 c 0x0880
 171 629 190 610 190 586 c 0x0810
204 671 m 0x0408
 204 647 185 629 161 629 c 0x0840
 137 629 118 647 118 671 c 0x0808
 118 695 137 714 161 714 c 0x0440
 185 714 204 695 204 671 c 0x0408
561 757 m 0x020010
 561 733 542 714 518 714 c 0
 495 714 476 732 475 755 c 1x020020
 474 732 455 714 432 714 c 0
 409 714 391 732 390 755 c 1x020040
 389 732 370 714 347 714 c 0x020080
 324 714 305 732 304 755 c 1x0201
 303 732 284 714 261 714 c 0
 238 714 219 732 218 755 c 1x020480
 217 732 198 714 175 714 c 1x0402
 151 714 132 733 132 757 c 0x0404
 132 781 151 800 175 800 c 0x0202
 198 800 217 782 218 759 c 1
 219 782 238 800 261 800 c 1x020480
 284 800 303 782 304 759 c 1x0201
 305 782 324 800 347 800 c 0x020080
 370 800 389 782 390 759 c 1x020040
 391 782 409 800 432 800 c 0
 455 800 474 782 475 759 c 1x020020
 476 782 495 800 518 800 c 0
 542 800 561 781 561 757 c 0x020010
EndSplineSet
EndChar

StartChar: I
Encoding: 73 73 44
Width: 522
VWidth: 0
UnlinkRmOvrlpSave: 1
Flags: W
HStem: 200 86<52.6424 127.216 138.784 213.216 224.784 299.358> 286 85<152.642 227.358> 371 86<167.642 241.61> 457 86<181.642 256.358> 543 86<195.642 270.358> 629 85<210.39 284.358> 714 86<138.642 213.216 224.784 299.216 310.552 384.358>
VStem: 47 86<205.853 241 245 280.147> 133 86<205.853 241 245 280.147 719.853 755 759 794.147> 147 86<291.642 365.61> 162 85<376.642 451.358> 176 86<462.642 537.358> 190 86<548.642 623.358> 205 85<634.39 708.358> 219 86<205.853 241 245 280.147 719.853 755 759 794.147> 305 85<719.642 755 759 794.358>
LayerCount: 2
Back
Fore
SplineSet
305 243 m 0x8011
 305 219 286 200 262 200 c 0x8011
 239 200 220 218 219 241 c 1x8080
 218 218 199 200 176 200 c 0
 153 200 134 218 133 241 c 1
 132 218 113 200 90 200 c 0
 66 200 47 219 47 243 c 0
 47 267 66 286 90 286 c 0
 113 286 132 268 133 245 c 1
 134 268 153 286 176 286 c 0x8110
 199 286 218 268 219 245 c 1x8080
 220 268 239 286 262 286 c 0
 286 286 305 267 305 243 c 0x8011
233 329 m 0x4040
 233 305 214 286 190 286 c 0x8008
 166 286 147 305 147 329 c 0x8040
 147 353 166 371 190 371 c 0x4008
 214 371 233 353 233 329 c 0x4040
247 414 m 0x2020
 247 390 229 371 205 371 c 0x4004
 181 371 162 390 162 414 c 0x4020
 162 438 181 457 205 457 c 0x2004
 229 457 247 438 247 414 c 0x2020
262 500 m 0x1010
 262 476 243 457 219 457 c 0x2002
 195 457 176 476 176 500 c 0x2010
 176 524 195 543 219 543 c 0x1002
 243 543 262 524 262 500 c 0x1010
276 586 m 0x0808
 276 562 257 543 233 543 c 0x1040
 209 543 190 562 190 586 c 0x1008
 190 610 209 629 233 629 c 0x0840
 257 629 276 610 276 586 c 0x0808
290 671 m 0x0404
 290 647 271 629 247 629 c 0x0820
 223 629 205 647 205 671 c 0x0804
 205 695 223 714 247 714 c 0x0420
 271 714 290 695 290 671 c 0x0404
390 757 m 0x0201
 390 733 371 714 347 714 c 0
 324 714 306 732 305 755 c 1x0202
 304 732 285 714 262 714 c 0x0410
 239 714 220 732 219 755 c 1x0480
 218 732 199 714 176 714 c 0x0210
 152 714 133 733 133 757 c 0x0280
 133 781 152 800 176 800 c 0x0210
 199 800 218 782 219 759 c 1x0280
 220 782 239 800 262 800 c 0x0210
 285 800 304 782 305 759 c 1x0202
 306 782 324 800 347 800 c 0
 371 800 390 781 390 757 c 0x0201
EndSplineSet
EndChar

StartChar: H
Encoding: 72 72 45
Width: 522
VWidth: 0
UnlinkRmOvrlpSave: 1
Flags: W
HStem: 200 86<52.6424 126.61 395.39 469.358> 286 85<66.6424 141.358 409.642 484.358> 371 86<80.6424 155.358 423.642 498.358> 457 86<95.39 169.216 180.784 255.216 266.784 341.216 352.784 426.448 437.784 512.358> 543 86<109.642 184.358 452.642 526.61> 629 85<123.642 198.358 466.642 541.358> 714 86<137.642 212.358 480.642 555.358>
VStem: 47 85<205.642 280.358> 61 86<291.642 365.61> 75 86<376.642 451.358> 90 85<462.853 498 502 537.147> 104 86<548.642 623.358> 118 86<634.39 708.358> 132 86<719.642 794.358> 175 86<462.853 498 502 537.147> 261 86<462.853 498 502 537.147> 347 85<462.853 498 502 537.147> 390 85<205.642 280.358> 404 86<291.642 365.61> 418 86<376.642 451.358> 432 86<462.853 498 502 537.147> 447 85<548.642 623.358> 461 86<634.39 708.358> 475 86<719.642 794.358>
LayerCount: 2
Back
Fore
SplineSet
475 243 m 0x800040
 475 219 456 200 432 200 c 0x800008
 408 200 390 219 390 243 c 0x800040
 390 267 408 286 432 286 c 0x800008
 456 286 475 267 475 243 c 0x800040
132 243 m 0x81
 132 219 114 200 90 200 c 0x8020
 66 200 47 219 47 243 c 0x81
 47 267 66 286 90 286 c 0x8020
 114 286 132 267 132 243 c 0x81
490 329 m 0x400020
 490 305 471 286 447 286 c 0x800004
 423 286 404 305 404 329 c 0x800020
 404 353 423 371 447 371 c 0x400004
 471 371 490 353 490 329 c 0x400020
147 329 m 0x4080
 147 305 128 286 104 286 c 0x8010
 80 286 61 305 61 329 c 0x8080
 61 353 80 371 104 371 c 0x4010
 128 371 147 353 147 329 c 0x4080
504 414 m 0x200010
 504 390 485 371 461 371 c 0x400002
 437 371 418 390 418 414 c 0x400010
 418 438 437 457 461 457 c 0x200002
 485 457 504 438 504 414 c 0x200010
161 414 m 0x2040
 161 390 142 371 118 371 c 0x4008
 94 371 75 390 75 414 c 0x4040
 75 438 94 457 118 457 c 0x2008
 142 457 161 438 161 414 c 0x2040
518 500 m 0x100008
 518 476 499 457 475 457 c 0
 452 457 433 475 432 498 c 1x200081
 431 475 413 457 390 457 c 0
 367 457 348 475 347 498 c 1x100140
 346 475 327 457 304 457 c 0
 281 457 262 475 261 498 c 1x1002
 260 475 241 457 218 457 c 0x1004
 195 457 176 475 175 498 c 1x1020
 174 475 155 457 132 457 c 1x2004
 108 457 90 476 90 500 c 0x2020
 90 524 108 543 132 543 c 0x1004
 155 543 174 525 175 502 c 1x1020
 176 525 195 543 218 543 c 1x1004
 241 543 260 525 261 502 c 1x1002
 262 525 281 543 304 543 c 0
 327 543 346 525 347 502 c 1
 348 525 367 543 390 543 c 0x100140
 413 543 431 525 432 502 c 1
 433 525 452 543 475 543 c 0x100081
 499 543 518 524 518 500 c 0x100008
532 586 m 0x080004
 532 562 514 543 490 543 c 0x100020
 466 543 447 562 447 586 c 0x100004
 447 610 466 629 490 629 c 0x080020
 514 629 532 610 532 586 c 0x080004
190 586 m 0x0810
 190 562 171 543 147 543 c 0x1080
 123 543 104 562 104 586 c 0x1010
 104 610 123 629 147 629 c 0x0880
 171 629 190 610 190 586 c 0x0810
547 671 m 0x040002
 547 647 528 629 504 629 c 0x080010
 480 629 461 647 461 671 c 0x080002
 461 695 480 714 504 714 c 0x040010
 528 714 547 695 547 671 c 0x040002
204 671 m 0x0408
 204 647 185 629 161 629 c 0x0840
 137 629 118 647 118 671 c 0x0808
 118 695 137 714 161 714 c 0x0440
 185 714 204 695 204 671 c 0x0408
561 757 m 0x020001
 561 733 542 714 518 714 c 0x040008
 494 714 475 733 475 757 c 0x040001
 475 781 494 800 518 800 c 0x020008
 542 800 561 781 561 757 c 0x020001
218 757 m 0x0204
 218 733 199 714 175 714 c 0x0402
 151 714 132 733 132 757 c 0x0404
 132 781 151 800 175 800 c 0x0202
 199 800 218 781 218 757 c 0x0204
EndSplineSet
EndChar

StartChar: K
Encoding: 75 75 46
Width: 522
VWidth: 0
UnlinkRmOvrlpSave: 1
Flags: W
HStem: 200 86<52.6424 126.61 395.39 469.358> 286 85<66.6424 141.358 323.642 398.358> 371 86<80.6424 155.358 252.642 326.61> 457 86<95.39 169.216 180.784 255.358> 543 86<109.642 184.358 280.642 355.358> 629 85<123.642 198.358 380.642 455.358> 714 86<137.642 212.358 480.642 555.358>
VStem: 47 85<205.642 280.358> 61 86<291.642 365.61> 75 86<376.642 451.358> 90 85<462.853 498 502 537.147> 104 86<548.642 623.358> 118 86<634.39 708.358> 132 86<719.642 794.358> 175 86<462.853 498 502 537.147> 247 85<376.642 451.358> 275 86<548.642 623.358> 318 86<291.642 365.61> 375 86<634.39 708.358> 390 85<205.642 280.358> 475 86<719.642 794.358>
LayerCount: 2
Back
Fore
SplineSet
475 243 m 0x800010
 475 219 456 200 432 200 c 0
 408 200 390 219 390 243 c 0
 390 267 408 286 432 286 c 0
 456 286 475 267 475 243 c 0x800010
132 243 m 0x81
 132 219 114 200 90 200 c 0x8020
 66 200 47 219 47 243 c 0x81
 47 267 66 286 90 286 c 0x8020
 114 286 132 267 132 243 c 0x81
404 329 m 0x400040
 404 305 385 286 361 286 c 0x400080
 337 286 318 305 318 329 c 0x400040
 318 353 337 371 361 371 c 0x400080
 385 371 404 353 404 329 c 0x400040
147 329 m 0x4080
 147 305 128 286 104 286 c 0x8010
 80 286 61 305 61 329 c 0x8080
 61 353 80 371 104 371 c 0x4010
 128 371 147 353 147 329 c 0x4080
332 414 m 0x2001
 332 390 314 371 290 371 c 0
 266 371 247 390 247 414 c 0
 247 438 266 457 290 457 c 0
 314 457 332 438 332 414 c 0x2001
161 414 m 0x2040
 161 390 142 371 118 371 c 0x4008
 94 371 75 390 75 414 c 0x4040
 75 438 94 457 118 457 c 0x2008
 142 457 161 438 161 414 c 0x2040
261 500 m 0x1002
 261 476 242 457 218 457 c 0x1004
 195 457 176 475 175 498 c 1x1020
 174 475 155 457 132 457 c 1x2004
 108 457 90 476 90 500 c 0x2020
 90 524 108 543 132 543 c 0x1004
 155 543 174 525 175 502 c 1x1020
 176 525 195 543 218 543 c 1x1004
 242 543 261 524 261 500 c 0x1002
361 586 m 0x080080
 361 562 342 543 318 543 c 0x080040
 294 543 275 562 275 586 c 0x080080
 275 610 294 629 318 629 c 0x080040
 342 629 361 610 361 586 c 0x080080
190 586 m 0x0810
 190 562 171 543 147 543 c 0x1080
 123 543 104 562 104 586 c 0x1010
 104 610 123 629 147 629 c 0x0880
 171 629 190 610 190 586 c 0x0810
461 671 m 0x040020
 461 647 442 629 418 629 c 0
 394 629 375 647 375 671 c 0
 375 695 394 714 418 714 c 0
 442 714 461 695 461 671 c 0x040020
204 671 m 0x0408
 204 647 185 629 161 629 c 0x0840
 137 629 118 647 118 671 c 0x0808
 118 695 137 714 161 714 c 0x0440
 185 714 204 695 204 671 c 0x0408
561 757 m 0x020008
 561 733 542 714 518 714 c 0
 494 714 475 733 475 757 c 0
 475 781 494 800 518 800 c 0
 542 800 561 781 561 757 c 0x020008
218 757 m 0x0204
 218 733 199 714 175 714 c 0x0402
 151 714 132 733 132 757 c 0x0404
 132 781 151 800 175 800 c 0x0202
 199 800 218 781 218 757 c 0x0204
EndSplineSet
EndChar

StartChar: J
Encoding: 74 74 47
Width: 522
VWidth: 0
UnlinkRmOvrlpSave: 1
Flags: W
HStem: 200 86<123.642 198.216 209.784 284.216 295.784 370.358> 286 85<52.6424 127.358 395.642 470.358> 371 86<409.642 484.358> 457 86<423.642 498.358> 543 86<438.642 512.61> 629 85<452.642 527.358> 714 86<466.642 541.358>
VStem: 47 86<291.642 365.61> 118 86<205.853 241 245 280.147> 204 86<205.853 241 245 280.147> 290 86<205.853 241 245 280.147> 390 86<291.642 365.61> 404 86<376.642 451.358> 418 86<462.642 537.358> 433 85<548.642 623.358> 447 86<634.39 708.358> 461 86<719.642 794.358>
LayerCount: 2
Back
Fore
SplineSet
376 243 m 0x8020
 376 219 357 200 333 200 c 0
 310 200 291 218 290 241 c 1x8040
 289 218 270 200 247 200 c 0
 224 200 205 218 204 241 c 1
 203 218 184 200 161 200 c 0
 137 200 118 219 118 243 c 0
 118 267 137 286 161 286 c 0
 184 286 203 268 204 245 c 1x8080
 205 268 224 286 247 286 c 0
 270 286 289 268 290 245 c 1x8040
 291 268 310 286 333 286 c 0
 357 286 376 267 376 243 c 0x8020
476 329 m 0x4010
 476 305 457 286 433 286 c 0x4002
 409 286 390 305 390 329 c 0x4010
 390 353 409 371 433 371 c 0x4002
 457 371 476 353 476 329 c 0x4010
133 329 m 0x41
 133 305 114 286 90 286 c 0
 66 286 47 305 47 329 c 0
 47 353 66 371 90 371 c 0
 114 371 133 353 133 329 c 0x41
490 414 m 0x2008
 490 390 471 371 447 371 c 0x4001
 423 371 404 390 404 414 c 0x4008
 404 438 423 457 447 457 c 0x2001
 471 457 490 438 490 414 c 0x2008
504 500 m 0x1004
 504 476 485 457 461 457 c 0x200080
 437 457 418 476 418 500 c 0x2004
 418 524 437 543 461 543 c 0x100080
 485 543 504 524 504 500 c 0x1004
518 586 m 0x0802
 518 562 500 543 476 543 c 0x1010
 452 543 433 562 433 586 c 0x1002
 433 610 452 629 476 629 c 0x0810
 500 629 518 610 518 586 c 0x0802
533 671 m 0x0401
 533 647 514 629 490 629 c 0x0808
 466 629 447 647 447 671 c 0x0801
 447 695 466 714 490 714 c 0x0408
 514 714 533 695 533 671 c 0x0401
547 757 m 0x020080
 547 733 528 714 504 714 c 0x0404
 480 714 461 733 461 757 c 0x040080
 461 781 480 800 504 800 c 0x0204
 528 800 547 781 547 757 c 0x020080
EndSplineSet
EndChar

StartChar: M
Encoding: 77 77 48
Width: 522
VWidth: 0
UnlinkRmOvrlpSave: 1
Flags: W
HStem: 200 86<52.6424 126.61 395.39 469.358> 286 85<66.6424 141.358 409.642 484.358> 371 86<80.6424 155.358 423.642 498.358> 457 86<95.39 169.358 266.642 341.358 437.642 512.358> 543 86<109.642 184.358 280.642 355.358 452.642 526.61> 629 85<123.642 198.716 209.284 284.358 380.642 455.716 466.284 541.358> 714 86<137.642 212.358 480.642 555.358>
VStem: 47 85<205.642 280.358> 61 86<291.642 365.61> 75 86<376.642 451.358> 90 85<462.642 537.358> 104 86<548.642 623.358> 118 86<634.58 669 674 708.358> 132 86<719.642 794.358> 204 86<634.58 669 674 708.358> 261 86<462.642 537.358> 275 86<548.642 623.358> 375 86<634.58 669 674 708.358> 390 85<205.642 280.358> 404 86<291.642 365.61> 418 86<376.642 451.358> 432 86<462.642 537.358> 447 85<548.642 623.358> 461 86<634.58 669 674 708.358> 475 86<719.642 794.358>
LayerCount: 2
Back
Fore
SplineSet
475 243 m 0x800020
 475 219 456 200 432 200 c 0x800004
 408 200 390 219 390 243 c 0x800020
 390 267 408 286 432 286 c 0x800004
 456 286 475 267 475 243 c 0x800020
132 243 m 0x81
 132 219 114 200 90 200 c 0x8020
 66 200 47 219 47 243 c 0x81
 47 267 66 286 90 286 c 0x8020
 114 286 132 267 132 243 c 0x81
490 329 m 0x400010
 490 305 471 286 447 286 c 0x800002
 423 286 404 305 404 329 c 0x800010
 404 353 423 371 447 371 c 0x400002
 471 371 490 353 490 329 c 0x400010
147 329 m 0x4080
 147 305 128 286 104 286 c 0x8010
 80 286 61 305 61 329 c 0x8080
 61 353 80 371 104 371 c 0x4010
 128 371 147 353 147 329 c 0x4080
504 414 m 0x200008
 504 390 485 371 461 371 c 0x400001
 437 371 418 390 418 414 c 0x400008
 418 438 437 457 461 457 c 0x200001
 485 457 504 438 504 414 c 0x200008
161 414 m 0x2040
 161 390 142 371 118 371 c 0x4008
 94 371 75 390 75 414 c 0x4040
 75 438 94 457 118 457 c 0x2008
 142 457 161 438 161 414 c 0x2040
518 500 m 0x100004
 518 476 499 457 475 457 c 0x20000080
 451 457 432 476 432 500 c 0x200004
 432 524 451 543 475 543 c 0x10000080
 499 543 518 524 518 500 c 0x100004
347 500 m 0x1001
 347 476 328 457 304 457 c 0
 280 457 261 476 261 500 c 0
 261 524 280 543 304 543 c 0
 328 543 347 524 347 500 c 0x1001
175 500 m 0x1020
 175 476 156 457 132 457 c 0x2004
 108 457 90 476 90 500 c 0x2020
 90 524 108 543 132 543 c 0x1004
 156 543 175 524 175 500 c 0x1020
532 586 m 0x080002
 532 562 514 543 490 543 c 0x100010
 466 543 447 562 447 586 c 0x100002
 447 610 466 629 490 629 c 0x080010
 514 629 532 610 532 586 c 0x080002
361 586 m 0x080080
 361 562 342 543 318 543 c 0x100080
 294 543 275 562 275 586 c 0
 275 610 294 629 318 629 c 0
 342 629 361 610 361 586 c 0x080080
190 586 m 0x0810
 190 562 171 543 147 543 c 0x1080
 123 543 104 562 104 586 c 0x1010
 104 610 123 629 147 629 c 0x0880
 171 629 190 610 190 586 c 0x0810
547 671 m 0x040001
 547 647 528 629 504 629 c 0x080008
 481 629 462 646 461 669 c 1x080040
 460 646 441 629 418 629 c 0x040008
 394 629 375 647 375 671 c 0x040040
 375 695 394 714 418 714 c 0x040008
 441 714 460 697 461 674 c 1x040040
 462 697 481 714 504 714 c 0x040008
 528 714 547 695 547 671 c 0x040001
290 671 m 0x0402
 290 647 271 629 247 629 c 0
 224 629 205 646 204 669 c 1x0408
 203 646 184 629 161 629 c 1x0840
 137 629 118 647 118 671 c 0x0808
 118 695 137 714 161 714 c 0x0440
 184 714 203 697 204 674 c 1x0408
 205 697 224 714 247 714 c 1
 271 714 290 695 290 671 c 0x0402
561 757 m 0x02000080
 561 733 542 714 518 714 c 0x040004
 494 714 475 733 475 757 c 0x04000080
 475 781 494 800 518 800 c 0x020004
 542 800 561 781 561 757 c 0x02000080
218 757 m 0x0204
 218 733 199 714 175 714 c 0x0420
 151 714 132 733 132 757 c 0x0404
 132 781 151 800 175 800 c 0x0220
 199 800 218 781 218 757 c 0x0204
EndSplineSet
EndChar

StartChar: L
Encoding: 76 76 49
Width: 522
VWidth: 0
UnlinkRmOvrlpSave: 1
Flags: W
HStem: 200 86<52.6424 126.448 137.784 212.216 223.784 298.216 309.784 384.216 395.552 469.358> 286 85<66.6424 141.358> 371 86<80.6424 155.358> 457 86<95.39 169.358> 543 86<109.642 184.358> 629 85<123.642 198.358> 714 86<137.642 212.358>
VStem: 47 85<205.642 241 245 280.358> 61 86<291.642 365.61> 75 86<376.642 451.358> 90 85<462.642 537.358> 104 86<548.642 623.358> 118 86<634.39 708.358> 132 86<205.853 241 245 280.147 719.642 794.358> 218 86<205.853 241 245 280.147> 304 86<205.853 241 245 280.147> 390 85<205.642 241 245 280.358>
LayerCount: 2
Back
Fore
SplineSet
475 243 m 0x800080
 475 219 456 200 432 200 c 0
 409 200 391 218 390 241 c 1x8001
 389 218 370 200 347 200 c 0
 324 200 305 218 304 241 c 1x8002
 303 218 284 200 261 200 c 0
 238 200 219 218 218 241 c 1x8004
 217 218 198 200 175 200 c 0x8020
 152 200 133 218 132 241 c 1x81
 131 218 113 200 90 200 c 1x8020
 66 200 47 219 47 243 c 0x81
 47 267 66 286 90 286 c 0x8020
 113 286 131 268 132 245 c 1x81
 133 268 152 286 175 286 c 1x8020
 198 286 217 268 218 245 c 1x8004
 219 268 238 286 261 286 c 0
 284 286 303 268 304 245 c 1x8002
 305 268 324 286 347 286 c 0
 370 286 389 268 390 245 c 1x8001
 391 268 409 286 432 286 c 0
 456 286 475 267 475 243 c 0x800080
147 329 m 0x4080
 147 305 128 286 104 286 c 0x8010
 80 286 61 305 61 329 c 0x8080
 61 353 80 371 104 371 c 0x4010
 128 371 147 353 147 329 c 0x4080
161 414 m 0x2040
 161 390 142 371 118 371 c 0x4008
 94 371 75 390 75 414 c 0x4040
 75 438 94 457 118 457 c 0x2008
 142 457 161 438 161 414 c 0x2040
175 500 m 0x1020
 175 476 156 457 132 457 c 0x2004
 108 457 90 476 90 500 c 0x2020
 90 524 108 543 132 543 c 0x1004
 156 543 175 524 175 500 c 0x1020
190 586 m 0x0810
 190 562 171 543 147 543 c 0x1080
 123 543 104 562 104 586 c 0x1010
 104 610 123 629 147 629 c 0x0880
 171 629 190 610 190 586 c 0x0810
204 671 m 0x0408
 204 647 185 629 161 629 c 0x0840
 137 629 118 647 118 671 c 0x0808
 118 695 137 714 161 714 c 0x0440
 185 714 204 695 204 671 c 0x0408
218 757 m 0x0204
 218 733 199 714 175 714 c 0x0420
 151 714 132 733 132 757 c 0x0404
 132 781 151 800 175 800 c 0x0220
 199 800 218 781 218 757 c 0x0204
EndSplineSet
EndChar

StartChar: O
Encoding: 79 79 50
Width: 522
VWidth: 0
UnlinkRmOvrlpSave: 1
Flags: W
HStem: 200 86<52.6424 126.448 137.784 212.216 223.784 298.216 309.784 384.216 395.552 469.358> 286 85<66.6424 141.358 409.642 484.358> 371 86<80.6424 155.358 423.642 498.358> 457 86<95.39 169.358 437.642 512.358> 543 86<109.642 184.358 452.642 526.61> 629 85<123.642 198.358 466.642 541.358> 714 86<137.642 212.216 223.784 298.216 309.784 384.216 395.552 469.216 480.784 555.358>
VStem: 47 85<205.642 241 245 280.358> 61 86<291.642 365.61> 75 86<376.642 451.358> 90 85<462.642 537.358> 104 86<548.642 623.358> 118 86<634.39 708.358> 132 86<205.853 241 245 280.147 719.853 755 759 794.147> 218 86<205.853 241 245 280.147 719.853 755 759 794.147> 390 85<205.642 241 245 280.358 719.853 755 759 794.147> 404 86<291.642 365.61> 418 86<376.642 451.358> 432 86<462.642 537.358> 447 85<548.642 623.358> 461 86<634.39 708.358>
LayerCount: 2
Back
Fore
SplineSet
475 243 m 0x8001
 475 219 456 200 432 200 c 0x800020
 409 200 391 218 390 241 c 1
 389 218 370 200 347 200 c 0
 324 200 305 218 304 241 c 1x8003
 303 218 284 200 261 200 c 0
 238 200 219 218 218 241 c 1x8004
 217 218 198 200 175 200 c 0x8020
 152 200 133 218 132 241 c 1x81
 131 218 113 200 90 200 c 1x8020
 66 200 47 219 47 243 c 0x81
 47 267 66 286 90 286 c 0x8020
 113 286 131 268 132 245 c 1x81
 133 268 152 286 175 286 c 1x8020
 198 286 217 268 218 245 c 1x8004
 219 268 238 286 261 286 c 0
 284 286 303 268 304 245 c 1
 305 268 324 286 347 286 c 0
 370 286 389 268 390 245 c 1x8003
 391 268 409 286 432 286 c 0x800020
 456 286 475 267 475 243 c 0x8001
490 329 m 0x400080
 490 305 471 286 447 286 c 0x800010
 423 286 404 305 404 329 c 0x800080
 404 353 423 371 447 371 c 0x400010
 471 371 490 353 490 329 c 0x400080
147 329 m 0x4080
 147 305 128 286 104 286 c 0x8010
 80 286 61 305 61 329 c 0x8080
 61 353 80 371 104 371 c 0x4010
 128 371 147 353 147 329 c 0x4080
504 414 m 0x200040
 504 390 485 371 461 371 c 0x400008
 437 371 418 390 418 414 c 0x400040
 418 438 437 457 461 457 c 0x200008
 485 457 504 438 504 414 c 0x200040
161 414 m 0x2040
 161 390 142 371 118 371 c 0x4008
 94 371 75 390 75 414 c 0x4040
 75 438 94 457 118 457 c 0x2008
 142 457 161 438 161 414 c 0x2040
518 500 m 0x100020
 518 476 499 457 475 457 c 0x2001
 451 457 432 476 432 500 c 0x200020
 432 524 451 543 475 543 c 0x1001
 499 543 518 524 518 500 c 0x100020
175 500 m 0x1020
 175 476 156 457 132 457 c 0x2004
 108 457 90 476 90 500 c 0x2020
 90 524 108 543 132 543 c 0x1004
 156 543 175 524 175 500 c 0x1020
532 586 m 0x080010
 532 562 514 543 490 543 c 0x100080
 466 543 447 562 447 586 c 0x100010
 447 610 466 629 490 629 c 0x080080
 514 629 532 610 532 586 c 0x080010
190 586 m 0x0810
 190 562 171 543 147 543 c 0x1080
 123 543 104 562 104 586 c 0x1010
 104 610 123 629 147 629 c 0x0880
 171 629 190 610 190 586 c 0x0810
547 671 m 0x040008
 547 647 528 629 504 629 c 0x080040
 480 629 461 647 461 671 c 0x080008
 461 695 480 714 504 714 c 0x040040
 528 714 547 695 547 671 c 0x040008
204 671 m 0x0408
 204 647 185 629 161 629 c 0x0840
 137 629 118 647 118 671 c 0x0808
 118 695 137 714 161 714 c 0x0440
 185 714 204 695 204 671 c 0x0408
561 757 m 0
 561 733 542 714 518 714 c 0x040020
 495 714 476 732 475 755 c 1x0401
 474 732 455 714 432 714 c 0x020020
 409 714 391 732 390 755 c 1
 389 732 370 714 347 714 c 0
 324 714 305 732 304 755 c 1x0203
 303 732 284 714 261 714 c 0
 238 714 219 732 218 755 c 1x0204
 217 732 198 714 175 714 c 1x0420
 151 714 132 733 132 757 c 0x0404
 132 781 151 800 175 800 c 0x0220
 198 800 217 782 218 759 c 1x0204
 219 782 238 800 261 800 c 1
 284 800 303 782 304 759 c 1
 305 782 324 800 347 800 c 0
 370 800 389 782 390 759 c 1x0203
 391 782 409 800 432 800 c 0x020020
 455 800 474 782 475 759 c 1x0201
 476 782 495 800 518 800 c 0x020020
 542 800 561 781 561 757 c 0
EndSplineSet
EndChar

StartChar: N
Encoding: 78 78 51
Width: 522
VWidth: 0
UnlinkRmOvrlpSave: 1
Flags: W
HStem: 200 86<52.6424 126.61 395.39 469.358> 286 85<66.6424 141.358 409.642 484.358> 371 86<80.6424 155.358 423.642 498.358> 457 86<95.39 169.358 352.642 426.448 437.784 512.358> 543 86<109.642 184.358 280.642 355.358 452.642 526.61> 629 85<123.642 198.716 209.284 284.358 466.642 541.358> 714 86<137.642 212.358 480.642 555.358>
VStem: 47 85<205.642 280.358> 61 86<291.642 365.61> 75 86<376.642 451.358> 90 85<462.642 537.358> 104 86<548.642 623.358> 118 86<634.58 669 674 708.358> 132 86<719.642 794.358> 204 86<634.58 669 674 708.358> 275 86<548.642 623.358> 347 85<462.642 498 502 537.358> 390 85<205.642 280.358> 404 86<291.642 365.61> 418 86<376.642 451.358> 432 86<462.853 498 502 537.147> 447 85<548.642 623.358> 461 86<634.39 708.358> 475 86<719.642 794.358>
LayerCount: 2
Back
Fore
SplineSet
475 243 m 0x800040
 475 219 456 200 432 200 c 0x800008
 408 200 390 219 390 243 c 0x800040
 390 267 408 286 432 286 c 0x800008
 456 286 475 267 475 243 c 0x800040
132 243 m 0x81
 132 219 114 200 90 200 c 0x8020
 66 200 47 219 47 243 c 0x81
 47 267 66 286 90 286 c 0x8020
 114 286 132 267 132 243 c 0x81
490 329 m 0x400020
 490 305 471 286 447 286 c 0x800004
 423 286 404 305 404 329 c 0x800020
 404 353 423 371 447 371 c 0x400004
 471 371 490 353 490 329 c 0x400020
147 329 m 0x4080
 147 305 128 286 104 286 c 0x8010
 80 286 61 305 61 329 c 0x8080
 61 353 80 371 104 371 c 0x4010
 128 371 147 353 147 329 c 0x4080
504 414 m 0x200010
 504 390 485 371 461 371 c 0x400002
 437 371 418 390 418 414 c 0x400010
 418 438 437 457 461 457 c 0x200002
 485 457 504 438 504 414 c 0x200010
161 414 m 0x2040
 161 390 142 371 118 371 c 0x4008
 94 371 75 390 75 414 c 0x4040
 75 438 94 457 118 457 c 0x2008
 142 457 161 438 161 414 c 0x2040
518 500 m 0x100008
 518 476 499 457 475 457 c 0
 452 457 433 475 432 498 c 1x200081
 431 475 413 457 390 457 c 0x100040
 366 457 347 476 347 500 c 0x100080
 347 524 366 543 390 543 c 0x100040
 413 543 431 525 432 502 c 1
 433 525 452 543 475 543 c 0x100081
 499 543 518 524 518 500 c 0x100008
175 500 m 0x1020
 175 476 156 457 132 457 c 0x2004
 108 457 90 476 90 500 c 0x2020
 90 524 108 543 132 543 c 0x1004
 156 543 175 524 175 500 c 0x1020
532 586 m 0x080004
 532 562 514 543 490 543 c 0x100020
 466 543 447 562 447 586 c 0x100004
 447 610 466 629 490 629 c 0x080020
 514 629 532 610 532 586 c 0x080004
361 586 m 0x0801
 361 562 342 543 318 543 c 0
 294 543 275 562 275 586 c 0
 275 610 294 629 318 629 c 0
 342 629 361 610 361 586 c 0x0801
190 586 m 0x0810
 190 562 171 543 147 543 c 0x1080
 123 543 104 562 104 586 c 0x1010
 104 610 123 629 147 629 c 0x0880
 171 629 190 610 190 586 c 0x0810
547 671 m 0x040002
 547 647 528 629 504 629 c 0x080010
 480 629 461 647 461 671 c 0x080002
 461 695 480 714 504 714 c 0x040010
 528 714 547 695 547 671 c 0x040002
290 671 m 0x0402
 290 647 271 629 247 629 c 0
 224 629 205 646 204 669 c 1x0408
 203 646 184 629 161 629 c 1x0840
 137 629 118 647 118 671 c 0x0808
 118 695 137 714 161 714 c 0x0440
 184 714 203 697 204 674 c 1x0408
 205 697 224 714 247 714 c 1
 271 714 290 695 290 671 c 0x0402
561 757 m 0x020001
 561 733 542 714 518 714 c 0x040008
 494 714 475 733 475 757 c 0x040001
 475 781 494 800 518 800 c 0x020008
 542 800 561 781 561 757 c 0x020001
218 757 m 0x0204
 218 733 199 714 175 714 c 0x0420
 151 714 132 733 132 757 c 0x0404
 132 781 151 800 175 800 c 0x0220
 199 800 218 781 218 757 c 0x0204
EndSplineSet
EndChar

StartChar: Q
Encoding: 81 81 52
Width: 522
VWidth: 0
UnlinkRmOvrlpSave: 1
Flags: W
HStem: 200 86<123.642 198.216 209.784 284.358 381.39 455.358> 286 85<52.6424 127.358 309.642 384.358> 371 86<66.6424 141.358 238.642 312.61 409.642 484.358> 457 86<81.39 155.358 423.642 498.358> 543 86<95.6424 170.358 438.642 512.61> 629 85<109.642 184.358 452.642 527.358> 714 86<209.642 284.216 295.784 370.216 381.552 455.358>
VStem: 47 86<291.642 365.61> 61 86<376.642 451.358> 76 85<462.642 537.358> 90 86<548.642 623.358> 104 86<634.39 708.358> 118 86<205.853 241 245 280.147> 204 86<205.853 241 245 280.147 719.853 755 759 794.147> 233 85<376.642 451.358> 304 86<291.642 365.61> 376 85<205.642 280.358 719.642 755 759 794.358> 404 86<376.642 451.358> 418 86<462.642 537.358> 433 85<548.642 623.358> 447 86<634.39 708.358>
LayerCount: 2
Back
Fore
SplineSet
461 243 m 0x800080
 461 219 442 200 418 200 c 0x800020
 394 200 376 219 376 243 c 0x800080
 376 267 394 286 418 286 c 0x800020
 442 286 461 267 461 243 c 0x800080
290 243 m 0x8004
 290 219 271 200 247 200 c 0
 224 200 205 218 204 241 c 1x8008
 203 218 184 200 161 200 c 0x8040
 137 200 118 219 118 243 c 0x8008
 118 267 137 286 161 286 c 0x8040
 184 286 203 268 204 245 c 1x8008
 205 268 224 286 247 286 c 0
 271 286 290 267 290 243 c 0x8004
390 329 m 0x4001
 390 305 371 286 347 286 c 0
 323 286 304 305 304 329 c 0
 304 353 323 371 347 371 c 0
 371 371 390 353 390 329 c 0x4001
133 329 m 0x41
 133 305 114 286 90 286 c 0x4020
 66 286 47 305 47 329 c 0x41
 47 353 66 371 90 371 c 0x4020
 114 371 133 353 133 329 c 0x41
490 414 m 0x200040
 490 390 471 371 447 371 c 0x200008
 423 371 404 390 404 414 c 0x200040
 404 438 423 457 447 457 c 0x200008
 471 457 490 438 490 414 c 0x200040
318 414 m 0x2002
 318 390 300 371 276 371 c 0
 252 371 233 390 233 414 c 0
 233 438 252 457 276 457 c 0
 300 457 318 438 318 414 c 0x2002
147 414 m 0x2080
 147 390 128 371 104 371 c 0x4010
 80 371 61 390 61 414 c 0x4080
 61 438 80 457 104 457 c 0x2010
 128 457 147 438 147 414 c 0x2080
504 500 m 0x100020
 504 476 485 457 461 457 c 0x200080
 437 457 418 476 418 500 c 0x200020
 418 524 437 543 461 543 c 0x100080
 485 543 504 524 504 500 c 0x100020
161 500 m 0x1040
 161 476 142 457 118 457 c 0x2008
 94 457 76 476 76 500 c 0x2040
 76 524 94 543 118 543 c 0x1008
 142 543 161 524 161 500 c 0x1040
518 586 m 0x080010
 518 562 500 543 476 543 c 0x100010
 452 543 433 562 433 586 c 0
 433 610 452 629 476 629 c 0
 500 629 518 610 518 586 c 0x080010
176 586 m 0x0820
 176 562 157 543 133 543 c 0x11
 109 543 90 562 90 586 c 0x1020
 90 610 109 629 133 629 c 0x09
 157 629 176 610 176 586 c 0x0820
533 671 m 0x040008
 533 647 514 629 490 629 c 0x080040
 466 629 447 647 447 671 c 0x080008
 447 695 466 714 490 714 c 0x040040
 514 714 533 695 533 671 c 0x040008
190 671 m 0x0410
 190 647 171 629 147 629 c 0x0880
 123 629 104 647 104 671 c 0x0810
 104 695 123 714 147 714 c 0x0480
 171 714 190 695 190 671 c 0x0410
461 757 m 0x020080
 461 733 442 714 418 714 c 0x020020
 395 714 377 732 376 755 c 1
 375 732 356 714 333 714 c 0
 310 714 291 732 290 755 c 1
 289 732 270 714 247 714 c 0
 223 714 204 733 204 757 c 0
 204 781 223 800 247 800 c 0
 270 800 289 782 290 759 c 1
 291 782 310 800 333 800 c 0
 356 800 375 782 376 759 c 1x020480
 377 782 395 800 418 800 c 0x020020
 442 800 461 781 461 757 c 0x020080
EndSplineSet
EndChar

StartChar: P
Encoding: 80 80 53
Width: 522
VWidth: 0
UnlinkRmOvrlpSave: 1
Flags: W
HStem: 200 86<52.6424 126.61> 286 85<66.6424 141.358> 371 86<80.6424 155.358> 457 86<95.39 169.216 180.784 255.216 266.784 341.216 352.784 426.61> 543 86<109.642 184.358 452.642 526.61> 629 85<123.642 198.358 466.642 541.358> 714 86<137.642 212.216 223.784 298.216 309.784 384.216 395.552 469.358>
VStem: 47 85<205.642 280.358> 61 86<291.642 365.61> 75 86<376.642 451.358> 90 85<462.853 498 502 537.147> 104 86<548.642 623.358> 118 86<634.39 708.358> 132 86<719.853 755 759 794.147> 175 86<462.853 498 502 537.147> 218 86<719.853 755 759 794.147> 261 86<462.853 498 502 537.147> 304 86<719.853 755 759 794.147> 347 85<462.853 498 502 537.147> 390 85<719.642 755 759 794.358> 447 85<548.642 623.358> 461 86<634.39 708.358>
LayerCount: 2
Back
Fore
SplineSet
132 243 m 0x81
 132 219 114 200 90 200 c 0x8020
 66 200 47 219 47 243 c 0x81
 47 267 66 286 90 286 c 0x8020
 114 286 132 267 132 243 c 0x81
147 329 m 0x4080
 147 305 128 286 104 286 c 0x8010
 80 286 61 305 61 329 c 0x8080
 61 353 80 371 104 371 c 0x4010
 128 371 147 353 147 329 c 0x4080
161 414 m 0x2040
 161 390 142 371 118 371 c 0x4008
 94 371 75 390 75 414 c 0x4040
 75 438 94 457 118 457 c 0x2008
 142 457 161 438 161 414 c 0x2040
432 500 m 0x100020
 432 476 414 457 390 457 c 0
 367 457 348 475 347 498 c 1x100090
 346 475 327 457 304 457 c 0
 281 457 262 475 261 498 c 1x100240
 260 475 241 457 218 457 c 0
 195 457 176 475 175 498 c 1x1021
 174 475 155 457 132 457 c 1x2004
 108 457 90 476 90 500 c 0x2020
 90 524 108 543 132 543 c 0x1004
 155 543 174 525 175 502 c 1
 176 525 195 543 218 543 c 1x1021
 241 543 260 525 261 502 c 1
 262 525 281 543 304 543 c 0x100240
 327 543 346 525 347 502 c 1
 348 525 367 543 390 543 c 0x100090
 414 543 432 524 432 500 c 0x100020
532 586 m 0x080008
 532 562 514 543 490 543 c 0
 466 543 447 562 447 586 c 0
 447 610 466 629 490 629 c 0
 514 629 532 610 532 586 c 0x080008
190 586 m 0x0810
 190 562 171 543 147 543 c 0x1080
 123 543 104 562 104 586 c 0x1010
 104 610 123 629 147 629 c 0x0880
 171 629 190 610 190 586 c 0x0810
547 671 m 0x040004
 547 647 528 629 504 629 c 0x080004
 480 629 461 647 461 671 c 0
 461 695 480 714 504 714 c 0
 528 714 547 695 547 671 c 0x040004
204 671 m 0x0408
 204 647 185 629 161 629 c 0x0840
 137 629 118 647 118 671 c 0x0808
 118 695 137 714 161 714 c 0x0440
 185 714 204 695 204 671 c 0x0408
475 757 m 0x020010
 475 733 456 714 432 714 c 0x020020
 409 714 391 732 390 755 c 1x020040
 389 732 370 714 347 714 c 0
 324 714 305 732 304 755 c 1x020120
 303 732 284 714 261 714 c 0
 238 714 219 732 218 755 c 1x020480
 217 732 198 714 175 714 c 1x0402
 151 714 132 733 132 757 c 0x0404
 132 781 151 800 175 800 c 0x0202
 198 800 217 782 218 759 c 1
 219 782 238 800 261 800 c 1x020480
 284 800 303 782 304 759 c 1
 305 782 324 800 347 800 c 0x020120
 370 800 389 782 390 759 c 1x020040
 391 782 409 800 432 800 c 0x020020
 456 800 475 781 475 757 c 0x020010
EndSplineSet
EndChar

StartChar: S
Encoding: 83 83 54
Width: 522
VWidth: 0
UnlinkRmOvrlpSave: 1
Flags: W
HStem: 200 86<123.642 198.216 209.784 284.216 295.784 370.358> 286 85<52.6424 127.358 395.642 470.358> 371 86<323.642 398.358> 457 86<252.642 327.358> 543 86<181.39 255.358> 629 85<109.642 184.358 452.642 527.358> 714 86<209.642 284.216 295.784 370.216 381.552 455.358>
VStem: 47 86<291.642 365.61> 104 86<634.39 708.358> 118 86<205.853 241 245 280.147> 176 85<548.642 623.358> 204 86<205.853 241 245 280.147 719.853 755 759 794.147> 247 86<462.642 537.358> 290 86<205.853 241 245 280.147 719.853 755 759 794.147> 318 86<376.642 451.358> 376 85<719.642 755 759 794.358> 390 86<291.642 365.61> 447 86<634.39 708.358>
LayerCount: 2
Back
Fore
SplineSet
376 243 m 0x8009
 376 219 357 200 333 200 c 0x8009
 310 200 291 218 290 241 c 1x8010
 289 218 270 200 247 200 c 0
 224 200 205 218 204 241 c 1
 203 218 184 200 161 200 c 0
 137 200 118 219 118 243 c 0
 118 267 137 286 161 286 c 0
 184 286 203 268 204 245 c 1
 205 268 224 286 247 286 c 0x8048
 270 286 289 268 290 245 c 1x8010
 291 268 310 286 333 286 c 0
 357 286 376 267 376 243 c 0x8009
476 329 m 0x400080
 476 305 457 286 433 286 c 0
 409 286 390 305 390 329 c 0
 390 353 409 371 433 371 c 0
 457 371 476 353 476 329 c 0x400080
133 329 m 0x41
 133 305 114 286 90 286 c 0
 66 286 47 305 47 329 c 0
 47 353 66 371 90 371 c 0
 114 371 133 353 133 329 c 0x41
404 414 m 0x2002
 404 390 385 371 361 371 c 0
 337 371 318 390 318 414 c 0
 318 438 337 457 361 457 c 0
 385 457 404 438 404 414 c 0x2002
333 500 m 0x1008
 333 476 314 457 290 457 c 0x1004
 266 457 247 476 247 500 c 0x1008
 247 524 266 543 290 543 c 0x1004
 314 543 333 524 333 500 c 0x1008
261 586 m 0x0820
 261 562 242 543 218 543 c 0
 194 543 176 562 176 586 c 0
 176 610 194 629 218 629 c 0
 242 629 261 610 261 586 c 0x0820
533 671 m 0x040040
 533 647 514 629 490 629 c 0
 466 629 447 647 447 671 c 0
 447 695 466 714 490 714 c 0
 514 714 533 695 533 671 c 0x040040
190 671 m 0x0480
 190 647 171 629 147 629 c 0
 123 629 104 647 104 671 c 0
 104 695 123 714 147 714 c 0
 171 714 190 695 190 671 c 0x0480
461 757 m 0x0201
 461 733 442 714 418 714 c 0
 395 714 377 732 376 755 c 1x0204
 375 732 356 714 333 714 c 0x0208
 310 714 291 732 290 755 c 1x0210
 289 732 270 714 247 714 c 0x0208
 223 714 204 733 204 757 c 0x0210
 204 781 223 800 247 800 c 0x0208
 270 800 289 782 290 759 c 1x0210
 291 782 310 800 333 800 c 0x0208
 356 800 375 782 376 759 c 1x0204
 377 782 395 800 418 800 c 0
 442 800 461 781 461 757 c 0x0201
EndSplineSet
EndChar

StartChar: R
Encoding: 82 82 55
Width: 522
VWidth: 0
UnlinkRmOvrlpSave: 1
Flags: W
HStem: 200 86<52.6424 126.61 395.39 469.358> 286 85<66.6424 141.358 323.642 398.358> 371 86<80.6424 155.358 252.642 326.61> 457 86<95.39 169.216 180.784 255.216 266.784 341.216 352.784 426.61> 543 86<109.642 184.358 452.642 526.61> 629 85<123.642 198.358 466.642 541.358> 714 86<137.642 212.216 223.784 298.216 309.784 384.216 395.552 469.358>
VStem: 47 85<205.642 280.358> 61 86<291.642 365.61> 75 86<376.642 451.358> 90 85<462.853 498 502 537.147> 104 86<548.642 623.358> 118 86<634.39 708.358> 132 86<719.853 755 759 794.147> 175 86<462.853 498 502 537.147> 218 86<719.853 755 759 794.147> 247 85<376.642 451.358> 261 86<462.853 498 502 537.147> 318 86<291.642 365.61> 347 85<462.853 498 502 537.147> 390 85<205.642 280.358 719.642 755 759 794.358> 447 85<548.642 623.358> 461 86<634.39 708.358>
LayerCount: 2
Back
Fore
SplineSet
475 243 m 0x800008
 475 219 456 200 432 200 c 0x800010
 408 200 390 219 390 243 c 0x800008
 390 267 408 286 432 286 c 0x800010
 456 286 475 267 475 243 c 0x800008
132 243 m 0x81
 132 219 114 200 90 200 c 0x8020
 66 200 47 219 47 243 c 0x81
 47 267 66 286 90 286 c 0x8020
 114 286 132 267 132 243 c 0x81
404 329 m 0x400020
 404 305 385 286 361 286 c 0
 337 286 318 305 318 329 c 0
 318 353 337 371 361 371 c 0
 385 371 404 353 404 329 c 0x400020
147 329 m 0x4080
 147 305 128 286 104 286 c 0x8010
 80 286 61 305 61 329 c 0x8080
 61 353 80 371 104 371 c 0x4010
 128 371 147 353 147 329 c 0x4080
332 414 m 0x200080
 332 390 314 371 290 371 c 0
 266 371 247 390 247 414 c 0
 247 438 266 457 290 457 c 0
 314 457 332 438 332 414 c 0x200080
161 414 m 0x2040
 161 390 142 371 118 371 c 0x4008
 94 371 75 390 75 414 c 0x4040
 75 438 94 457 118 457 c 0x2008
 142 457 161 438 161 414 c 0x2040
432 500 m 0x100010
 432 476 414 457 390 457 c 0
 367 457 348 475 347 498 c 1x100048
 346 475 327 457 304 457 c 0x2001
 281 457 262 475 261 498 c 1x2002
 260 475 241 457 218 457 c 0
 195 457 176 475 175 498 c 1x1021
 174 475 155 457 132 457 c 1x2004
 108 457 90 476 90 500 c 0x2020
 90 524 108 543 132 543 c 0x1004
 155 543 174 525 175 502 c 1
 176 525 195 543 218 543 c 1x1021
 241 543 260 525 261 502 c 1x1002
 262 525 281 543 304 543 c 0x1001
 327 543 346 525 347 502 c 1
 348 525 367 543 390 543 c 0x100048
 414 543 432 524 432 500 c 0x100010
532 586 m 0x080004
 532 562 514 543 490 543 c 0
 466 543 447 562 447 586 c 0
 447 610 466 629 490 629 c 0
 514 629 532 610 532 586 c 0x080004
190 586 m 0x0810
 190 562 171 543 147 543 c 0x1080
 123 543 104 562 104 586 c 0x1010
 104 610 123 629 147 629 c 0x0880
 171 629 190 610 190 586 c 0x0810
547 671 m 0x040002
 547 647 528 629 504 629 c 0x080002
 480 629 461 647 461 671 c 0
 461 695 480 714 504 714 c 0
 528 714 547 695 547 671 c 0x040002
204 671 m 0x0408
 204 647 185 629 161 629 c 0x0840
 137 629 118 647 118 671 c 0x0808
 118 695 137 714 161 714 c 0x0440
 185 714 204 695 204 671 c 0x0408
475 757 m 0x020008
 475 733 456 714 432 714 c 0x020010
 409 714 391 732 390 755 c 1x020008
 389 732 370 714 347 714 c 0
 324 714 305 732 304 755 c 1x020110
 303 732 284 714 261 714 c 0
 238 714 219 732 218 755 c 1x020440
 217 732 198 714 175 714 c 1x0402
 151 714 132 733 132 757 c 0x0404
 132 781 151 800 175 800 c 0x0202
 198 800 217 782 218 759 c 1
 219 782 238 800 261 800 c 1x020440
 284 800 303 782 304 759 c 1
 305 782 324 800 347 800 c 0x020110
 370 800 389 782 390 759 c 1x020008
 391 782 409 800 432 800 c 0x020010
 456 800 475 781 475 757 c 0x020008
EndSplineSet
EndChar

StartChar: U
Encoding: 85 85 56
Width: 522
VWidth: 0
UnlinkRmOvrlpSave: 1
Flags: W
HStem: 200 86<123.642 198.216 209.784 284.216 295.784 370.358> 286 85<52.6424 127.358 395.642 470.358> 371 86<66.6424 141.358 409.642 484.358> 457 86<81.39 155.358 423.642 498.358> 543 86<95.6424 170.358 438.642 512.61> 629 85<109.642 184.358 452.642 527.358> 714 86<123.642 198.358 466.642 541.358>
VStem: 47 86<291.642 365.61> 61 86<376.642 451.358> 76 85<462.642 537.358> 90 86<548.642 623.358> 104 86<634.39 708.358> 118 86<205.853 241 245 280.147 719.642 794.358> 204 86<205.853 241 245 280.147> 290 86<205.853 241 245 280.147> 390 86<291.642 365.61> 404 86<376.642 451.358> 418 86<462.642 537.358> 433 85<548.642 623.358> 447 86<634.39 708.358> 461 86<719.642 794.358>
LayerCount: 2
Back
Fore
SplineSet
376 243 m 0x8002
 376 219 357 200 333 200 c 0
 310 200 291 218 290 241 c 1x8004
 289 218 270 200 247 200 c 0
 224 200 205 218 204 241 c 1x8008
 203 218 184 200 161 200 c 0x8040
 137 200 118 219 118 243 c 0x8008
 118 267 137 286 161 286 c 0x8040
 184 286 203 268 204 245 c 1x8008
 205 268 224 286 247 286 c 0
 270 286 289 268 290 245 c 1x8004
 291 268 310 286 333 286 c 0
 357 286 376 267 376 243 c 0x8002
476 329 m 0x4001
 476 305 457 286 433 286 c 0x400020
 409 286 390 305 390 329 c 0x4001
 390 353 409 371 433 371 c 0x400020
 457 371 476 353 476 329 c 0x4001
133 329 m 0x41
 133 305 114 286 90 286 c 0x4020
 66 286 47 305 47 329 c 0x41
 47 353 66 371 90 371 c 0x4020
 114 371 133 353 133 329 c 0x41
490 414 m 0x200080
 490 390 471 371 447 371 c 0x400010
 423 371 404 390 404 414 c 0x400080
 404 438 423 457 447 457 c 0x200010
 471 457 490 438 490 414 c 0x200080
147 414 m 0x2080
 147 390 128 371 104 371 c 0x4010
 80 371 61 390 61 414 c 0x4080
 61 438 80 457 104 457 c 0x2010
 128 457 147 438 147 414 c 0x2080
504 500 m 0x100040
 504 476 485 457 461 457 c 0x200008
 437 457 418 476 418 500 c 0x200040
 418 524 437 543 461 543 c 0x100008
 485 543 504 524 504 500 c 0x100040
161 500 m 0x1040
 161 476 142 457 118 457 c 0x2008
 94 457 76 476 76 500 c 0x2040
 76 524 94 543 118 543 c 0x1008
 142 543 161 524 161 500 c 0x1040
518 586 m 0x080020
 518 562 500 543 476 543 c 0x1001
 452 543 433 562 433 586 c 0x100020
 433 610 452 629 476 629 c 0x0801
 500 629 518 610 518 586 c 0x080020
176 586 m 0x0820
 176 562 157 543 133 543 c 0x11
 109 543 90 562 90 586 c 0x1020
 90 610 109 629 133 629 c 0x09
 157 629 176 610 176 586 c 0x0820
533 671 m 0x040010
 533 647 514 629 490 629 c 0x080080
 466 629 447 647 447 671 c 0x080010
 447 695 466 714 490 714 c 0x040080
 514 714 533 695 533 671 c 0x040010
190 671 m 0x0410
 190 647 171 629 147 629 c 0x0880
 123 629 104 647 104 671 c 0x0810
 104 695 123 714 147 714 c 0x0480
 171 714 190 695 190 671 c 0x0410
547 757 m 0x020008
 547 733 528 714 504 714 c 0x040040
 480 714 461 733 461 757 c 0x040008
 461 781 480 800 504 800 c 0x020040
 528 800 547 781 547 757 c 0x020008
204 757 m 0x0208
 204 733 185 714 161 714 c 0x0440
 137 714 118 733 118 757 c 0x0408
 118 781 137 800 161 800 c 0x0240
 185 800 204 781 204 757 c 0x0208
EndSplineSet
EndChar

StartChar: T
Encoding: 84 84 57
Width: 522
VWidth: 0
UnlinkRmOvrlpSave: 1
Flags: W
HStem: 200 86<138.642 213.358> 286 85<152.642 227.358> 371 86<167.642 241.61> 457 86<181.642 256.358> 543 86<195.642 270.358> 629 85<210.39 284.358> 714 86<52.6424 127.216 138.784 213.216 224.784 299.216 310.552 384.216 395.784 470.358>
VStem: 133 86<205.642 280.358 719.853 755 759 794.147> 147 86<291.642 365.61> 162 85<376.642 451.358> 176 86<462.642 537.358> 190 86<548.642 623.358> 205 85<634.39 708.358> 305 85<719.853 755 759 794.147> 390 86<719.853 755 759 794.147>
LayerCount: 2
Back
Fore
SplineSet
219 243 m 0x81
 219 219 200 200 176 200 c 0x8020
 152 200 133 219 133 243 c 0x81
 133 267 152 286 176 286 c 0x8020
 200 286 219 267 219 243 c 0x81
233 329 m 0x4080
 233 305 214 286 190 286 c 0x8010
 166 286 147 305 147 329 c 0x8080
 147 353 166 371 190 371 c 0x4010
 214 371 233 353 233 329 c 0x4080
247 414 m 0x2040
 247 390 229 371 205 371 c 0x4008
 181 371 162 390 162 414 c 0x4040
 162 438 181 457 205 457 c 0x2008
 229 457 247 438 247 414 c 0x2040
262 500 m 0x1020
 262 476 243 457 219 457 c 0x21
 195 457 176 476 176 500 c 0x2020
 176 524 195 543 219 543 c 0x11
 243 543 262 524 262 500 c 0x1020
276 586 m 0x0810
 276 562 257 543 233 543 c 0x1080
 209 543 190 562 190 586 c 0x1010
 190 610 209 629 233 629 c 0x0880
 257 629 276 610 276 586 c 0x0810
290 671 m 0x0408
 290 647 271 629 247 629 c 0x0840
 223 629 205 647 205 671 c 0x0808
 205 695 223 714 247 714 c 0x0440
 271 714 290 695 290 671 c 0x0408
476 757 m 0x0202
 476 733 457 714 433 714 c 0
 410 714 391 732 390 755 c 1
 389 732 370 714 347 714 c 0x0204
 324 714 306 732 305 755 c 1
 304 732 285 714 262 714 c 0x0424
 239 714 220 732 219 755 c 1x05
 218 732 199 714 176 714 c 0x0220
 153 714 134 732 133 755 c 1
 132 732 113 714 90 714 c 1
 66 714 47 733 47 757 c 0
 47 781 66 800 90 800 c 0
 113 800 132 782 133 759 c 1x03
 134 782 153 800 176 800 c 1x0220
 199 800 218 782 219 759 c 1x03
 220 782 239 800 262 800 c 0
 285 800 304 782 305 759 c 1
 306 782 324 800 347 800 c 0
 370 800 389 782 390 759 c 1x0224
 391 782 410 800 433 800 c 0
 457 800 476 781 476 757 c 0x0202
EndSplineSet
EndChar

StartChar: W
Encoding: 87 87 58
Width: 522
VWidth: 0
UnlinkRmOvrlpSave: 1
Flags: W
HStem: 200 86<52.6424 126.61 395.39 469.358> 286 85<66.6424 141.716 152.284 226.61 323.642 398.716 409.284 484.358> 371 86<80.6424 155.358 252.642 326.61 423.642 498.358> 457 86<95.39 169.358 437.642 512.358> 543 86<109.642 184.358 452.642 526.61> 629 85<123.642 198.358 466.642 541.358> 714 86<137.642 212.358 480.642 555.358>
VStem: 47 85<205.642 280.358> 61 86<291.642 326 331 365.42> 75 86<376.642 451.358> 90 85<462.642 537.358> 104 86<548.642 623.358> 118 86<634.39 708.358> 132 86<719.642 794.358> 147 85<291.642 326 331 365.42> 247 85<376.642 451.358> 318 86<291.642 326 331 365.42> 390 85<205.642 280.358> 404 86<291.642 326 331 365.42> 418 86<376.642 451.358> 432 86<462.642 537.358> 447 85<548.642 623.358> 461 86<634.39 708.358> 475 86<719.642 794.358>
LayerCount: 2
Back
Fore
SplineSet
475 243 m 0x800040
 475 219 456 200 432 200 c 0x800008
 408 200 390 219 390 243 c 0x800040
 390 267 408 286 432 286 c 0x800008
 456 286 475 267 475 243 c 0x800040
132 243 m 0x81
 132 219 114 200 90 200 c 0x8020
 66 200 47 219 47 243 c 0x81
 47 267 66 286 90 286 c 0x8020
 114 286 132 267 132 243 c 0x81
490 329 m 0x400020
 490 305 471 286 447 286 c 0x800004
 424 286 405 303 404 326 c 1
 403 303 384 286 361 286 c 0
 337 286 318 305 318 329 c 0
 318 353 337 371 361 371 c 0
 384 371 403 354 404 331 c 1
 405 354 424 371 447 371 c 0x400084
 471 371 490 353 490 329 c 0x400020
232 329 m 0x4002
 232 305 214 286 190 286 c 0x4010
 167 286 148 303 147 326 c 1x4080
 146 303 127 286 104 286 c 0x8010
 80 286 61 305 61 329 c 0x8080
 61 353 80 371 104 371 c 0x4010
 127 371 146 354 147 331 c 1x4080
 148 354 167 371 190 371 c 0x4010
 214 371 232 353 232 329 c 0x4002
504 414 m 0x200010
 504 390 485 371 461 371 c 0x400002
 437 371 418 390 418 414 c 0x400010
 418 438 437 457 461 457 c 0x200002
 485 457 504 438 504 414 c 0x200010
332 414 m 0x2001
 332 390 314 371 290 371 c 0
 266 371 247 390 247 414 c 0
 247 438 266 457 290 457 c 0
 314 457 332 438 332 414 c 0x2001
161 414 m 0x2040
 161 390 142 371 118 371 c 0x4008
 94 371 75 390 75 414 c 0x4040
 75 438 94 457 118 457 c 0x2008
 142 457 161 438 161 414 c 0x2040
518 500 m 0x100008
 518 476 499 457 475 457 c 0x200001
 451 457 432 476 432 500 c 0x200008
 432 524 451 543 475 543 c 0x100001
 499 543 518 524 518 500 c 0x100008
175 500 m 0x1020
 175 476 156 457 132 457 c 0x2004
 108 457 90 476 90 500 c 0x2020
 90 524 108 543 132 543 c 0x1004
 156 543 175 524 175 500 c 0x1020
532 586 m 0x080004
 532 562 514 543 490 543 c 0x100020
 466 543 447 562 447 586 c 0x100004
 447 610 466 629 490 629 c 0x080020
 514 629 532 610 532 586 c 0x080004
190 586 m 0x0810
 190 562 171 543 147 543 c 0x1002
 123 543 104 562 104 586 c 0x1010
 104 610 123 629 147 629 c 0x0802
 171 629 190 610 190 586 c 0x0810
547 671 m 0x040002
 547 647 528 629 504 629 c 0x080010
 480 629 461 647 461 671 c 0x080002
 461 695 480 714 504 714 c 0x040010
 528 714 547 695 547 671 c 0x040002
204 671 m 0x0408
 204 647 185 629 161 629 c 0x0840
 137 629 118 647 118 671 c 0x0808
 118 695 137 714 161 714 c 0x0440
 185 714 204 695 204 671 c 0x0408
561 757 m 0x020001
 561 733 542 714 518 714 c 0x040008
 494 714 475 733 475 757 c 0x040001
 475 781 494 800 518 800 c 0x020008
 542 800 561 781 561 757 c 0x020001
218 757 m 0x0204
 218 733 199 714 175 714 c 0x0420
 151 714 132 733 132 757 c 0x0404
 132 781 151 800 175 800 c 0x0220
 199 800 218 781 218 757 c 0x0204
EndSplineSet
EndChar

StartChar: V
Encoding: 86 86 59
Width: 522
VWidth: 0
UnlinkRmOvrlpSave: 1
Flags: W
HStem: 200 86<166.642 241.358> 286 85<180.642 255.358> 371 86<109.642 184.358 280.642 355.358> 457 86<123.642 198.358 295.642 369.61> 543 86<52.6424 127.358 395.642 469.61> 629 85<66.6424 141.358 409.642 484.358> 714 86<80.6424 155.358 423.642 498.358>
VStem: 47 86<548.642 623.358> 61 86<634.39 708.358> 75 86<719.642 794.358> 104 86<376.642 451.358> 118 86<462.642 537.358> 161 86<205.642 280.358> 175 86<291.642 365.61> 275 86<376.642 451.358> 290 85<462.642 537.358> 390 85<548.642 623.358> 404 86<634.39 708.358> 418 86<719.642 794.358>
LayerCount: 2
Back
Fore
SplineSet
247 243 m 0x8008
 247 219 228 200 204 200 c 0x8010
 180 200 161 219 161 243 c 0x8008
 161 267 180 286 204 286 c 0x8010
 228 286 247 267 247 243 c 0x8008
261 329 m 0x4004
 261 305 242 286 218 286 c 0x8004
 194 286 175 305 175 329 c 0
 175 353 194 371 218 371 c 0
 242 371 261 353 261 329 c 0x4004
361 414 m 0x2002
 361 390 342 371 318 371 c 0
 294 371 275 390 275 414 c 0
 275 438 294 457 318 457 c 0
 342 457 361 438 361 414 c 0x2002
190 414 m 0x2020
 190 390 171 371 147 371 c 0x2080
 123 371 104 390 104 414 c 0x2020
 104 438 123 457 147 457 c 0x2080
 171 457 190 438 190 414 c 0x2020
375 500 m 0x1001
 375 476 357 457 333 457 c 0x2001
 309 457 290 476 290 500 c 0
 290 524 309 543 333 543 c 0
 357 543 375 524 375 500 c 0x1001
204 500 m 0x1010
 204 476 185 457 161 457 c 0x2008
 137 457 118 476 118 500 c 0x2010
 118 524 137 543 161 543 c 0x1008
 185 543 204 524 204 500 c 0x1010
475 586 m 0x080080
 475 562 457 543 433 543 c 0
 409 543 390 562 390 586 c 0
 390 610 409 629 433 629 c 0
 457 629 475 610 475 586 c 0x080080
133 586 m 0x09
 133 562 114 543 90 543 c 0
 66 543 47 562 47 586 c 0
 47 610 66 629 90 629 c 0
 114 629 133 610 133 586 c 0x09
490 671 m 0x040040
 490 647 471 629 447 629 c 0x080040
 423 629 404 647 404 671 c 0
 404 695 423 714 447 714 c 0
 471 714 490 695 490 671 c 0x040040
147 671 m 0x0480
 147 647 128 629 104 629 c 0x0820
 80 629 61 647 61 671 c 0x0880
 61 695 80 714 104 714 c 0x0420
 128 714 147 695 147 671 c 0x0480
504 757 m 0x020020
 504 733 485 714 461 714 c 0x040020
 437 714 418 733 418 757 c 0
 418 781 437 800 461 800 c 0
 485 800 504 781 504 757 c 0x020020
161 757 m 0x0240
 161 733 142 714 118 714 c 0x0410
 94 714 75 733 75 757 c 0x0440
 75 781 94 800 118 800 c 0x0210
 142 800 161 781 161 757 c 0x0240
EndSplineSet
EndChar

StartChar: Y
Encoding: 89 89 60
Width: 522
VWidth: 0
UnlinkRmOvrlpSave: 1
Flags: W
HStem: 200 86<152.642 227.358> 286 85<166.642 241.358> 371 86<181.642 255.61> 457 86<195.642 270.358> 543 86<124.39 198.358 295.642 370.358> 629 85<52.6424 127.358 395.642 470.358> 714 86<66.6424 141.358 409.642 484.358>
VStem: 47 86<634.39 708.358> 61 86<719.642 794.358> 119 85<548.642 623.358> 147 86<205.642 280.358> 161 86<291.642 365.61> 176 85<376.642 451.358> 190 86<462.642 537.358> 290 86<548.642 623.358> 390 86<634.39 708.358> 404 86<719.642 794.358>
LayerCount: 2
Back
Fore
SplineSet
233 243 m 0x8022
 233 219 214 200 190 200 c 0x8006
 166 200 147 219 147 243 c 0x8022
 147 267 166 286 190 286 c 0x8006
 214 286 233 267 233 243 c 0x8022
247 329 m 0x4012
 247 305 228 286 204 286 c 0x8042
 180 286 161 305 161 329 c 0x8012
 161 353 180 371 204 371 c 0x4042
 228 371 247 353 247 329 c 0x4012
261 414 m 0x200a
 261 390 243 371 219 371 c 0x400a
 195 371 176 390 176 414 c 0
 176 438 195 457 219 457 c 0
 243 457 261 438 261 414 c 0x200a
276 500 m 0x1006
 276 476 257 457 233 457 c 0x2022
 209 457 190 476 190 500 c 0x2006
 190 524 209 543 233 543 c 0x1022
 257 543 276 524 276 500 c 0x1006
376 586 m 0
 376 562 357 543 333 543 c 0
 309 543 290 562 290 586 c 0
 290 610 309 629 333 629 c 0x0802
 357 629 376 610 376 586 c 0
204 586 m 0x0842
 204 562 185 543 161 543 c 0x0812
 137 543 119 562 119 586 c 0x0842
 119 610 137 629 161 629 c 0x0812
 185 629 204 610 204 586 c 0x0842
476 671 m 0x0403
 476 647 457 629 433 629 c 0
 409 629 390 647 390 671 c 0
 390 695 409 714 433 714 c 0
 457 714 476 695 476 671 c 0x0403
133 671 m 0x0502
 133 647 114 629 90 629 c 0
 66 629 47 647 47 671 c 0
 47 695 66 714 90 714 c 0
 114 714 133 695 133 671 c 0x0502
490 757 m 0x020280
 490 733 471 714 447 714 c 0x040280
 423 714 404 733 404 757 c 0
 404 781 423 800 447 800 c 0
 471 800 490 781 490 757 c 0x020280
147 757 m 0x0282
 147 733 128 714 104 714 c 0x0482
 80 714 61 733 61 757 c 0
 61 781 80 800 104 800 c 0
 128 800 147 781 147 757 c 0x0282
EndSplineSet
EndChar

StartChar: X
Encoding: 88 88 61
Width: 522
VWidth: 0
UnlinkRmOvrlpSave: 1
Flags: W
HStem: 200 86<52.6424 126.61 395.39 469.358> 286 85<66.6424 141.358 409.642 484.358> 371 86<166.642 241.358 337.642 412.358> 457 86<266.642 341.358> 543 86<195.39 269.358 366.642 441.358> 629 85<123.642 198.358 466.642 541.358> 714 86<137.642 212.358 480.642 555.358>
VStem: 47 85<205.642 280.358> 61 86<291.642 365.61> 118 86<634.39 708.358> 132 86<719.642 794.358> 161 86<376.642 451.358> 190 85<548.642 623.358> 261 86<462.642 537.358> 332 86<376.642 451.358> 361 86<548.642 623.358> 390 85<205.642 280.358> 404 86<291.642 365.61> 461 86<634.39 708.358> 475 86<719.642 794.358>
LayerCount: 2
Back
Fore
SplineSet
475 243 m 0x800080
 475 219 456 200 432 200 c 0
 408 200 390 219 390 243 c 0
 390 267 408 286 432 286 c 0
 456 286 475 267 475 243 c 0x800080
132 243 m 0x81
 132 219 114 200 90 200 c 0
 66 200 47 219 47 243 c 0
 47 267 66 286 90 286 c 0
 114 286 132 267 132 243 c 0x81
490 329 m 0x400040
 490 305 471 286 447 286 c 0x8001
 423 286 404 305 404 329 c 0x800040
 404 353 423 371 447 371 c 0x4001
 471 371 490 353 490 329 c 0x400040
147 329 m 0x4080
 147 305 128 286 104 286 c 0x8080
 80 286 61 305 61 329 c 0
 61 353 80 371 104 371 c 0
 128 371 147 353 147 329 c 0x4080
418 414 m 0x2002
 418 390 399 371 375 371 c 0
 351 371 332 390 332 414 c 0
 332 438 351 457 375 457 c 0
 399 457 418 438 418 414 c 0x2002
247 414 m 0x2010
 247 390 228 371 204 371 c 0x2040
 180 371 161 390 161 414 c 0x2010
 161 438 180 457 204 457 c 0x2040
 228 457 247 438 247 414 c 0x2010
347 500 m 0x1004
 347 476 328 457 304 457 c 0
 280 457 261 476 261 500 c 0
 261 524 280 543 304 543 c 0
 328 543 347 524 347 500 c 0x1004
447 586 m 0x0801
 447 562 428 543 404 543 c 0x080040
 380 543 361 562 361 586 c 0x0801
 361 610 380 629 404 629 c 0x080040
 428 629 447 610 447 586 c 0x0801
275 586 m 0x0808
 275 562 256 543 232 543 c 0
 208 543 190 562 190 586 c 0
 190 610 208 629 232 629 c 0
 256 629 275 610 275 586 c 0x0808
547 671 m 0x040020
 547 647 528 629 504 629 c 0
 480 629 461 647 461 671 c 0
 461 695 480 714 504 714 c 0
 528 714 547 695 547 671 c 0x040020
204 671 m 0x0440
 204 647 185 629 161 629 c 0x0410
 137 629 118 647 118 671 c 0x0440
 118 695 137 714 161 714 c 0x0410
 185 714 204 695 204 671 c 0x0440
561 757 m 0x020010
 561 733 542 714 518 714 c 0x040010
 494 714 475 733 475 757 c 0
 475 781 494 800 518 800 c 0
 542 800 561 781 561 757 c 0x020010
218 757 m 0x0220
 218 733 199 714 175 714 c 0x0420
 151 714 132 733 132 757 c 0
 132 781 151 800 175 800 c 0
 199 800 218 781 218 757 c 0x0220
EndSplineSet
EndChar

StartChar: bracketleft
Encoding: 91 91 62
Width: 522
VWidth: 0
UnlinkRmOvrlpSave: 1
Flags: W
HStem: 200 86<52.6424 126.448 137.784 212.216 223.784 298.358> 286 85<66.6424 141.358> 371 86<80.6424 155.358> 457 86<95.39 169.358> 543 86<109.642 184.358> 629 85<123.642 198.358> 714 86<137.642 212.216 223.784 298.216 309.784 384.358>
VStem: 47 85<205.642 241 245 280.358> 61 86<291.642 365.61> 75 86<376.642 451.358> 90 85<462.642 537.358> 104 86<548.642 623.358> 118 86<634.39 708.358> 132 86<205.853 241 245 280.147 719.853 755 759 794.147> 218 86<205.853 241 245 280.147 719.853 755 759 794.147>
LayerCount: 2
Back
Fore
SplineSet
304 243 m 0x8002
 304 219 285 200 261 200 c 0
 238 200 219 218 218 241 c 1x8004
 217 218 198 200 175 200 c 0x8020
 152 200 133 218 132 241 c 1x81
 131 218 113 200 90 200 c 1x8020
 66 200 47 219 47 243 c 0x81
 47 267 66 286 90 286 c 0x8020
 113 286 131 268 132 245 c 1x81
 133 268 152 286 175 286 c 1x8020
 198 286 217 268 218 245 c 1x8004
 219 268 238 286 261 286 c 0
 285 286 304 267 304 243 c 0x8002
147 329 m 0x4080
 147 305 128 286 104 286 c 0x8010
 80 286 61 305 61 329 c 0x8080
 61 353 80 371 104 371 c 0x4010
 128 371 147 353 147 329 c 0x4080
161 414 m 0x2040
 161 390 142 371 118 371 c 0x4008
 94 371 75 390 75 414 c 0x4040
 75 438 94 457 118 457 c 0x2008
 142 457 161 438 161 414 c 0x2040
175 500 m 0x1020
 175 476 156 457 132 457 c 0x2004
 108 457 90 476 90 500 c 0x2020
 90 524 108 543 132 543 c 0x1004
 156 543 175 524 175 500 c 0x1020
190 586 m 0x0810
 190 562 171 543 147 543 c 0x1080
 123 543 104 562 104 586 c 0x1010
 104 610 123 629 147 629 c 0x0880
 171 629 190 610 190 586 c 0x0810
204 671 m 0x0408
 204 647 185 629 161 629 c 0x0840
 137 629 118 647 118 671 c 0x0808
 118 695 137 714 161 714 c 0x0440
 185 714 204 695 204 671 c 0x0408
390 757 m 0
 390 733 371 714 347 714 c 0
 324 714 305 732 304 755 c 1x0202
 303 732 284 714 261 714 c 0
 238 714 219 732 218 755 c 1x0204
 217 732 198 714 175 714 c 1x0420
 151 714 132 733 132 757 c 0x0404
 132 781 151 800 175 800 c 0x0220
 198 800 217 782 218 759 c 1x0204
 219 782 238 800 261 800 c 1
 284 800 303 782 304 759 c 1
 305 782 324 800 347 800 c 0x0202
 371 800 390 781 390 757 c 0
EndSplineSet
EndChar

StartChar: Z
Encoding: 90 90 63
Width: 522
VWidth: 0
UnlinkRmOvrlpSave: 1
Flags: W
HStem: 200 86<52.6424 126.448 137.784 212.216 223.784 298.216 309.784 384.216 395.552 469.358> 286 85<66.6424 141.358> 371 86<166.642 241.358> 457 86<266.642 341.358> 543 86<366.642 441.358> 629 85<466.642 541.358> 714 86<137.642 212.216 223.784 298.216 309.784 384.216 395.552 469.216 480.784 555.358>
VStem: 47 85<205.642 241 245 280.358> 61 86<291.642 365.61> 132 86<205.853 241 245 280.147 719.853 755 759 794.147> 161 86<376.642 451.358> 218 86<205.853 241 245 280.147 719.853 755 759 794.147> 261 86<462.642 537.358> 361 86<548.642 623.358> 390 85<205.642 241 245 280.358 719.853 755 759 794.147> 461 86<634.39 708.358>
LayerCount: 2
Back
Fore
SplineSet
475 243 m 0x800a
 475 219 456 200 432 200 c 0
 409 200 391 218 390 241 c 1
 389 218 370 200 347 200 c 0x800a
 324 200 305 218 304 241 c 1x8010
 303 218 284 200 261 200 c 0
 238 200 219 218 218 241 c 1x8048
 217 218 198 200 175 200 c 0
 152 200 133 218 132 241 c 1
 131 218 113 200 90 200 c 1
 66 200 47 219 47 243 c 0
 47 267 66 286 90 286 c 0
 113 286 131 268 132 245 c 1x81
 133 268 152 286 175 286 c 1
 198 286 217 268 218 245 c 1
 219 268 238 286 261 286 c 0x8048
 284 286 303 268 304 245 c 1x8010
 305 268 324 286 347 286 c 0
 370 286 389 268 390 245 c 1
 391 268 409 286 432 286 c 0
 456 286 475 267 475 243 c 0x800a
147 329 m 0x4080
 147 305 128 286 104 286 c 0x8080
 80 286 61 305 61 329 c 0
 61 353 80 371 104 371 c 0
 128 371 147 353 147 329 c 0x4080
247 414 m 0x2020
 247 390 228 371 204 371 c 0
 180 371 161 390 161 414 c 0
 161 438 180 457 204 457 c 0
 228 457 247 438 247 414 c 0x2020
347 500 m 0x1008
 347 476 328 457 304 457 c 0x1010
 280 457 261 476 261 500 c 0x1008
 261 524 280 543 304 543 c 0x1010
 328 543 347 524 347 500 c 0x1008
447 586 m 0x0804
 447 562 428 543 404 543 c 0
 380 543 361 562 361 586 c 0
 361 610 380 629 404 629 c 0
 428 629 447 610 447 586 c 0x0804
547 671 m 0x0401
 547 647 528 629 504 629 c 0
 480 629 461 647 461 671 c 0
 461 695 480 714 504 714 c 0
 528 714 547 695 547 671 c 0x0401
561 757 m 0
 561 733 542 714 518 714 c 0x040a
 495 714 476 732 475 755 c 1
 474 732 455 714 432 714 c 0
 409 714 391 732 390 755 c 1
 389 732 370 714 347 714 c 0x020a
 324 714 305 732 304 755 c 1x0210
 303 732 284 714 261 714 c 0
 238 714 219 732 218 755 c 1
 217 732 198 714 175 714 c 1
 151 714 132 733 132 757 c 0
 132 781 151 800 175 800 c 0
 198 800 217 782 218 759 c 1
 219 782 238 800 261 800 c 1x0248
 284 800 303 782 304 759 c 1x0210
 305 782 324 800 347 800 c 0
 370 800 389 782 390 759 c 1
 391 782 409 800 432 800 c 0
 455 800 474 782 475 759 c 1
 476 782 495 800 518 800 c 0x020a
 542 800 561 781 561 757 c 0
EndSplineSet
EndChar

StartChar: bracketright
Encoding: 93 93 64
Width: 522
VWidth: 0
UnlinkRmOvrlpSave: 1
Flags: W
HStem: 200 86<52.6424 127.216 138.784 213.216 224.552 298.358> 286 85<238.642 313.358> 371 86<252.642 327.358> 457 86<266.642 341.358> 543 86<281.642 355.61> 629 85<295.642 370.358> 714 86<138.642 213.216 224.552 298.216 309.784 384.358>
VStem: 47 86<205.853 241 245 280.147> 219 85<205.642 241 245 280.358 719.853 755 759 794.147> 233 86<291.642 365.61> 247 86<376.642 451.358> 261 86<462.642 537.358> 276 85<548.642 623.358> 290 86<634.39 708.358>
LayerCount: 2
Back
Fore
SplineSet
304 243 m 0x8180
 304 219 285 200 261 200 c 0x8110
 238 200 220 218 219 241 c 1
 218 218 199 200 176 200 c 0
 153 200 134 218 133 241 c 1
 132 218 113 200 90 200 c 0
 66 200 47 219 47 243 c 0
 47 267 66 286 90 286 c 0
 113 286 132 268 133 245 c 1
 134 268 153 286 176 286 c 0
 199 286 218 268 219 245 c 1x8180
 220 268 238 286 261 286 c 0x8110
 285 286 304 267 304 243 c 0x8180
319 329 m 0x4140
 319 305 300 286 276 286 c 0x8108
 252 286 233 305 233 329 c 0x8140
 233 353 252 371 276 371 c 0x4108
 300 371 319 353 319 329 c 0x4140
333 414 m 0x2120
 333 390 314 371 290 371 c 0x4104
 266 371 247 390 247 414 c 0x4120
 247 438 266 457 290 457 c 0x2104
 314 457 333 438 333 414 c 0x2120
347 500 m 0x1110
 347 476 328 457 304 457 c 0x2180
 280 457 261 476 261 500 c 0x2110
 261 524 280 543 304 543 c 0x1180
 328 543 347 524 347 500 c 0x1110
361 586 m 0x0908
 361 562 343 543 319 543 c 0x1140
 295 543 276 562 276 586 c 0x1108
 276 610 295 629 319 629 c 0x0940
 343 629 361 610 361 586 c 0x0908
376 671 m 0x0504
 376 647 357 629 333 629 c 0x0920
 309 629 290 647 290 671 c 0x0904
 290 695 309 714 333 714 c 0x0520
 357 714 376 695 376 671 c 0x0504
390 757 m 0
 390 733 371 714 347 714 c 0x0510
 324 714 305 732 304 755 c 1x0580
 303 732 284 714 261 714 c 0x0310
 238 714 220 732 219 755 c 1
 218 732 199 714 176 714 c 0
 152 714 133 733 133 757 c 0
 133 781 152 800 176 800 c 0
 199 800 218 782 219 759 c 1x0380
 220 782 238 800 261 800 c 0x0310
 284 800 303 782 304 759 c 1x0380
 305 782 324 800 347 800 c 0x0310
 371 800 390 781 390 757 c 0
EndSplineSet
EndChar

StartChar: backslash
Encoding: 92 92 65
Width: 522
VWidth: 0
UnlinkRmOvrlpSave: 1
Flags: W
HStem: 286 85<338.642 413.358> 371 86<266.642 341.358> 457 86<195.642 270.358> 543 86<124.39 198.358> 629 85<52.6424 127.358>
VStem: 47 86<634.39 708.358> 119 85<548.642 623.358> 190 86<462.642 537.358> 261 86<376.642 451.358> 333 86<291.642 365.61>
LayerCount: 2
Back
Fore
SplineSet
419 329 m 0x8040
 419 305 400 286 376 286 c 0
 352 286 333 305 333 329 c 0
 333 353 352 371 376 371 c 0
 400 371 419 353 419 329 c 0x8040
347 414 m 0x4080
 347 390 328 371 304 371 c 0
 280 371 261 390 261 414 c 0
 261 438 280 457 304 457 c 0
 328 457 347 438 347 414 c 0x4080
276 500 m 0x21
 276 476 257 457 233 457 c 0
 209 457 190 476 190 500 c 0
 190 524 209 543 233 543 c 0
 257 543 276 524 276 500 c 0x21
204 586 m 0x12
 204 562 185 543 161 543 c 0
 137 543 119 562 119 586 c 0
 119 610 137 629 161 629 c 0
 185 629 204 610 204 586 c 0x12
133 671 m 0x0c
 133 647 114 629 90 629 c 0
 66 629 47 647 47 671 c 0
 47 695 66 714 90 714 c 0
 114 714 133 695 133 671 c 0x0c
EndSplineSet
EndChar

StartChar: underscore
Encoding: 95 95 66
Width: 522
VWidth: 0
UnlinkRmOvrlpSave: 1
Flags: W
HStem: 200 86<52.6424 126.448 137.784 212.216 223.784 298.216 309.784 384.216 395.552 469.358>
VStem: 47 85<205.642 241 245 280.358> 132 86<205.853 241 245 280.147> 218 86<205.853 241 245 280.147> 304 86<205.853 241 245 280.147> 390 85<205.642 241 245 280.358>
LayerCount: 2
Back
Fore
SplineSet
475 243 m 0x84
 475 219 456 200 432 200 c 0
 409 200 391 218 390 241 c 1x88
 389 218 370 200 347 200 c 0
 324 200 305 218 304 241 c 1x90
 303 218 284 200 261 200 c 0
 238 200 219 218 218 241 c 1xa0
 217 218 198 200 175 200 c 0
 152 200 133 218 132 241 c 1
 131 218 113 200 90 200 c 1
 66 200 47 219 47 243 c 0
 47 267 66 286 90 286 c 0
 113 286 131 268 132 245 c 1xc0
 133 268 152 286 175 286 c 1
 198 286 217 268 218 245 c 1xa0
 219 268 238 286 261 286 c 0
 284 286 303 268 304 245 c 1x90
 305 268 324 286 347 286 c 0
 370 286 389 268 390 245 c 1x88
 391 268 409 286 432 286 c 0
 456 286 475 267 475 243 c 0x84
EndSplineSet
EndChar

StartChar: asciicircum
Encoding: 94 94 67
Width: 522
VWidth: 0
UnlinkRmOvrlpSave: 1
Flags: W
HStem: 543 86<52.6424 127.358 395.642 469.61> 629 85<152.642 227.358 323.642 398.358> 714 86<252.642 327.358>
VStem: 47 86<548.642 623.358> 147 86<634.39 708.358> 247 86<719.642 794.358> 318 86<634.39 708.358> 390 85<548.642 623.358>
LayerCount: 2
Back
Fore
SplineSet
475 586 m 0x99
 475 562 457 543 433 543 c 0
 409 543 390 562 390 586 c 0
 390 610 409 629 433 629 c 0
 457 629 475 610 475 586 c 0x99
133 586 m 0
 133 562 114 543 90 543 c 0
 66 543 47 562 47 586 c 0
 47 610 66 629 90 629 c 0
 114 629 133 610 133 586 c 0
404 671 m 0x5a
 404 647 385 629 361 629 c 0
 337 629 318 647 318 671 c 0
 318 695 337 714 361 714 c 0
 385 714 404 695 404 671 c 0x5a
233 671 m 0
 233 647 214 629 190 629 c 0
 166 629 147 647 147 671 c 0
 147 695 166 714 190 714 c 0
 214 714 233 695 233 671 c 0
333 757 m 0x3c
 333 733 314 714 290 714 c 0
 266 714 247 733 247 757 c 0
 247 781 266 800 290 800 c 0
 314 800 333 781 333 757 c 0x3c
EndSplineSet
EndChar

StartChar: grave
Encoding: 96 96 68
Width: 522
VWidth: 0
UnlinkRmOvrlpSave: 1
Flags: W
HStem: 543 86<195.642 270.358> 629 85<124.642 199.358> 714 86<52.6424 127.358>
VStem: 47 86<719.642 794.358> 119 86<634.39 708.358> 190 86<548.642 623.358>
LayerCount: 2
Back
Fore
SplineSet
276 586 m 0x84
 276 562 257 543 233 543 c 0
 209 543 190 562 190 586 c 0
 190 610 209 629 233 629 c 0
 257 629 276 610 276 586 c 0x84
205 671 m 0x48
 205 647 186 629 162 629 c 0
 138 629 119 647 119 671 c 0
 119 695 138 714 162 714 c 0
 186 714 205 695 205 671 c 0x48
133 757 m 0x30
 133 733 114 714 90 714 c 0
 66 714 47 733 47 757 c 0
 47 781 66 800 90 800 c 0
 114 800 133 781 133 757 c 0x30
EndSplineSet
EndChar

StartChar: braceleft
Encoding: 123 123 69
Width: 522
VWidth: 0
UnlinkRmOvrlpSave: 1
Flags: W
HStem: 200 86<180.642 255.216 266.784 341.358> 286 85<109.642 183.61> 371 86<123.642 198.358> 457 86<52.39 126.358> 543 86<152.39 226.358> 629 85<166.642 241.358> 714 86<266.642 341.216 352.552 426.358>
VStem: 47 85<462.642 537.358> 104 85<291.642 365.61> 118 86<376.642 451.358> 147 85<548.642 623.358> 161 86<634.39 708.358> 175 86<205.853 241 245 280.147> 261 86<205.853 241 245 280.147 719.853 755 759 794.147> 347 85<719.642 755 759 794.358>
LayerCount: 2
Back
Fore
SplineSet
347 243 m 0x800a
 347 219 328 200 304 200 c 0
 281 200 262 218 261 241 c 1
 260 218 241 200 218 200 c 0
 194 200 175 219 175 243 c 0
 175 267 194 286 218 286 c 0
 241 286 260 268 261 245 c 1
 262 268 281 286 304 286 c 0
 328 286 347 267 347 243 c 0x800a
189 329 m 0x4080
 189 305 171 286 147 286 c 0x4020
 123 286 104 305 104 329 c 0x4080
 104 353 123 371 147 371 c 0x4020
 171 371 189 353 189 329 c 0x4080
204 414 m 0x2040
 204 390 185 371 161 371 c 0x4010
 137 371 118 390 118 414 c 0x4040
 118 438 137 457 161 457 c 0x2010
 185 457 204 438 204 414 c 0x2040
132 500 m 0x11
 132 476 113 457 89 457 c 0
 65 457 47 476 47 500 c 0
 47 524 65 543 89 543 c 0
 113 543 132 524 132 500 c 0x11
232 586 m 0x0820
 232 562 213 543 189 543 c 0x0880
 165 543 147 562 147 586 c 0x0820
 147 610 165 629 189 629 c 0x0880
 213 629 232 610 232 586 c 0x0820
247 671 m 0x0410
 247 647 228 629 204 629 c 0x0840
 180 629 161 647 161 671 c 0x0810
 161 695 180 714 204 714 c 0x0440
 228 714 247 695 247 671 c 0x0410
432 757 m 0x0202
 432 733 413 714 389 714 c 0
 366 714 348 732 347 755 c 1
 346 732 327 714 304 714 c 0
 280 714 261 733 261 757 c 0
 261 781 280 800 304 800 c 0
 327 800 346 782 347 759 c 1x0204
 348 782 366 800 389 800 c 0
 413 800 432 781 432 757 c 0x0202
EndSplineSet
EndChar

StartChar: braceright
Encoding: 125 125 70
Width: 522
VWidth: 0
UnlinkRmOvrlpSave: 1
Flags: W
HStem: 200 86<52.6424 127.216 138.784 213.358> 286 85<238.642 313.358> 371 86<252.642 327.358> 457 86<352.642 427.358> 543 86<281.642 356.358> 629 85<295.642 370.358> 714 86<138.642 213.216 224.784 299.358>
VStem: 47 86<205.853 241 245 280.147> 133 86<205.853 241 245 280.147 719.853 755 759 794.147> 233 86<291.642 365.61> 247 86<376.642 451.358> 276 86<548.642 623.358> 290 86<634.39 708.358> 347 86<462.642 537.358>
LayerCount: 2
Back
Fore
SplineSet
219 243 m 0x8080
 219 219 200 200 176 200 c 0
 153 200 134 218 133 241 c 1
 132 218 113 200 90 200 c 0
 66 200 47 219 47 243 c 0
 47 267 66 286 90 286 c 0
 113 286 132 268 133 245 c 1x81
 134 268 153 286 176 286 c 0
 200 286 219 267 219 243 c 0x8080
319 329 m 0x4040
 319 305 300 286 276 286 c 0x4010
 252 286 233 305 233 329 c 0x4040
 233 353 252 371 276 371 c 0x4010
 300 371 319 353 319 329 c 0x4040
333 414 m 0x2020
 333 390 314 371 290 371 c 0x4008
 266 371 247 390 247 414 c 0x4020
 247 438 266 457 290 457 c 0x2008
 314 457 333 438 333 414 c 0x2020
433 500 m 0x1004
 433 476 414 457 390 457 c 0
 366 457 347 476 347 500 c 0
 347 524 366 543 390 543 c 0
 414 543 433 524 433 500 c 0x1004
362 586 m 0x0810
 362 562 343 543 319 543 c 0x0840
 295 543 276 562 276 586 c 0x0810
 276 610 295 629 319 629 c 0x0840
 343 629 362 610 362 586 c 0x0810
376 671 m 0x0408
 376 647 357 629 333 629 c 0x0820
 309 629 290 647 290 671 c 0x0808
 290 695 309 714 333 714 c 0x0420
 357 714 376 695 376 671 c 0x0408
305 757 m 0
 305 733 286 714 262 714 c 0
 239 714 220 732 219 755 c 1
 218 732 199 714 176 714 c 0
 152 714 133 733 133 757 c 0
 133 781 152 800 176 800 c 0
 199 800 218 782 219 759 c 1
 220 782 239 800 262 800 c 0x0280
 286 800 305 781 305 757 c 0
EndSplineSet
EndChar

StartChar: bar
Encoding: 124 124 71
Width: 522
VWidth: 0
UnlinkRmOvrlpSave: 1
Flags: W
HStem: 286 85<52.6424 127.358> 371 86<67.6424 141.61> 457 86<81.6424 156.358> 543 86<95.6424 170.358> 629 85<110.39 184.358>
VStem: 47 86<291.642 365.61> 62 85<376.642 451.358> 76 86<462.642 537.358> 90 86<548.642 623.358> 105 85<634.39 708.358>
LayerCount: 2
Back
Fore
SplineSet
133 329 m 0x84
 133 305 114 286 90 286 c 0x8080
 66 286 47 305 47 329 c 0x84
 47 353 66 371 90 371 c 0x8080
 114 371 133 353 133 329 c 0x84
147 414 m 0x42
 147 390 129 371 105 371 c 0x8040
 81 371 62 390 62 414 c 0x82
 62 438 81 457 105 457 c 0x4040
 129 457 147 438 147 414 c 0x42
162 500 m 0x21
 162 476 143 457 119 457 c 0x41
 95 457 76 476 76 500 c 0
 76 524 95 543 119 543 c 0
 143 543 162 524 162 500 c 0x21
176 586 m 0x1080
 176 562 157 543 133 543 c 0x24
 109 543 90 562 90 586 c 0x2080
 90 610 109 629 133 629 c 0x14
 157 629 176 610 176 586 c 0x1080
190 671 m 0x0840
 190 647 171 629 147 629 c 0x12
 123 629 105 647 105 671 c 0x1040
 105 695 123 714 147 714 c 0x0a
 171 714 190 695 190 671 c 0x0840
EndSplineSet
EndChar

StartChar: cent
Encoding: 162 162 72
Width: 522
VWidth: 0
UnlinkRmOvrlpSave: 1
Flags: W
HStem: 200 86<195.642 270.358> 286 85<124.642 198.928 209.284 284.716 295.284 370.358> 371 86<52.6424 127.358> 457 86<67.39 141.358> 543 86<81.6424 156.358> 629 85<181.642 256.716 267.072 341.716 352.284 427.358> 714 86<281.642 356.358>
VStem: 47 86<376.642 451.358> 62 85<462.642 537.358> 76 86<548.642 623.358> 119 85<291.642 326 331 365.42> 176 86<634.58 669 674 708.358> 190 86<205.642 280.358> 204 86<291.58 326 331 365.42> 262 85<634.58 669 674 708.42> 276 86<719.642 794.358> 290 86<291.642 326 331 365.42> 347 86<634.58 669 674 708.358>
LayerCount: 2
Back
Fore
SplineSet
276 243 m 0x8008
 276 219 257 200 233 200 c 0
 209 200 190 219 190 243 c 0
 190 267 209 286 233 286 c 0
 257 286 276 267 276 243 c 0x8008
376 329 m 0x400080
 376 305 357 286 333 286 c 0
 310 286 291 303 290 326 c 1x4004
 289 303 270 286 247 286 c 0
 224 286 205 303 204 326 c 1x8020
 203 303 185 286 162 286 c 0x4040
 138 286 119 305 119 329 c 0x4020
 119 353 138 371 162 371 c 0x4040
 185 371 203 354 204 331 c 1x4020
 205 354 224 371 247 371 c 0
 270 371 289 354 290 331 c 1x4004
 291 354 310 371 333 371 c 0
 357 371 376 353 376 329 c 0x400080
133 414 m 0x21
 133 390 114 371 90 371 c 0
 66 371 47 390 47 414 c 0
 47 438 66 457 90 457 c 0
 114 457 133 438 133 414 c 0x21
147 500 m 0x1080
 147 476 128 457 104 457 c 0x2080
 80 457 62 476 62 500 c 0
 62 524 80 543 104 543 c 0
 128 543 147 524 147 500 c 0x1080
162 586 m 0x0840
 162 562 143 543 119 543 c 0x1020
 95 543 76 562 76 586 c 0x1040
 76 610 95 629 119 629 c 0x0820
 143 629 162 610 162 586 c 0x0840
433 671 m 0x040040
 433 647 414 629 390 629 c 0
 367 629 348 646 347 669 c 1x0402
 346 646 327 629 304 629 c 0
 281 629 263 646 262 669 c 1
 261 646 242 629 219 629 c 0
 195 629 176 647 176 671 c 0
 176 695 195 714 219 714 c 0
 242 714 261 697 262 674 c 1x0410
 263 697 281 714 304 714 c 0
 327 714 346 697 347 674 c 1x0402
 348 697 367 714 390 714 c 0
 414 714 433 695 433 671 c 0x040040
362 757 m 0x0201
 362 733 343 714 319 714 c 0x0401
 295 714 276 733 276 757 c 0
 276 781 295 800 319 800 c 0
 343 800 362 781 362 757 c 0x0201
EndSplineSet
EndChar

StartChar: asciitilde
Encoding: 126 126 73
Width: 522
VWidth: 0
UnlinkRmOvrlpSave: 1
Flags: W
HStem: 371 86<294.642 369.358> 457 86<52.39 126.358 223.642 298.358 394.642 469.358> 543 86<152.39 226.358>
VStem: 47 85<462.642 537.358> 147 85<548.642 623.358> 218 86<462.642 537.358> 289 86<376.642 451.358> 389 86<462.642 537.358>
LayerCount: 2
Back
Fore
SplineSet
375 414 m 0x93
 375 390 356 371 332 371 c 0
 308 371 289 390 289 414 c 0
 289 438 308 457 332 457 c 0
 356 457 375 438 375 414 c 0x93
475 500 m 0
 475 476 456 457 432 457 c 0
 408 457 389 476 389 500 c 0
 389 524 408 543 432 543 c 0x51
 456 543 475 524 475 500 c 0
304 500 m 0x55
 304 476 285 457 261 457 c 0
 237 457 218 476 218 500 c 0
 218 524 237 543 261 543 c 0
 285 543 304 524 304 500 c 0x55
132 500 m 0
 132 476 113 457 89 457 c 0
 65 457 47 476 47 500 c 0
 47 524 65 543 89 543 c 0
 113 543 132 524 132 500 c 0
232 586 m 0x39
 232 562 213 543 189 543 c 0
 165 543 147 562 147 586 c 0
 147 610 165 629 189 629 c 0
 213 629 232 610 232 586 c 0x39
EndSplineSet
EndChar

StartChar: a
Encoding: 97 97 74
Width: 522
VWidth: 0
UnlinkRmOvrlpSave: 1
Flags: W
HStem: 200 86<52.6424 126.61 395.39 469.358> 286 85<66.6424 141.358 409.642 484.358> 371 86<80.6424 155.216 166.784 241.216 252.784 326.448 337.784 412.216 423.784 498.358> 457 86<95.39 169.358 437.642 512.358> 543 86<109.642 184.358 452.642 526.61> 629 85<209.642 284.358 380.642 455.358> 714 86<309.642 384.358>
VStem: 47 85<205.642 280.358> 61 86<291.642 365.61> 75 86<376.853 412 416 451.147> 90 85<462.642 537.358> 104 86<548.642 623.358> 161 86<376.853 412 416 451.147> 204 86<634.39 708.358> 247 85<376.853 412 416 451.147> 304 86<719.642 794.358> 332 86<376.853 412 416 451.147> 375 86<634.39 708.358> 390 85<205.642 280.358> 404 86<291.642 365.61> 418 86<376.853 412 416 451.147> 432 86<462.642 537.358> 447 85<548.642 623.358>
LayerCount: 2
Back
Fore
SplineSet
390 757 m 0x0201
 390 733 371 714 347 714 c 0
 323 714 304 733 304 757 c 0
 304 781 323 800 347 800 c 0
 371 800 390 781 390 757 c 0x0201
290 671 m 0x0404
 290 647 271 629 247 629 c 0x0402
 223 629 204 647 204 671 c 0x0404
 204 695 223 714 247 714 c 0x0402
 271 714 290 695 290 671 c 0x0404
461 671 m 0x040040
 461 647 442 629 418 629 c 0x040008
 394 629 375 647 375 671 c 0x040040
 375 695 394 714 418 714 c 0x040008
 442 714 461 695 461 671 c 0x040040
190 586 m 0x0810
 190 562 171 543 147 543 c 0x1080
 123 543 104 562 104 586 c 0x1010
 104 610 123 629 147 629 c 0x0880
 171 629 190 610 190 586 c 0x0810
532 586 m 0x080002
 532 562 514 543 490 543 c 0x100010
 466 543 447 562 447 586 c 0x100002
 447 610 466 629 490 629 c 0x080010
 514 629 532 610 532 586 c 0x080002
175 500 m 0x1020
 175 476 156 457 132 457 c 0x21
 108 457 90 476 90 500 c 0x2020
 90 524 108 543 132 543 c 0x11
 156 543 175 524 175 500 c 0x1020
518 500 m 0x100004
 518 476 499 457 475 457 c 0x200020
 451 457 432 476 432 500 c 0x200004
 432 524 451 543 475 543 c 0x100020
 499 543 518 524 518 500 c 0x100004
504 414 m 0x200008
 504 390 485 371 461 371 c 0x400040
 438 371 419 389 418 412 c 1x400080
 417 389 398 371 375 371 c 0
 352 371 333 389 332 412 c 1x200240
 331 389 313 371 290 371 c 0x2004
 267 371 248 389 247 412 c 1x2008
 246 389 227 371 204 371 c 0x2004
 181 371 162 389 161 412 c 1
 160 389 141 371 118 371 c 0x4044
 94 371 75 390 75 414 c 0
 75 438 94 457 118 457 c 0
 141 457 160 439 161 416 c 1
 162 439 181 457 204 457 c 0x2044
 227 457 246 439 247 416 c 1x2008
 248 439 267 457 290 457 c 0x2004
 313 457 331 439 332 416 c 1
 333 439 352 457 375 457 c 0x200240
 398 457 417 439 418 416 c 1x200080
 419 439 438 457 461 457 c 0x200040
 485 457 504 438 504 414 c 0x200008
147 329 m 0x4080
 147 305 128 286 104 286 c 0x8010
 80 286 61 305 61 329 c 0x8080
 61 353 80 371 104 371 c 0x4010
 128 371 147 353 147 329 c 0x4080
490 329 m 0x400010
 490 305 471 286 447 286 c 0x800002
 423 286 404 305 404 329 c 0x800010
 404 353 423 371 447 371 c 0x400002
 471 371 490 353 490 329 c 0x400010
132 243 m 0x81
 132 219 114 200 90 200 c 0x8020
 66 200 47 219 47 243 c 0x81
 47 267 66 286 90 286 c 0x8020
 114 286 132 267 132 243 c 0x81
475 243 m 0x800020
 475 219 456 200 432 200 c 0x800004
 408 200 390 219 390 243 c 0x800020
 390 267 408 286 432 286 c 0x800004
 456 286 475 267 475 243 c 0x800020
EndSplineSet
EndChar

StartChar: b
Encoding: 98 98 75
Width: 522
VWidth: 0
UnlinkRmOvrlpSave: 1
Flags: W
HStem: 200 86<52.6424 126.448 137.784 212.216 223.784 298.216 309.784 384.358> 286 85<152.642 226.61 409.642 484.358> 371 86<166.642 241.358 423.642 498.358> 457 86<180.642 255.216 266.784 341.216 352.784 426.61> 543 86<195.39 269.358 452.642 526.61> 629 85<209.642 284.358 466.642 541.358> 714 86<137.642 212.216 223.784 298.216 309.784 384.216 395.552 469.358>
VStem: 47 85<205.642 241 245 280.358> 132 86<205.853 241 245 280.147 719.853 755 759 794.147> 147 85<291.642 365.61> 161 86<376.642 451.358> 175 86<462.853 498 502 537.147> 190 85<548.642 623.358> 204 86<634.39 708.358> 218 86<205.853 241 245 280.147 719.853 755 759 794.147> 261 86<462.853 498 502 537.147> 304 86<205.853 241 245 280.147 719.853 755 759 794.147> 347 85<462.853 498 502 537.147> 390 85<719.642 755 759 794.358> 404 86<291.642 365.61> 418 86<376.642 451.358> 447 85<548.642 623.358> 461 86<634.39 708.358>
LayerCount: 2
Back
Fore
SplineSet
475 757 m 0x020020
 475 733 456 714 432 714 c 0x020040
 409 714 391 732 390 755 c 1x020080
 389 732 370 714 347 714 c 0
 324 714 305 732 304 755 c 1x020240
 303 732 284 714 261 714 c 0
 238 714 219 732 218 755 c 1x0481
 217 732 198 714 175 714 c 0x0210
 151 714 132 733 132 757 c 0x0280
 132 781 151 800 175 800 c 0x0210
 198 800 217 782 218 759 c 1
 219 782 238 800 261 800 c 0x0281
 284 800 303 782 304 759 c 1
 305 782 324 800 347 800 c 0x020240
 370 800 389 782 390 759 c 1x020080
 391 782 409 800 432 800 c 0x020040
 456 800 475 781 475 757 c 0x020020
290 671 m 0x0404
 290 647 271 629 247 629 c 0x0820
 223 629 204 647 204 671 c 0x0804
 204 695 223 714 247 714 c 0x0420
 271 714 290 695 290 671 c 0x0404
547 671 m 0x040002
 547 647 528 629 504 629 c 0x080008
 480 629 461 647 461 671 c 0x080002
 461 695 480 714 504 714 c 0x040008
 528 714 547 695 547 671 c 0x040002
275 586 m 0x0808
 275 562 256 543 232 543 c 0x1040
 208 543 190 562 190 586 c 0x1008
 190 610 208 629 232 629 c 0x0840
 256 629 275 610 275 586 c 0x0808
532 586 m 0x080004
 532 562 514 543 490 543 c 0x080010
 466 543 447 562 447 586 c 0x080004
 447 610 466 629 490 629 c 0x080010
 514 629 532 610 532 586 c 0x080004
432 500 m 0x100040
 432 476 414 457 390 457 c 0
 367 457 348 475 347 498 c 1x100120
 346 475 327 457 304 457 c 0
 281 457 262 475 261 498 c 1x101080
 260 475 241 457 218 457 c 0x2002
 194 457 175 476 175 500 c 0x2010
 175 524 194 543 218 543 c 0x1002
 241 543 260 525 261 502 c 1
 262 525 281 543 304 543 c 0x101080
 327 543 346 525 347 502 c 1
 348 525 367 543 390 543 c 0x100120
 414 543 432 524 432 500 c 0x100040
247 414 m 0x2020
 247 390 228 371 204 371 c 0x4004
 180 371 161 390 161 414 c 0x4020
 161 438 180 457 204 457 c 0x2004
 228 457 247 438 247 414 c 0x2020
504 414 m 0x200008
 504 390 485 371 461 371 c 0x400002
 437 371 418 390 418 414 c 0x400008
 418 438 437 457 461 457 c 0x200002
 485 457 504 438 504 414 c 0x200008
232 329 m 0x4040
 232 305 214 286 190 286 c 0x8008
 166 286 147 305 147 329 c 0x8040
 147 353 166 371 190 371 c 0x4008
 214 371 232 353 232 329 c 0x4040
490 329 m 0x400010
 490 305 471 286 447 286 c 0x400004
 423 286 404 305 404 329 c 0x400010
 404 353 423 371 447 371 c 0x400004
 471 371 490 353 490 329 c 0x400010
390 243 m 0x800020
 390 219 371 200 347 200 c 0
 324 200 305 218 304 241 c 1x800240
 303 218 284 200 261 200 c 0
 238 200 219 218 218 241 c 1x8081
 217 218 198 200 175 200 c 0
 152 200 133 218 132 241 c 1
 131 218 113 200 90 200 c 0
 66 200 47 219 47 243 c 0
 47 267 66 286 90 286 c 0
 113 286 131 268 132 245 c 1
 133 268 152 286 175 286 c 0x8110
 198 286 217 268 218 245 c 1
 219 268 238 286 261 286 c 0x8081
 284 286 303 268 304 245 c 1
 305 268 324 286 347 286 c 0x800240
 371 286 390 267 390 243 c 0x800020
EndSplineSet
EndChar

StartChar: c
Encoding: 99 99 76
Width: 522
VWidth: 0
UnlinkRmOvrlpSave: 1
Flags: W
HStem: 200 86<123.642 198.216 209.784 284.216 295.784 370.358> 286 85<52.6424 127.358 395.642 470.358> 371 86<66.6424 141.358> 457 86<81.39 155.358> 543 86<95.6424 170.358> 629 85<109.642 184.358 452.642 527.358> 714 86<209.642 284.216 295.784 370.216 381.552 455.358>
VStem: 47 86<291.642 365.61> 61 86<376.642 451.358> 76 85<462.642 537.358> 90 86<548.642 623.358> 104 86<634.39 708.358> 204 86<205.853 241 245 280.147 719.853 755 759 794.147> 290 86<205.853 241 245 280.147 719.853 755 759 794.147> 376 85<719.642 755 759 794.358> 390 86<291.642 365.61> 447 86<634.39 708.358>
LayerCount: 2
Back
Fore
SplineSet
461 757 m 0x0202
 461 733 442 714 418 714 c 0
 395 714 377 732 376 755 c 1x0204
 375 732 356 714 333 714 c 0
 310 714 291 732 290 755 c 1
 289 732 270 714 247 714 c 0
 223 714 204 733 204 757 c 0
 204 781 223 800 247 800 c 0
 270 800 289 782 290 759 c 1x0208
 291 782 310 800 333 800 c 0
 356 800 375 782 376 759 c 1x0204
 377 782 395 800 418 800 c 0
 442 800 461 781 461 757 c 0x0202
190 671 m 0x0410
 190 647 171 629 147 629 c 0x0880
 123 629 104 647 104 671 c 0x0810
 104 695 123 714 147 714 c 0x0480
 171 714 190 695 190 671 c 0x0410
533 671 m 0x040080
 533 647 514 629 490 629 c 0
 466 629 447 647 447 671 c 0
 447 695 466 714 490 714 c 0
 514 714 533 695 533 671 c 0x040080
176 586 m 0x0820
 176 562 157 543 133 543 c 0x11
 109 543 90 562 90 586 c 0x1020
 90 610 109 629 133 629 c 0x09
 157 629 176 610 176 586 c 0x0820
161 500 m 0x1040
 161 476 142 457 118 457 c 0x2040
 94 457 76 476 76 500 c 0
 76 524 94 543 118 543 c 0
 142 543 161 524 161 500 c 0x1040
147 414 m 0x2080
 147 390 128 371 104 371 c 0x4010
 80 371 61 390 61 414 c 0x4080
 61 438 80 457 104 457 c 0x2010
 128 457 147 438 147 414 c 0x2080
133 329 m 0x41
 133 305 114 286 90 286 c 0x4020
 66 286 47 305 47 329 c 0x41
 47 353 66 371 90 371 c 0x4020
 114 371 133 353 133 329 c 0x41
476 329 m 0x4001
 476 305 457 286 433 286 c 0
 409 286 390 305 390 329 c 0
 390 353 409 371 433 371 c 0
 457 371 476 353 476 329 c 0x4001
376 243 m 0x804a
 376 219 357 200 333 200 c 0
 310 200 291 218 290 241 c 1
 289 218 270 200 247 200 c 0
 224 200 205 218 204 241 c 1
 203 218 184 200 161 200 c 0
 137 200 118 219 118 243 c 0
 118 267 137 286 161 286 c 0
 184 286 203 268 204 245 c 1
 205 268 224 286 247 286 c 0
 270 286 289 268 290 245 c 1
 291 268 310 286 333 286 c 0
 357 286 376 267 376 243 c 0x804a
EndSplineSet
EndChar

StartChar: d
Encoding: 100 100 77
Width: 522
VWidth: 0
UnlinkRmOvrlpSave: 1
Flags: W
HStem: 200 86<52.6424 126.448 137.784 212.216 223.784 298.216 309.784 384.358> 286 85<152.642 226.61 409.642 484.358> 371 86<166.642 241.358 423.642 498.358> 457 86<180.642 255.358 437.642 512.358> 543 86<195.39 269.358 452.642 526.61> 629 85<209.642 284.358 466.642 541.358> 714 86<137.642 212.216 223.784 298.216 309.784 384.216 395.552 469.358>
VStem: 47 85<205.642 241 245 280.358> 132 86<205.853 241 245 280.147 719.853 755 759 794.147> 147 85<291.642 365.61> 161 86<376.642 451.358> 175 86<462.642 537.358> 190 85<548.642 623.358> 204 86<634.39 708.358> 218 86<205.853 241 245 280.147 719.853 755 759 794.147> 304 86<205.853 241 245 280.147 719.853 755 759 794.147> 390 85<719.642 755 759 794.358> 404 86<291.642 365.61> 418 86<376.642 451.358> 432 86<462.642 537.358> 447 85<548.642 623.358> 461 86<634.39 708.358>
LayerCount: 2
Back
Fore
SplineSet
475 757 m 0x020080
 475 733 456 714 432 714 c 0
 409 714 391 732 390 755 c 1x020110
 389 732 370 714 347 714 c 0
 324 714 305 732 304 755 c 1x0202
 303 732 284 714 261 714 c 0x0410
 238 714 219 732 218 755 c 1x0480
 217 732 198 714 175 714 c 0x0210
 151 714 132 733 132 757 c 0x0280
 132 781 151 800 175 800 c 0x0210
 198 800 217 782 218 759 c 1x0280
 219 782 238 800 261 800 c 0x0210
 284 800 303 782 304 759 c 1x0202
 305 782 324 800 347 800 c 0
 370 800 389 782 390 759 c 1
 391 782 409 800 432 800 c 0x020110
 456 800 475 781 475 757 c 0x020080
290 671 m 0x0404
 290 647 271 629 247 629 c 0x0820
 223 629 204 647 204 671 c 0x0804
 204 695 223 714 247 714 c 0x0420
 271 714 290 695 290 671 c 0x0404
547 671 m 0x040004
 547 647 528 629 504 629 c 0x080020
 480 629 461 647 461 671 c 0x080004
 461 695 480 714 504 714 c 0x040020
 528 714 547 695 547 671 c 0x040004
275 586 m 0x0808
 275 562 256 543 232 543 c 0x1040
 208 543 190 562 190 586 c 0x1008
 190 610 208 629 232 629 c 0x0840
 256 629 275 610 275 586 c 0x0808
532 586 m 0x080008
 532 562 514 543 490 543 c 0x100040
 466 543 447 562 447 586 c 0x100008
 447 610 466 629 490 629 c 0x080040
 514 629 532 610 532 586 c 0x080008
261 500 m 0x1010
 261 476 242 457 218 457 c 0x2002
 194 457 175 476 175 500 c 0x2010
 175 524 194 543 218 543 c 0x1002
 242 543 261 524 261 500 c 0x1010
518 500 m 0x100010
 518 476 499 457 475 457 c 0x200080
 451 457 432 476 432 500 c 0x200010
 432 524 451 543 475 543 c 0x100080
 499 543 518 524 518 500 c 0x100010
247 414 m 0x2020
 247 390 228 371 204 371 c 0x4004
 180 371 161 390 161 414 c 0x4020
 161 438 180 457 204 457 c 0x2004
 228 457 247 438 247 414 c 0x2020
504 414 m 0x200020
 504 390 485 371 461 371 c 0x400004
 437 371 418 390 418 414 c 0x400020
 418 438 437 457 461 457 c 0x200004
 485 457 504 438 504 414 c 0x200020
232 329 m 0x4040
 232 305 214 286 190 286 c 0x8008
 166 286 147 305 147 329 c 0x8040
 147 353 166 371 190 371 c 0x4008
 214 371 232 353 232 329 c 0x4040
490 329 m 0x400040
 490 305 471 286 447 286 c 0x400008
 423 286 404 305 404 329 c 0x400040
 404 353 423 371 447 371 c 0x400008
 471 371 490 353 490 329 c 0x400040
390 243 m 0x800280
 390 219 371 200 347 200 c 0
 324 200 305 218 304 241 c 1x800280
 303 218 284 200 261 200 c 0x8010
 238 200 219 218 218 241 c 1x8080
 217 218 198 200 175 200 c 0
 152 200 133 218 132 241 c 1
 131 218 113 200 90 200 c 0
 66 200 47 219 47 243 c 0
 47 267 66 286 90 286 c 0
 113 286 131 268 132 245 c 1
 133 268 152 286 175 286 c 0x8110
 198 286 217 268 218 245 c 1x8080
 219 268 238 286 261 286 c 0x8010
 284 286 303 268 304 245 c 1
 305 268 324 286 347 286 c 0
 371 286 390 267 390 243 c 0x800280
EndSplineSet
EndChar

StartChar: e
Encoding: 101 101 78
Width: 522
VWidth: 0
UnlinkRmOvrlpSave: 1
Flags: W
HStem: 200 86<52.6424 126.448 137.784 212.216 223.784 298.216 309.784 384.216 395.552 469.358> 286 85<66.6424 141.358> 371 86<80.6424 155.358> 457 86<95.39 169.216 180.784 255.216 266.784 341.358> 543 86<109.642 184.358> 629 85<123.642 198.358> 714 86<137.642 212.216 223.784 298.216 309.784 384.216 395.552 469.216 480.784 555.358>
VStem: 47 85<205.642 241 245 280.358> 61 86<291.642 365.61> 75 86<376.642 451.358> 90 85<462.853 498 502 537.147> 104 86<548.642 623.358> 118 86<634.39 708.358> 132 86<205.853 241 245 280.147 719.853 755 759 794.147> 175 86<462.853 498 502 537.147> 218 86<205.853 241 245 280.147 719.853 755 759 794.147> 261 86<462.853 498 502 537.147> 390 85<205.642 241 245 280.358 719.853 755 759 794.147>
LayerCount: 2
Back
Fore
SplineSet
561 757 m 0x0200c0
 561 733 542 714 518 714 c 0
 495 714 476 732 475 755 c 1
 474 732 455 714 432 714 c 0
 409 714 391 732 390 755 c 1
 389 732 370 714 347 714 c 0x0200c0
 324 714 305 732 304 755 c 1x020140
 303 732 284 714 261 714 c 0
 238 714 219 732 218 755 c 1x0204c0
 217 732 198 714 175 714 c 0x040240
 151 714 132 733 132 757 c 0x040440
 132 781 151 800 175 800 c 0x020240
 198 800 217 782 218 759 c 1
 219 782 238 800 261 800 c 0x0204c0
 284 800 303 782 304 759 c 1x020140
 305 782 324 800 347 800 c 0
 370 800 389 782 390 759 c 1
 391 782 409 800 432 800 c 0
 455 800 474 782 475 759 c 1
 476 782 495 800 518 800 c 0
 542 800 561 781 561 757 c 0x0200c0
204 671 m 0x040840
 204 647 185 629 161 629 c 0x084040
 137 629 118 647 118 671 c 0x080840
 118 695 137 714 161 714 c 0x044040
 185 714 204 695 204 671 c 0x040840
190 586 m 0x081040
 190 562 171 543 147 543 c 0x108040
 123 543 104 562 104 586 c 0x101040
 104 610 123 629 147 629 c 0x088040
 171 629 190 610 190 586 c 0x081040
347 500 m 0x1000c0
 347 476 328 457 304 457 c 0x100140
 281 457 262 475 261 498 c 1x100240
 260 475 241 457 218 457 c 0
 195 457 176 475 175 498 c 1x102140
 174 475 155 457 132 457 c 0x200440
 108 457 90 476 90 500 c 0x202040
 90 524 108 543 132 543 c 0x100440
 155 543 174 525 175 502 c 1
 176 525 195 543 218 543 c 0x102140
 241 543 260 525 261 502 c 1x100240
 262 525 281 543 304 543 c 0x100140
 328 543 347 524 347 500 c 0x1000c0
161 414 m 0x204040
 161 390 142 371 118 371 c 0x400840
 94 371 75 390 75 414 c 0x404040
 75 438 94 457 118 457 c 0x200840
 142 457 161 438 161 414 c 0x204040
147 329 m 0x408040
 147 305 128 286 104 286 c 0x801040
 80 286 61 305 61 329 c 0x808040
 61 353 80 371 104 371 c 0x401040
 128 371 147 353 147 329 c 0x408040
475 243 m 0
 475 219 456 200 432 200 c 0
 409 200 391 218 390 241 c 1
 389 218 370 200 347 200 c 0x8000c0
 324 200 305 218 304 241 c 1x800140
 303 218 284 200 261 200 c 0
 238 200 219 218 218 241 c 1x8004c0
 217 218 198 200 175 200 c 0
 152 200 133 218 132 241 c 1x810240
 131 218 113 200 90 200 c 0x802040
 66 200 47 219 47 243 c 0x810040
 47 267 66 286 90 286 c 0x802040
 113 286 131 268 132 245 c 1
 133 268 152 286 175 286 c 0x810240
 198 286 217 268 218 245 c 1
 219 268 238 286 261 286 c 0x8004c0
 284 286 303 268 304 245 c 1x800140
 305 268 324 286 347 286 c 0x8000c0
 370 286 389 268 390 245 c 1
 391 268 409 286 432 286 c 0
 456 286 475 267 475 243 c 0
EndSplineSet
EndChar

StartChar: f
Encoding: 102 102 79
Width: 522
VWidth: 0
UnlinkRmOvrlpSave: 1
Flags: W
HStem: 200 86<52.6424 126.61> 286 85<66.6424 141.358> 371 86<80.6424 155.358> 457 86<95.39 169.216 180.784 255.216 266.784 341.358> 543 86<109.642 184.358> 629 85<123.642 198.358> 714 86<137.642 212.216 223.784 298.216 309.784 384.216 395.552 469.216 480.784 555.358>
VStem: 47 85<205.642 280.358> 61 86<291.642 365.61> 75 86<376.642 451.358> 90 85<462.853 498 502 537.147> 104 86<548.642 623.358> 118 86<634.39 708.358> 132 86<719.853 755 759 794.147> 175 86<462.853 498 502 537.147> 218 86<719.853 755 759 794.147> 261 86<462.853 498 502 537.147> 304 86<719.853 755 759 794.147> 390 85<719.853 755 759 794.147> 475 86<719.853 755 759 794.147>
LayerCount: 2
Back
Fore
SplineSet
561 757 m 0x020010
 561 733 542 714 518 714 c 0
 495 714 476 732 475 755 c 1x020020
 474 732 455 714 432 714 c 0
 409 714 391 732 390 755 c 1x020040
 389 732 370 714 347 714 c 0x020080
 324 714 305 732 304 755 c 1x0201
 303 732 284 714 261 714 c 0
 238 714 219 732 218 755 c 1x020480
 217 732 198 714 175 714 c 0x0402
 151 714 132 733 132 757 c 0x0404
 132 781 151 800 175 800 c 0x0202
 198 800 217 782 218 759 c 1
 219 782 238 800 261 800 c 0x020480
 284 800 303 782 304 759 c 1x0201
 305 782 324 800 347 800 c 0x020080
 370 800 389 782 390 759 c 1x020040
 391 782 409 800 432 800 c 0
 455 800 474 782 475 759 c 1x020020
 476 782 495 800 518 800 c 0
 542 800 561 781 561 757 c 0x020010
204 671 m 0x0408
 204 647 185 629 161 629 c 0x0840
 137 629 118 647 118 671 c 0x0808
 118 695 137 714 161 714 c 0x0440
 185 714 204 695 204 671 c 0x0408
190 586 m 0x0810
 190 562 171 543 147 543 c 0x1080
 123 543 104 562 104 586 c 0x1010
 104 610 123 629 147 629 c 0x0880
 171 629 190 610 190 586 c 0x0810
347 500 m 0x100080
 347 476 328 457 304 457 c 0
 281 457 262 475 261 498 c 1x100240
 260 475 241 457 218 457 c 0
 195 457 176 475 175 498 c 1x1021
 174 475 155 457 132 457 c 0x2004
 108 457 90 476 90 500 c 0x2020
 90 524 108 543 132 543 c 0x1004
 155 543 174 525 175 502 c 1
 176 525 195 543 218 543 c 0x1021
 241 543 260 525 261 502 c 1
 262 525 281 543 304 543 c 0x100240
 328 543 347 524 347 500 c 0x100080
161 414 m 0x2040
 161 390 142 371 118 371 c 0x4008
 94 371 75 390 75 414 c 0x4040
 75 438 94 457 118 457 c 0x2008
 142 457 161 438 161 414 c 0x2040
147 329 m 0x4080
 147 305 128 286 104 286 c 0x8010
 80 286 61 305 61 329 c 0x8080
 61 353 80 371 104 371 c 0x4010
 128 371 147 353 147 329 c 0x4080
132 243 m 0x81
 132 219 114 200 90 200 c 0x8020
 66 200 47 219 47 243 c 0x81
 47 267 66 286 90 286 c 0x8020
 114 286 132 267 132 243 c 0x81
EndSplineSet
EndChar

StartChar: g
Encoding: 103 103 80
Width: 522
VWidth: 0
UnlinkRmOvrlpSave: 1
Flags: W
HStem: 200 86<123.642 198.216 209.784 284.216 295.784 370.216 381.552 455.358> 286 85<52.6424 127.358 395.642 470.358> 371 86<66.6424 141.358 409.642 484.358> 457 86<81.39 155.358 338.642 412.448 423.784 498.358> 543 86<95.6424 170.358> 629 85<109.642 184.358> 714 86<209.642 284.216 295.784 370.216 381.552 455.216 466.784 541.358>
VStem: 47 86<291.642 365.61> 61 86<376.642 451.358> 76 85<462.642 537.358> 90 86<548.642 623.358> 104 86<634.39 708.358> 204 86<205.853 241 245 280.147 719.853 755 759 794.147> 333 85<462.642 498 502 537.358> 376 85<205.642 241 245 280.358 719.853 755 759 794.147> 390 86<291.642 365.61> 404 86<376.642 451.358> 418 86<462.853 498 502 537.147>
LayerCount: 2
Back
Fore
SplineSet
547 757 m 0x020840
 547 733 528 714 504 714 c 0x020840
 481 714 462 732 461 755 c 1x020a
 460 732 441 714 418 714 c 0x020840
 395 714 377 732 376 755 c 1x020a
 375 732 356 714 333 714 c 0
 310 714 291 732 290 755 c 1
 289 732 270 714 247 714 c 0
 223 714 204 733 204 757 c 0
 204 781 223 800 247 800 c 0
 270 800 289 782 290 759 c 1
 291 782 310 800 333 800 c 0x020c
 356 800 375 782 376 759 c 1x020a
 377 782 395 800 418 800 c 0x020840
 441 800 460 782 461 759 c 1x020a
 462 782 481 800 504 800 c 0
 528 800 547 781 547 757 c 0x020840
190 671 m 0x0418
 190 647 171 629 147 629 c 0x0888
 123 629 104 647 104 671 c 0x0818
 104 695 123 714 147 714 c 0x0488
 171 714 190 695 190 671 c 0x0418
176 586 m 0x0828
 176 562 157 543 133 543 c 0x1108
 109 543 90 562 90 586 c 0x1028
 90 610 109 629 133 629 c 0x0908
 157 629 176 610 176 586 c 0x0828
161 500 m 0x1048
 161 476 142 457 118 457 c 0x2048
 94 457 76 476 76 500 c 0
 76 524 94 543 118 543 c 0
 142 543 161 524 161 500 c 0x1048
504 500 m 0x100840
 504 476 485 457 461 457 c 0x200a
 438 457 419 475 418 498 c 1x200c
 417 475 399 457 376 457 c 0x100a
 352 457 333 476 333 500 c 0x100c
 333 524 352 543 376 543 c 0x100a
 399 543 417 525 418 502 c 1x100c
 419 525 438 543 461 543 c 0x100a
 485 543 504 524 504 500 c 0x100840
147 414 m 0x2088
 147 390 128 371 104 371 c 0x4018
 80 371 61 390 61 414 c 0x4088
 61 438 80 457 104 457 c 0x2018
 128 457 147 438 147 414 c 0x2088
490 414 m 0x200880
 490 390 471 371 447 371 c 0x400880
 423 371 404 390 404 414 c 0
 404 438 423 457 447 457 c 0
 471 457 490 438 490 414 c 0x200880
133 329 m 0x4108
 133 305 114 286 90 286 c 0x4028
 66 286 47 305 47 329 c 0x4108
 47 353 66 371 90 371 c 0x4028
 114 371 133 353 133 329 c 0x4108
476 329 m 0x4009
 476 305 457 286 433 286 c 0x8009
 409 286 390 305 390 329 c 0
 390 353 409 371 433 371 c 0
 457 371 476 353 476 329 c 0x4009
461 243 m 0x800a
 461 219 442 200 418 200 c 0x800840
 395 200 377 218 376 241 c 1x800a
 375 218 356 200 333 200 c 0
 310 200 291 218 290 241 c 1
 289 218 270 200 247 200 c 0
 224 200 205 218 204 241 c 1
 203 218 184 200 161 200 c 0
 137 200 118 219 118 243 c 0
 118 267 137 286 161 286 c 0
 184 286 203 268 204 245 c 1
 205 268 224 286 247 286 c 0
 270 286 289 268 290 245 c 1
 291 268 310 286 333 286 c 0x804c
 356 286 375 268 376 245 c 1x800a
 377 268 395 286 418 286 c 0x800840
 442 286 461 267 461 243 c 0x800a
EndSplineSet
EndChar

